<?xml version="1.0" standalone="no"?>
<!DOCTYPE svg PUBLIC "-//W3C//DTD SVG 20010904//EN"
 "http://www.w3.org/TR/2001/REC-SVG-20010904/DTD/svg10.dtd">
<svg version="1.0" xmlns="http://www.w3.org/2000/svg"
 width="208.000000pt" height="208.000000pt" viewBox="0 0 208.000000 208.000000"
 preserveAspectRatio="xMidYMid meet">
<metadata>
Created by potrace 1.11, written by Peter Selinger 2001-2013
</metadata>
<g transform="translate(0.000000,208.000000) scale(0.100000,-0.100000)"
fill="#000000" stroke="none">
<path d="M1027 2038 c2 -5 -2 -8 -10 -8 -8 0 -22 -10 -31 -22 -9 -13 -14 -16
-11 -8 4 8 -1 6 -10 -5 -9 -11 -18 -19 -20 -17 -3 1 -13 2 -22 2 -12 0 -14 -3
-7 -8 8 -5 3 -14 -15 -27 -16 -12 -22 -14 -16 -4 6 8 3 7 -6 -2 -13 -14 -19
-15 -28 -6 -9 9 -11 9 -6 -3 4 -12 -1 -16 -20 -16 -14 0 -25 4 -25 10 0 5 -3
6 -6 3 -4 -3 -15 -2 -25 4 -14 7 -19 6 -19 -3 0 -8 -5 -5 -11 5 -9 15 -13 16
-26 6 -12 -10 -16 -10 -23 1 -5 8 -12 11 -16 7 -4 -4 -14 -1 -22 6 -12 9 -14
9 -9 0 6 -9 -1 -11 -23 -8 -18 2 -28 0 -24 -6 3 -5 -6 -25 -21 -44 -14 -20
-23 -40 -20 -45 6 -9 -8 -15 -29 -11 -5 1 -4 -5 4 -13 7 -10 8 -16 2 -16 -6 0
-14 -10 -18 -22 -8 -26 -29 -49 -38 -41 -3 3 -8 -1 -12 -10 -3 -9 -12 -13 -21
-10 -8 3 -19 0 -24 -8 -7 -12 -9 -12 -9 1 -1 12 -3 11 -11 -3 -9 -15 -13 -16
-27 -5 -9 7 -14 8 -9 3 11 -13 -45 -34 -65 -23 -14 6 -16 5 -12 -7 4 -9 0 -15
-9 -15 -8 0 -21 -8 -28 -17 -8 -10 -9 -14 -2 -10 8 5 11 0 10 -13 -1 -11 -4
-20 -7 -20 -4 0 -4 -14 -2 -31 3 -20 0 -34 -9 -40 -8 -5 -9 -9 -4 -9 14 0 17
-38 4 -46 -6 -4 -6 -11 2 -20 9 -11 9 -14 -1 -14 -8 0 -11 -3 -7 -6 3 -4 -2
-14 -11 -23 -11 -10 -12 -12 -2 -6 13 9 13 8 1 -8 -8 -10 -20 -16 -27 -13 -8
3 -13 2 -13 -2 3 -19 -2 -33 -10 -27 -6 3 -15 -4 -21 -15 -6 -11 -15 -18 -21
-15 -5 4 -8 3 -7 -2 2 -4 -1 -8 -5 -8 -5 0 -15 -12 -23 -27 -8 -16 -20 -28
-26 -28 -6 0 -5 -6 3 -17 8 -9 9 -14 3 -10 -6 3 -11 0 -11 -8 0 -8 5 -13 10
-12 5 1 12 -4 15 -12 3 -9 0 -11 -9 -7 -8 4 -6 1 3 -7 14 -11 15 -16 5 -26 -9
-10 -8 -11 5 -6 14 6 18 2 20 -16 0 -13 2 -30 2 -37 1 -7 6 -16 12 -20 21 -13
35 -50 22 -58 -6 -4 -8 -3 -5 2 3 6 1 16 -4 24 -7 12 -8 11 -6 -5 1 -11 6 -25
10 -31 4 -7 -2 -23 -13 -36 -11 -14 -16 -28 -13 -32 3 -3 2 -6 -4 -6 -6 0 -10
-8 -9 -17 0 -10 -5 -17 -12 -15 -10 2 -10 -2 -3 -17 8 -14 7 -20 -3 -24 -16
-6 -20 -83 -4 -93 7 -4 8 -3 4 4 -5 8 -2 10 8 6 9 -3 13 -10 10 -15 -3 -5 2
-12 10 -15 9 -3 16 -14 16 -23 0 -10 3 -12 8 -5 5 7 14 5 27 -9 12 -12 14 -17
5 -13 -8 4 -7 1 3 -6 36 -25 54 -43 66 -67 7 -13 8 -21 3 -17 -11 7 -11 -12 1
-31 4 -6 1 -14 -5 -16 -10 -4 -10 -6 0 -6 6 -1 12 -6 12 -12 0 -5 -6 -7 -12
-4 -7 4 -5 0 4 -7 15 -13 15 -15 0 -26 -9 -7 -12 -10 -6 -7 7 2 14 -2 18 -10
3 -8 0 -15 -6 -15 -9 0 -9 -3 0 -12 16 -16 15 -31 0 -22 -10 6 -10 5 -1 -8 7
-8 10 -18 6 -21 -3 -4 -1 -7 6 -7 7 0 9 -4 6 -10 -4 -6 1 -7 11 -3 13 5 15 3
9 -7 -5 -8 -4 -11 3 -6 6 3 13 2 17 -3 3 -6 13 -7 22 -4 9 4 19 -1 25 -11 8
-13 13 -15 24 -5 10 8 14 8 14 1 0 -7 7 -9 17 -5 11 4 14 3 9 -5 -4 -7 -2 -12
3 -12 6 0 11 6 11 13 0 8 3 8 8 1 4 -6 15 -13 25 -17 11 -4 15 -12 11 -19 -6
-9 -3 -9 9 1 14 11 18 11 23 -4 4 -9 7 -30 8 -45 1 -16 3 -27 5 -24 8 8 41
-18 35 -27 -3 -6 1 -16 10 -22 9 -7 18 -22 19 -35 0 -12 7 -22 14 -22 7 0 13
-3 13 -7 0 -5 11 -8 25 -8 14 0 25 5 25 10 0 6 5 3 10 -5 5 -8 10 -10 10 -3 0
6 13 10 30 9 16 -1 30 1 30 5 0 15 30 17 45 3 13 -14 15 -14 15 0 0 9 5 16 10
16 6 0 10 -6 10 -12 0 -10 3 -9 9 1 7 11 9 11 14 0 4 -11 6 -11 6 1 1 10 6 8
17 -8 8 -12 24 -22 35 -22 11 0 24 -10 29 -23 5 -12 9 -16 9 -8 1 10 7 7 20
-7 10 -12 24 -22 30 -22 7 0 9 -5 6 -10 -4 -6 -3 -10 2 -9 4 1 20 -1 35 -5 20
-6 32 -3 43 8 9 9 22 16 29 16 8 0 21 10 30 22 9 13 14 17 11 11 -4 -8 -1 -11
9 -7 9 3 14 11 13 17 -1 7 4 11 11 9 6 -1 12 3 12 9 0 5 4 8 9 5 5 -3 12 1 15
10 5 14 9 14 23 3 12 -10 14 -10 9 -1 -4 7 -2 12 4 12 6 0 8 4 5 10 -3 6 1 7
9 4 9 -3 13 -11 9 -18 -4 -6 0 -5 9 2 14 11 18 10 27 -5 7 -12 10 -13 11 -4 0
10 3 11 14 2 11 -9 15 -9 19 1 3 8 6 5 6 -6 1 -19 2 -19 14 -2 11 15 16 16 28
5 19 -18 39 -22 39 -7 0 6 7 3 16 -8 8 -10 12 -13 8 -5 -5 11 -2 13 14 9 14
-4 19 -2 16 6 -3 7 5 18 18 25 16 8 17 10 4 6 -18 -5 -19 -4 -5 12 8 10 20 30
27 45 6 16 16 28 22 28 6 0 8 5 5 10 -3 6 -1 10 5 10 6 0 8 5 4 12 -5 8 -2 9
11 4 13 -5 15 -3 8 6 -14 19 20 51 37 34 8 -8 9 -6 4 9 -4 11 -4 17 1 13 4 -4
24 0 44 8 37 16 82 26 114 25 9 0 15 4 12 8 -2 5 5 11 16 14 12 3 18 10 14 16
-3 6 0 11 7 11 8 0 9 3 3 8 -9 6 -12 27 -5 35 1 1 3 17 5 35 2 21 0 30 -7 25
-7 -3 -4 4 5 17 12 18 14 27 5 37 -8 9 -7 13 1 13 7 0 9 5 6 10 -4 6 -1 18 7
27 11 14 11 16 -2 8 -8 -4 -5 2 7 14 25 23 38 28 27 9 -4 -8 -3 -10 2 -5 5 5
10 13 10 18 1 5 2 14 3 20 0 5 6 7 11 4 6 -3 10 0 10 8 0 14 27 32 42 29 5 -1
7 2 5 7 -1 5 10 20 24 33 18 17 24 30 19 39 -5 8 -4 19 2 27 9 10 8 12 -3 10
-9 -2 -13 5 -12 20 2 13 -1 21 -7 17 -6 -3 -10 1 -10 9 0 9 -4 16 -8 16 -5 0
-8 13 -7 29 1 17 -3 29 -9 28 -6 -1 -11 12 -11 28 0 17 -4 33 -10 37 -6 5 -5
8 2 8 7 0 10 7 7 15 -4 8 -1 15 6 15 6 0 9 4 5 9 -3 5 1 16 9 24 8 8 12 17 9
21 -4 3 4 20 17 38 12 17 18 28 11 24 -6 -4 -11 -2 -11 3 0 6 5 11 10 11 6 0
10 8 10 19 0 25 -25 73 -34 64 -4 -4 -9 2 -12 14 -4 15 -11 20 -22 16 -10 -5
-13 -2 -8 6 5 8 1 14 -13 18 -12 3 -21 10 -21 15 0 5 5 6 12 2 7 -4 8 -3 4 4
-4 6 -12 9 -19 6 -17 -6 -50 30 -54 59 -3 21 -3 28 -3 60 0 15 -7 62 -10 62
-1 0 -3 12 -4 27 -1 14 2 25 5 22 7 -4 6 5 -6 43 -5 14 -12 20 -23 16 -10 -4
-13 -2 -8 5 4 7 4 12 -1 13 -60 4 -79 10 -91 25 -14 18 -14 18 -8 0 5 -15 4
-17 -7 -8 -8 7 -17 9 -20 5 -4 -3 -7 -1 -7 6 0 8 -6 11 -16 7 -9 -4 -13 -2 -8
5 4 8 -1 9 -16 4 -15 -5 -20 -4 -16 4 4 6 0 11 -9 11 -11 0 -15 5 -11 16 3 8
2 13 -3 10 -5 -3 -14 8 -20 24 -5 17 -15 30 -22 30 -7 0 -9 9 -6 21 3 12 3 18
0 15 -9 -8 -32 26 -33 47 0 10 -4 15 -10 12 -5 -3 -10 2 -10 11 0 10 -3 14 -7
11 -3 -4 -12 -2 -19 4 -8 7 -14 7 -19 -1 -5 -8 -11 -7 -21 1 -12 10 -14 10
-12 -1 2 -7 -3 -15 -11 -18 -9 -3 -11 0 -6 9 6 11 5 11 -5 2 -7 -6 -19 -9 -26
-6 -8 3 -14 0 -14 -7 0 -10 -3 -10 -14 -1 -11 10 -17 8 -25 -6 -6 -10 -11 -13
-11 -7 0 14 -32 13 -41 0 -4 -5 -16 -2 -28 6 -11 8 -18 18 -13 23 4 4 -1 5
-10 2 -13 -5 -18 -1 -18 11 0 15 -2 15 -10 2 -8 -13 -10 -12 -10 4 0 11 -3 16
-6 13 -4 -4 -14 1 -23 11 -9 9 -23 18 -31 20 -8 2 -16 8 -18 13 -2 5 -10 9
-18 9 -9 0 -13 3 -11 8 3 4 -5 7 -18 7 -13 0 -21 -3 -18 -7z"/>
<path d="M1546 233 c-6 -14 -5 -15 5 -6 7 7 10 15 7 18 -3 3 -9 -2 -12 -12z"/>
</g>
</svg>
