<?xml version="1.0" standalone="no"?>
<!DOCTYPE svg PUBLIC "-//W3C//DTD SVG 1.1//EN" "http://www.w3.org/Graphics/SVG/1.1/DTD/svg11.dtd" >
<svg xmlns="http://www.w3.org/2000/svg">
<metadata>
This is a custom SVG webfont generated by Font Squirrel.
Designer    : Linotype Staff
Foundry URL : http://www.adobe.com/type
</metadata>
<defs>
<font id="webfontjKeO83T6" horiz-adv-x="370" >
<font-face units-per-em="1000" ascent="712" descent="-288" />
<missing-glyph horiz-adv-x="186" />
<glyph unicode=" "  horiz-adv-x="186" />
<glyph unicode="&#x09;" horiz-adv-x="186" />
<glyph unicode="&#xa0;" horiz-adv-x="186" />
<glyph unicode="!" horiz-adv-x="240" d="M69 0v102h102v-102h-102zM95 176l-39 536h128l-39 -536h-50z" />
<glyph unicode="&#x22;" horiz-adv-x="278" d="M165 536v176h80v-176h-80zM33 536v176h80v-176h-80z" />
<glyph unicode="#" horiz-adv-x="372" d="M180 0l29 215h-84l-29 -215h-68l29 215h-51v60h59l22 162h-50v60h58l29 215h68l-29 -215h84l29 215h68l-29 -215h51v-60h-59l-22 -162h50v-60h-58l-29 -215h-68zM217 275l22 162h-84l-22 -162h84z" />
<glyph unicode="$" horiz-adv-x="372" d="M161 437v179q-43 -16 -43 -92q0 -39 7.5 -56.5t35.5 -30.5zM212 304v-208q30 7 38.5 31.5t8.5 74.5q0 51 -8.5 70t-38.5 32zM161 -90v84q-65 8 -107.5 54.5t-42.5 112.5v40h102v-36q0 -58 48 -69v230l-34 14q-63 26 -87 69t-24 114q0 79 37.5 132.5t107.5 62.5v75h51v-75 q66 -8 107.5 -55.5t41.5 -105.5v-50h-102v23q0 71 -47 86v-201l42 -17q64 -24 85.5 -67.5t21.5 -127.5q0 -194 -149 -209v-84h-51z" />
<glyph unicode="%" horiz-adv-x="352" d="M94 555q10 0 17.5 8t7.5 18v51q0 10 -7.5 18t-17.5 8t-17.5 -8t-7.5 -18v-51q0 -10 7.5 -18t17.5 -8zM94 495q-39 0 -62 21t-23 55v65q0 38 23 60t62 22t62 -22t23 -60v-65q0 -34 -23 -55t-62 -21zM233 131v-51q0 -10 7.5 -18t17.5 -8t17.5 8t7.5 18v51q0 10 -7.5 18 t-17.5 8t-17.5 -8t-7.5 -18zM258 -6q-39 0 -62 21t-23 55v65q0 38 23 60t62 22t62 -22t23 -60v-65q0 -34 -23 -55t-62 -21zM21 0l244 712h66l-244 -712h-66z" />
<glyph unicode="&#x26;" horiz-adv-x="481" d="M353 0l-34 54q-60 -60 -136 -60q-62 0 -104.5 46t-42.5 119q0 97 98 185q-62 88 -62 164q0 60 36.5 99t102.5 39q63 0 99 -37t36 -92q0 -86 -104 -179l38 -62q35 -57 56 -87l55 75l63 -44l-76 -98l77 -122h-102zM126 164q0 -37 21.5 -63.5t54.5 -26.5q42 0 76 43l-98 156 q-54 -56 -54 -109zM162 506q0 -39 39 -103q61 59 61 112q0 20 -13.5 35.5t-35.5 15.5t-36.5 -18t-14.5 -42z" />
<glyph unicode="'" horiz-adv-x="186" d="M53 536v176h80v-176h-80z" />
<glyph unicode="(" horiz-adv-x="222" d="M169 712h34q-51 -179 -51 -434q0 -193 51 -378h-34q-58 83 -88.5 193.5t-30.5 212.5q0 104 32 213.5t87 192.5z" />
<glyph unicode=")" horiz-adv-x="222" d="M53 -100h-34q51 179 51 434q0 193 -51 378h34q58 -83 88.5 -193.5t30.5 -212.5q0 -104 -32 -213.5t-87 -192.5z" />
<glyph unicode="*" d="M31 604l28 52l98 -60l-4 116h64l-4 -116l98 60l28 -52l-100 -56l100 -55l-28 -53l-98 60l4 -116h-64l4 116l-98 -60l-28 53l100 55z" />
<glyph unicode="+" horiz-adv-x="600" d="M260 293v213h80v-213h213v-80h-213v-213h-80v213h-213v80h213z" />
<glyph unicode="," horiz-adv-x="186" d="M42 -74v176h102v-102z" />
<glyph unicode="-" horiz-adv-x="389" d="M44 226v102h301v-102h-301z" />
<glyph unicode="." horiz-adv-x="186" d="M42 0v102h102v-102h-102z" />
<glyph unicode="/" horiz-adv-x="222" d="M5 -6l132 724h80l-132 -724h-80z" />
<glyph unicode="0" horiz-adv-x="372" d="M34 147v418q0 69 44.5 111t107.5 42t107.5 -42t44.5 -111v-418q0 -69 -44.5 -111t-107.5 -42t-107.5 42t-44.5 111zM136 565v-418q0 -22 14 -36.5t36 -14.5t36 14.5t14 36.5v418q0 22 -14 36.5t-36 14.5t-36 -14.5t-14 -36.5z" />
<glyph unicode="1" horiz-adv-x="372" d="M155 0v604l-102 -75v108l102 75h102v-712h-102z" />
<glyph unicode="2" horiz-adv-x="372" d="M34 0v96l184 347q18 35 18 94q0 18 -1 28t-5 24t-15 20.5t-29 6.5q-23 0 -36.5 -13.5t-13.5 -37.5v-58h-102v56q0 64 44.5 109.5t108.5 45.5q75 0 113 -51t38 -128q0 -54 -5.5 -79t-28.5 -69l-150 -289h184v-102h-304z" />
<glyph unicode="3" horiz-adv-x="372" d="M155 322v90q48 0 64.5 12t16.5 50v92q0 22 -13.5 36t-36.5 14q-25 0 -37.5 -15.5t-12.5 -34.5v-58h-102v59q0 63 45.5 107t108.5 44q70 0 111 -50q22 -26 30.5 -56t8.5 -95q0 -74 -10 -98.5t-53 -50.5q45 -28 54 -55t9 -108q0 -68 -5.5 -95t-21.5 -51q-44 -65 -126 -65 q-58 0 -104.5 37.5t-46.5 114.5v58h102v-53q0 -24 13.5 -39.5t36.5 -15.5t36.5 15.5t13.5 41.5v102q0 41 -15.5 54t-65.5 13z" />
<glyph unicode="4" horiz-adv-x="372" d="M212 0v106h-203v96l147 510h108l-153 -510h101v203h102v-203h49v-96h-49v-106h-102z" />
<glyph unicode="5" horiz-adv-x="372" d="M338 712v-96h-202v-192q35 33 85 33q53 0 85 -33t32 -93v-184q0 -69 -44.5 -111t-107.5 -42t-107.5 42t-44.5 111v30h102v-26q0 -26 14.5 -40.5t37.5 -14.5q22 0 35 14t13 39v167q0 21 -13.5 36t-34.5 15q-16 0 -28 -8.5t-15 -14.5l-9 -16h-90v384h292z" />
<glyph unicode="6" horiz-adv-x="372" d="M301 712l-116 -299l2 -2q13 9 43 9q56 0 86 -46q14 -21 18 -51.5t4 -114.5q0 -69 -4 -95t-19 -50q-41 -69 -129 -69q-85 0 -128 69q-15 24 -19.5 50t-4.5 95q0 62 4 88.5t15 57.5l134 358h114zM236 147v132q0 22 -15 36.5t-35 14.5t-35 -14.5t-15 -36.5v-132 q0 -22 15 -36.5t35 -14.5t35 14.5t15 36.5z" />
<glyph unicode="7" horiz-adv-x="372" d="M57 0l179 616h-112v-82h-90v178h304v-102l-173 -610h-108z" />
<glyph unicode="8" horiz-adv-x="372" d="M236 462v104q0 21 -15 35.5t-35 14.5t-35 -14.5t-15 -35.5v-104q0 -21 15 -35.5t35 -14.5t35 14.5t15 35.5zM34 526q0 56 8 83t29 54q42 55 115 55t115 -55q21 -27 29 -54t8 -83q0 -69 -8 -96.5t-43 -55.5q35 -26 43 -57t8 -118q0 -63 -6 -90.5t-22 -51.5 q-41 -63 -124 -63t-124 63q-16 24 -22 51.5t-6 90.5q0 87 8 118t43 57q-35 28 -43 55.5t-8 96.5zM236 146v140q0 21 -15 35.5t-35 14.5t-35 -14.5t-15 -35.5v-140q0 -21 15 -35.5t35 -14.5t35 14.5t15 35.5z" />
<glyph unicode="9" horiz-adv-x="372" d="M71 0l116 299l-2 2q-13 -9 -43 -9q-56 0 -86 46q-14 21 -18 51.5t-4 114.5q0 69 4 95t19 50q41 69 129 69q85 0 128 -69q15 -24 19.5 -50t4.5 -95q0 -62 -4 -88.5t-15 -57.5l-134 -358h-114zM136 565v-132q0 -22 15 -36.5t35 -14.5t35 14.5t15 36.5v132q0 22 -15 36.5 t-35 14.5t-35 -14.5t-15 -36.5z" />
<glyph unicode=":" horiz-adv-x="186" d="M42 227v102h102v-102h-102zM42 0v102h102v-102h-102z" />
<glyph unicode=";" horiz-adv-x="186" d="M42 227v102h102v-102h-102zM42 -74v176h102v-102z" />
<glyph unicode="&#x3c;" horiz-adv-x="600" d="M553 514v-80l-397 -181l397 -181v-80l-506 231v60z" />
<glyph unicode="=" horiz-adv-x="600" d="M47 313v80h506v-80h-506zM47 113v80h506v-80h-506z" />
<glyph unicode="&#x3e;" horiz-adv-x="600" d="M47 -8v80l397 181l-397 181v80l506 -231v-60z" />
<glyph unicode="?" d="M134 0v102h102v-102h-102zM32 507v59q0 63 45 107.5t109 44.5q75 0 118 -57q20 -27 27 -51.5t7 -70.5q0 -87 -16 -114l-69 -118q-17 -30 -17 -51v-80h-102v93q0 39 25 81l64 104q13 22 13 58v53q0 21 -14.5 36t-35.5 15q-20 0 -36 -14t-16 -37v-58h-102z" />
<glyph unicode="@" horiz-adv-x="800" d="M513 410q0 37 -19.5 60t-54.5 23q-62 0 -108 -63.5t-46 -131.5q0 -41 22.5 -64t60.5 -23q54 0 99.5 67.5t45.5 131.5zM639 548l-87 -275q-10 -30 -10 -45q0 -29 23 -29q47 0 91.5 71t44.5 144q0 103 -79.5 170.5t-188.5 67.5q-124 0 -213 -90t-89 -209q0 -123 89 -208 t218 -85q71 0 139 30.5t104 74.5h77q-48 -80 -136.5 -125.5t-191.5 -45.5q-158 0 -267 104t-109 260q0 149 111.5 254.5t266.5 105.5q144 0 245 -85t101 -214q0 -59 -23.5 -113.5t-58.5 -89.5t-74 -56t-72 -21q-70 0 -78 63h-2q-19 -20 -31.5 -31t-37 -21.5t-53.5 -10.5 q-63 0 -103 44t-40 108q0 67 28.5 129.5t83.5 103.5t122 41q38 0 69.5 -19.5t45.5 -58.5h2l20 61h63z" />
<glyph unicode="A" horiz-adv-x="407" d="M254 249l-50 258h-2l-50 -258h102zM2 0l159 712h85l159 -712h-102l-30 153h-139l-30 -153h-102z" />
<glyph unicode="B" horiz-adv-x="426" d="M48 0v712h149q93 0 137 -51.5t44 -128.5v-26q0 -53 -16.5 -81t-53.5 -51q70 -34 70 -140v-40q0 -194 -191 -194h-139zM150 330v-228h44q56 0 72 29t16 91q0 58 -17.5 83t-69.5 25h-45zM150 616v-196h46q49 0 67.5 24t18.5 76q0 49 -20.5 72.5t-69.5 23.5h-42z" />
<glyph unicode="C" horiz-adv-x="407" d="M372 203v-44q0 -67 -47.5 -116t-114.5 -49q-69 0 -118.5 39.5t-49.5 128.5v392q0 71 46.5 117.5t119.5 46.5q71 0 117.5 -48t46.5 -122v-40h-102v34q0 31 -17.5 52.5t-45.5 21.5q-36 0 -49.5 -21.5t-13.5 -61.5v-364q0 -73 62 -73q25 0 44.5 17t19.5 55v35h102z" />
<glyph unicode="D" horiz-adv-x="426" d="M48 0v712h151q86 0 132.5 -48.5t46.5 -135.5v-333q0 -98 -48.5 -146.5t-139.5 -48.5h-142zM150 616v-520h47q42 0 60.5 21.5t18.5 67.5v343q0 44 -18 66t-61 22h-47z" />
<glyph unicode="E" d="M48 0v712h304v-96h-202v-209h176v-96h-176v-209h202v-102h-304z" />
<glyph unicode="F" d="M48 0v712h304v-96h-202v-216h176v-96h-176v-304h-102z" />
<glyph unicode="G" horiz-adv-x="426" d="M42 168v376q0 82 51.5 128t119.5 46t119.5 -46t51.5 -128v-36h-102v36q0 35 -19.5 53.5t-49.5 18.5t-49.5 -18.5t-19.5 -53.5v-376q0 -35 19.5 -53.5t49.5 -18.5t49.5 18.5t19.5 53.5v134h-81v90h183v-224q0 -82 -51.5 -128t-119.5 -46t-119.5 46t-51.5 128z" />
<glyph unicode="H" horiz-adv-x="426" d="M48 0v712h102v-305h126v305h102v-712h-102v317h-126v-317h-102z" />
<glyph unicode="I" horiz-adv-x="204" d="M51 0v712h102v-712h-102z" />
<glyph unicode="J" horiz-adv-x="333" d="M285 712v-544q0 -73 -47.5 -123.5t-126.5 -50.5q-76 0 -133 64l80 64q26 -26 56 -26q26 0 47.5 19.5t21.5 66.5v530h102z" />
<glyph unicode="K" horiz-adv-x="426" d="M48 0v712h102v-325h2l149 325h102l-139 -285l165 -427h-108l-116 316l-55 -103v-213h-102z" />
<glyph unicode="L" d="M48 0v712h102v-610h202v-102h-304z" />
<glyph unicode="M" horiz-adv-x="556" d="M48 0v712h98l131 -377h2l130 377h99v-712h-102v433h-2l-101 -306h-51l-100 306h-2v-433h-102z" />
<glyph unicode="N" horiz-adv-x="444" d="M44 0v712h98l154 -429h2v429h102v-712h-96l-156 428h-2v-428h-102z" />
<glyph unicode="O" horiz-adv-x="426" d="M42 168v376q0 82 51.5 128t119.5 46t119.5 -46t51.5 -128v-376q0 -82 -51.5 -128t-119.5 -46t-119.5 46t-51.5 128zM144 544v-376q0 -35 19.5 -53.5t49.5 -18.5t49.5 18.5t19.5 53.5v376q0 35 -19.5 53.5t-49.5 18.5t-49.5 -18.5t-19.5 -53.5z" />
<glyph unicode="P" horiz-adv-x="407" d="M48 0v712h153q85 0 132 -50q26 -27 36 -64.5t10 -102.5q0 -96 -29 -143q-45 -74 -148 -74h-52v-278h-102zM150 616v-242h49q24 0 40.5 6.5t25 15t13 26.5t5 31.5t0.5 40.5q0 26 -0.5 39t-4.5 32t-12 28t-24 16t-39 7h-53z" />
<glyph unicode="Q" horiz-adv-x="426" d="M144 544v-376q0 -35 19.5 -53.5t49.5 -18.5q13 0 22 4l-46 37l52 62l41 -33v2v376q0 35 -19.5 53.5t-49.5 18.5t-49.5 -18.5t-19.5 -53.5zM42 168v376q0 82 51.5 128t119.5 46t119.5 -46t51.5 -128v-376q0 -42 -15 -73l63 -51l-52 -62l-60 49q-46 -37 -107 -37 q-68 0 -119.5 46t-51.5 128z" />
<glyph unicode="R" horiz-adv-x="426" d="M150 616v-222h58q50 0 66 26t16 85t-17 85t-70 26h-53zM48 0v712h164q180 0 180 -209q0 -129 -88 -178l110 -325h-108l-95 304h-61v-304h-102z" />
<glyph unicode="S" horiz-adv-x="406" d="M378 557v-50h-102v23q0 38 -17.5 62t-54.5 24q-69 0 -69 -92q0 -44 10 -62t48 -33l78 -31q64 -24 85.5 -67.5t21.5 -127.5q0 -209 -176 -209q-74 0 -124 48.5t-50 120.5v38h102v-32q0 -31 18 -52t54 -21q47 0 60.5 24.5t13.5 81.5q0 56 -10.5 74.5t-48.5 33.5l-73 30 q-63 26 -87 69t-24 114q0 85 45.5 140t129.5 55q73 0 121.5 -49.5t48.5 -111.5z" />
<glyph unicode="T" horiz-adv-x="332" d="M115 0v616h-118v96h338v-96h-118v-616h-102z" />
<glyph unicode="U" horiz-adv-x="426" d="M378 712v-552q0 -70 -48 -118t-117 -48t-117 48t-48 118v552h102v-542q0 -36 17.5 -55t45.5 -19t45.5 19t17.5 55v542h102z" />
<glyph unicode="V" horiz-adv-x="407" d="M394 712l-146 -712h-90l-145 712h108l81 -497h2l82 497h108z" />
<glyph unicode="W" horiz-adv-x="593" d="M577 712l-106 -712h-96l-78 462h-2l-77 -462h-96l-106 712h108l51 -452h2l80 452h78l83 -463h2l49 463h108z" />
<glyph unicode="X" horiz-adv-x="389" d="M-2 0l144 373l-133 339h108l77 -211l78 211h108l-136 -339l147 -373h-108l-89 240l-88 -240h-108z" />
<glyph unicode="Y" horiz-adv-x="388" d="M143 0v301l-140 411h108l82 -283h2l82 283h108l-140 -411v-301h-102z" />
<glyph unicode="Z" horiz-adv-x="333" d="M15 0v90l192 526h-182v96h293v-81l-196 -535h196v-96h-303z" />
<glyph unicode="[" horiz-adv-x="222" d="M214 712v-60h-66v-692h66v-60h-156v812h156z" />
<glyph unicode="\" horiz-adv-x="222" d="M85 718l132 -724h-80l-132 724h80z" />
<glyph unicode="]" horiz-adv-x="222" d="M8 -100v60h66v692h-66v60h156v-812h-156z" />
<glyph unicode="^" horiz-adv-x="600" d="M50 283l217 429h66l217 -429h-80l-170 339l-170 -339h-80z" />
<glyph unicode="_" horiz-adv-x="500" d="M0 -125v50h500v-50h-500z" />
<glyph unicode="`" horiz-adv-x="186" d="M68 715l90 -141h-66l-132 141h108z" />
<glyph unicode="a" d="M235 0v52h-2q-23 -31 -43.5 -44.5t-54.5 -13.5q-45 0 -77.5 30t-32.5 105q0 91 34.5 131.5t126.5 40.5q8 0 24 -1.5t25 -1.5v53q0 60 -51 60q-21 0 -37.5 -13.5t-20.5 -37.5h-99q5 69 46 110q43 43 111 43q67 0 110 -41.5t43 -118.5v-353h-102zM235 149v69q-17 3 -28 3 q-80 0 -80 -72q0 -30 14 -47.5t39 -17.5q26 0 40.5 17t14.5 48z" />
<glyph unicode="b" horiz-adv-x="389" d="M42 0v712h102v-251h2q35 52 94 52q62 0 91 -46q16 -26 16 -123v-193q0 -78 -17 -109q-26 -48 -89 -48q-24 0 -43 8t-28 16.5t-26 27.5v-46h-102zM245 165v186q0 60 -50 60q-22 0 -36.5 -15.5t-14.5 -39.5v-197q0 -28 14 -45.5t37 -17.5q50 0 50 69z" />
<glyph unicode="c" d="M150 353v-207q0 -24 13.5 -37t36.5 -13q45 0 50 51h102q0 -65 -41 -108q-43 -45 -111 -45q-93 0 -133 73q-19 35 -19 103v167q0 68 19 103q40 73 133 73q69 0 110.5 -45t41.5 -117h-102q0 60 -50 60t-50 -58z" />
<glyph unicode="d" horiz-adv-x="389" d="M144 351v-186q0 -69 50 -69q23 0 37 17.5t14 45.5v197q0 24 -14.5 39.5t-36.5 15.5q-50 0 -50 -60zM245 0v46q-17 -19 -26 -27.5t-28 -16.5t-43 -8q-63 0 -89 48q-17 31 -17 109v193q0 97 16 123q29 46 91 46q59 0 94 -52h2v251h102v-712h-102z" />
<glyph unicode="e" d="M337 215h-202v-69q0 -24 13.5 -37t36.5 -13q45 0 50 51h102q0 -65 -41 -108q-43 -45 -111 -45q-93 0 -133 73q-19 35 -19 103v167q0 68 19 103q40 73 133 73q69 0 110.5 -45t41.5 -113v-140zM135 353v-58h100v58q0 58 -50 58t-50 -58z" />
<glyph unicode="f" horiz-adv-x="222" d="M55 0v427h-50v80h50v69q0 69 38 102.5t93 33.5h47v-96h-46q-30 0 -30 -35v-74h76v-80h-76v-427h-102z" />
<glyph unicode="g" horiz-adv-x="389" d="M42 -59h102q1 -20 15 -35t39 -15q47 0 47 55v100h-2q-35 -52 -95 -52q-63 0 -89 48q-17 31 -17 109v193q0 97 16 123q29 46 91 46q24 0 42.5 -8t27.5 -16.5t26 -27.5v46h102v-569q0 -59 -39 -104t-114 -45q-55 0 -99 36t-53 116zM144 342v-186q0 -60 50 -60 q22 0 36.5 15.5t14.5 39.5v197q0 28 -14 45.5t-37 17.5q-50 0 -50 -69z" />
<glyph unicode="h" horiz-adv-x="389" d="M42 0v712h102v-254h2q36 55 96 55q43 0 74 -30.5t31 -93.5v-389h-102v351q0 28 -13 44t-37 16q-51 0 -51 -70v-341h-102z" />
<glyph unicode="i" horiz-adv-x="186" d="M42 610v102h102v-102h-102zM42 0v507h102v-507h-102z" />
<glyph unicode="j" horiz-adv-x="186" d="M42 610v102h102v-102h-102zM42 -16v523h102v-561q0 -73 -45.5 -112t-120.5 -39v96q37 0 50.5 19t13.5 74z" />
<glyph unicode="k" horiz-adv-x="389" d="M42 0v712h102v-426h2l123 221h102l-121 -206l146 -301h-111l-92 219l-49 -77v-142h-102z" />
<glyph unicode="l" horiz-adv-x="186" d="M36 136v576h102v-569q0 -28 10.5 -39t39.5 -14v-96q-77 0 -114.5 29.5t-37.5 112.5z" />
<glyph unicode="m" horiz-adv-x="592" d="M42 0v507h102v-49h2q36 55 96 55q54 0 91 -51q22 25 45.5 38t60.5 13q44 0 77.5 -30.5t33.5 -93.5v-389h-102v351q0 28 -13 44t-37 16q-51 0 -51 -70v-341h-102v351q0 28 -13 44t-37 16q-51 0 -51 -70v-341h-102z" />
<glyph unicode="n" horiz-adv-x="389" d="M42 0v507h102v-49h2q36 55 96 55q43 0 74 -30.5t31 -93.5v-389h-102v351q0 28 -13 44t-37 16q-51 0 -51 -70v-341h-102z" />
<glyph unicode="o" d="M33 170v167q0 68 19 103q40 73 133 73t133 -73q19 -35 19 -103v-167q0 -68 -19 -103q-40 -73 -133 -73t-133 73q-19 35 -19 103zM135 353v-199q0 -58 50 -58t50 58v199q0 58 -50 58t-50 -58z" />
<glyph unicode="p" horiz-adv-x="389" d="M42 -205v712h102v-46q17 19 26 27.5t28 16.5t43 8q63 0 89 -48q17 -31 17 -109v-193q0 -97 -16 -123q-29 -46 -91 -46q-59 0 -94 52h-2v-251h-102zM245 156v186q0 69 -50 69q-23 0 -37 -17.5t-14 -45.5v-197q0 -24 14.5 -39.5t36.5 -15.5q50 0 50 60z" />
<glyph unicode="q" horiz-adv-x="389" d="M245 -205v251h-2q-35 -52 -94 -52q-62 0 -91 46q-16 26 -16 123v193q0 78 17 109q26 48 89 48q24 0 43 -8t28 -16.5t26 -27.5v46h102v-712h-102zM144 342v-186q0 -60 50 -60q22 0 36.5 15.5t14.5 39.5v197q0 28 -14 45.5t-37 17.5q-50 0 -50 -69z" />
<glyph unicode="r" horiz-adv-x="278" d="M42 0v507h102v-54q36 31 65 45.5t70 14.5v-108q-15 6 -31 6q-39 0 -71.5 -27t-32.5 -83v-301h-102z" />
<glyph unicode="s" horiz-adv-x="352" d="M323 365h-96q-1 24 -16 38t-36 14q-23 0 -36.5 -15t-13.5 -36q0 -35 43 -52l60 -24q100 -38 100 -143q0 -64 -43.5 -108.5t-108.5 -44.5q-63 0 -106 40.5t-46 112.5h96q8 -57 55 -57q23 0 40 15.5t17 39.5q0 42 -51 62l-49 18q-103 39 -103 140q0 64 44 106t106 42 t102.5 -42.5t41.5 -105.5z" />
<glyph unicode="t" horiz-adv-x="204" d="M42 507v154h102v-154h63v-80h-63v-281q0 -33 13 -41.5t50 -8.5v-96h-42q-63 0 -93 36t-30 83v308h-51v80h51z" />
<glyph unicode="u" horiz-adv-x="389" d="M347 507v-507h-102v49h-2q-36 -55 -96 -55q-43 0 -74 30.5t-31 93.5v389h102v-351q0 -28 13 -44t37 -16q51 0 51 70v341h102z" />
<glyph unicode="v" horiz-adv-x="352" d="M353 507l-132 -507h-90l-132 507h108l68 -324h2l68 324h108z" />
<glyph unicode="w" horiz-adv-x="536" d="M535 507l-120 -507h-90l-56 301h-2l-56 -301h-90l-120 507h108l62 -315h2l57 315h80l54 -315h2l61 315h108z" />
<glyph unicode="x" horiz-adv-x="332" d="M-11 0l125 259l-119 248h108l63 -144l63 144h108l-121 -248l127 -259h-108l-69 155l-69 -155h-108z" />
<glyph unicode="y" horiz-adv-x="352" d="M-1 507h108l70 -316h2l69 316h105l-146 -595q-28 -117 -141 -117h-28v96h23q32 0 46 23t31 109z" />
<glyph unicode="z" horiz-adv-x="315" d="M17 0v81l165 336h-152v90h268v-81l-165 -330h165v-96h-281z" />
<glyph unicode="{" horiz-adv-x="222" d="M3 277v60q28 0 46 31.5t18 80.5v152q0 51 28.5 81t69.5 30h54v-60h-18q-44 0 -44 -66v-151q0 -60 -21.5 -91.5t-47.5 -36.5v-2q26 -5 47.5 -36t21.5 -93v-149q0 -67 44 -67h18v-60h-54q-41 0 -69.5 30t-28.5 81v151q0 50 -18 82.5t-46 32.5z" />
<glyph unicode="|" horiz-adv-x="222" d="M71 -250v1000h80v-1000h-80z" />
<glyph unicode="}" horiz-adv-x="222" d="M219 337v-60q-28 0 -46 -32.5t-18 -82.5v-151q0 -51 -28.5 -81t-69.5 -30h-54v60h18q44 0 44 67v149q0 62 21.5 93t47.5 36v2q-26 5 -47.5 36.5t-21.5 91.5v151q0 66 -44 66h-18v60h54q41 0 69.5 -30t28.5 -81v-152q0 -49 18 -80.5t46 -31.5z" />
<glyph unicode="~" horiz-adv-x="600" d="M495 330l36 -65q-46 -87 -125 -87q-41 0 -111 33l-21 9q-15 7 -24 10l-20 8q-11 5 -20 7t-17 2q-19 0 -36.5 -12t-26.5 -24l-25 -35l-36 64q46 87 125 87q41 0 111 -33l21 -10q15 -6 24 -10l20 -8q11 -4 20 -6t17 -2q19 0 36.5 12t27 24.5t24.5 35.5z" />
<glyph unicode="&#xa1;" horiz-adv-x="240" d="M69 405v102h102v-102h-102zM56 -205l39 536h50l39 -536h-128z" />
<glyph unicode="&#xa2;" horiz-adv-x="372" d="M164 96v315q-12 -4 -20 -19q-8 -14 -8 -35v-215q0 -36 28 -46zM164 -90v84q-76 6 -111 70q-19 35 -19 103v172q0 68 19 103q34 63 111 71v75h41v-75q61 -5 97 -49.5t36 -112.5h-102q0 49 -31 60v-315q27 9 31 51h102q0 -67 -41 -110q-37 -39 -92 -43v-84h-41z" />
<glyph unicode="&#xa3;" horiz-adv-x="372" d="M13 298v71h55q-38 71 -38 152q0 86 40.5 141.5t121.5 55.5q57 0 102.5 -42t45.5 -121v-45h-96v40q0 72 -55 72q-63 0 -63 -102q0 -67 32 -151h116v-71h-93q18 -50 18 -88q0 -53 -32 -109q7 -1 23.5 -4t31.5 -5t27 -2q40 0 66 32l68 -69q-43 -59 -111 -59q-18 0 -82.5 9.5 t-87.5 9.5q-44 0 -79 -16v86q28 17 64 20q27 40 27 87q0 49 -23 108h-78z" />
<glyph unicode="&#xa4;" horiz-adv-x="372" d="M4 214l42 42q-35 37 -35 100t34 100l-41 42l41 41l41 -42q39 34 100 34q62 0 101 -34l41 42l40 -41l-41 -41q34 -39 34 -101q0 -63 -34 -100l41 -41l-41 -41l-41 41q-37 -34 -100 -34q-62 0 -100 35l-41 -42zM77 356q0 -45 32 -77t77 -32t77 32t32 77t-32 77t-77 32 t-77 -32t-32 -77z" />
<glyph unicode="&#xa5;" horiz-adv-x="372" d="M138 0v172h-114v66h114v49h-114v66h98l-118 359h102l79 -283h2l79 283h102l-118 -359h98v-66h-114v-49h114v-66h-114v-172h-96z" />
<glyph unicode="&#xa6;" horiz-adv-x="222" d="M71 -175v350h80v-350h-80zM71 325v350h80v-350h-80z" />
<glyph unicode="&#xa7;" d="M325 581v-46h-85v42q0 25 -13.5 43t-36.5 18q-52 0 -52 -73q0 -37 7.5 -50t39.5 -34l97 -63q36 -23 45.5 -51.5t9.5 -107.5q0 -76 -14.5 -105t-72.5 -56q49 -25 62 -51.5t13 -89.5q0 -78 -25 -114q-17 -25 -48.5 -39.5t-65.5 -14.5q-51 0 -85 24.5t-46 55t-12 63.5v42h85 v-41q0 -27 15.5 -45.5t39.5 -18.5q30 0 43.5 19t13.5 59q0 37 -6 51.5t-26 26.5l-118 72q-37 23 -47 54.5t-10 107.5q0 86 18 120t74 51q-47 23 -59.5 50t-12.5 84q0 75 39 114.5t98 39.5q54 0 94.5 -36t40.5 -101zM135 312v-99q0 -22 14.5 -37.5t35.5 -15.5q20 0 35 15.5 t15 37.5v99q0 22 -15 37.5t-35 15.5q-21 0 -35.5 -15.5t-14.5 -37.5z" />
<glyph unicode="&#xa8;" horiz-adv-x="186" d="M-33 586v102h90v-102h-90zM129 586v102h90v-102h-90z" />
<glyph unicode="&#xa9;" horiz-adv-x="800" d="M524 287h66q-13 -70 -62 -113t-115 -43q-96 0 -155 64.5t-59 160.5q0 100 57 163t154 63q70 0 120.5 -40t59.5 -111h-66q-8 36 -39.5 60.5t-73.5 24.5q-65 0 -102.5 -45t-37.5 -113q0 -65 40 -113t102 -48q42 0 73 26t38 64zM690 356q0 122 -85 209t-205 87t-205 -87 t-85 -209t85 -209t205 -87t205 87t85 209zM38 356q0 150 106 256t256 106t256 -106t106 -256t-106 -256t-256 -106t-256 106t-106 256z" />
<glyph unicode="&#xaa;" horiz-adv-x="240" d="M154 410v31h-2q-27 -35 -63 -35q-30 0 -52.5 18t-22.5 64q0 55 24 80.5t84 25.5q4 0 32 -2v24q0 36 -33 36t-37 -30h-66q3 44 30 70q29 26 73 26t74.5 -25.5t30.5 -70.5v-212h-72zM154 504v37q-14 2 -18 2q-50 0 -50 -44q0 -29 32 -29q16 0 26 9.5t10 24.5z" />
<glyph unicode="&#xab;" horiz-adv-x="426" d="M213 479v-102l-101 -100l101 -100v-102l-203 202zM398 479v-102l-101 -100l101 -100v-102l-203 202z" />
<glyph unicode="&#xac;" horiz-adv-x="600" d="M473 113v200h-426v80h506v-280h-80z" />
<glyph unicode="&#xad;" horiz-adv-x="389" d="M44 226v102h301v-102h-301z" />
<glyph unicode="&#xae;" horiz-adv-x="800" d="M329 507v-119h75q98 0 98 63q0 56 -77 56h-96zM263 145v422h160q145 0 145 -119q0 -105 -108 -118l121 -185h-80l-121 183h-51v-183h-66zM690 356q0 122 -85 209t-205 87t-205 -87t-85 -209t85 -209t205 -87t205 87t85 209zM38 356q0 150 106 256t256 106t256 -106 t106 -256t-106 -256t-256 -106t-256 106t-106 256z" />
<glyph unicode="&#xaf;" horiz-adv-x="186" d="M-44 607v60h274v-60h-274z" />
<glyph unicode="&#xb0;" horiz-adv-x="260" d="M69 606q0 -26 17.5 -43.5t43.5 -17.5t43.5 17.5t17.5 43.5t-17.5 43.5t-43.5 17.5t-43.5 -17.5t-17.5 -43.5zM18 606q0 46 33 79t79 33t79 -33t33 -79t-33 -79t-79 -33t-79 33t-33 79z" />
<glyph unicode="&#xb1;" horiz-adv-x="600" d="M260 104v161h-213v80h213v161h80v-161h213v-80h-213v-161h-80zM47 0v80h506v-80h-506z" />
<glyph unicode="&#xb2;" horiz-adv-x="242" d="M11 584v36q0 42 31.5 70t78.5 28q46 0 78 -26t32 -65v-33q0 -37 -23 -75l-95 -160h118v-72h-220v54l128 212q12 21 12 39v23q0 14 -9.5 22.5t-21.5 8.5t-20.5 -8.5t-8.5 -22.5v-31h-80z" />
<glyph unicode="&#xb3;" horiz-adv-x="242" d="M100 474v66q30 0 40 6.5t11 27.5v42q0 13 -8.5 21.5t-21.5 8.5q-14 0 -22 -9.5t-8 -20.5v-26h-80v32q0 42 31.5 69t80.5 27q52 0 80 -30t28 -70v-41q0 -25 -8 -40.5t-33 -28.5q41 -24 41 -73v-51q0 -41 -28 -71t-82 -30q-46 0 -78 22.5t-32 71.5v34h80v-23q0 -15 8 -24 t22 -9q12 0 21 9t9 21v52q0 22 -10 29.5t-41 7.5z" />
<glyph unicode="&#xb4;" horiz-adv-x="186" d="M28 574l90 141h108l-132 -141h-66z" />
<glyph unicode="&#xb5;" horiz-adv-x="389" d="M347 507v-507h-102v49h-2q-12 -26 -32 -42q-17 -13 -34 -13q-21 0 -31 10h-2v-209h-102v712h102v-351q0 -28 13 -44t37 -16q51 0 51 70v341h102z" />
<glyph unicode="&#xb6;" horiz-adv-x="444" d="M182 -205v539q-67 0 -120.5 55t-53.5 131q0 95 58.5 143.5t159.5 48.5h172v-917h-72v866h-72v-866h-72z" />
<glyph unicode="&#xb7;" horiz-adv-x="186" d="M29 298q0 26 19 45t45 19t45 -19t19 -45t-19 -45t-45 -19t-45 19t-19 45z" />
<glyph unicode="&#xb8;" horiz-adv-x="186" d="M20 -86l65 86h46l-46 -60q20 2 31 2q45 0 65 -23t20 -52q0 -45 -37.5 -68t-85.5 -23q-41 0 -93 19l17 42q39 -15 65 -15q54 0 54 41q0 17 -13.5 27.5t-31.5 10.5q-21 0 -39 -7z" />
<glyph unicode="&#xb9;" horiz-adv-x="242" d="M93 287v353l-66 -43v72l66 43h80v-425h-80z" />
<glyph unicode="&#xba;" horiz-adv-x="240" d="M18 505v114q0 43 28 71t74 28t74 -28t28 -71v-114q0 -43 -28 -71t-74 -28t-74 28t-28 71zM90 617v-111q0 -34 30 -34t30 34v111q0 35 -30 35t-30 -35z" />
<glyph unicode="&#xbb;" horiz-adv-x="426" d="M28 75v102l101 100l-101 100v102l203 -202zM213 75v102l101 100l-101 100v102l203 -202z" />
<glyph unicode="&#xbc;" horiz-adv-x="555" d="M77 287v353l-66 -43v72l66 43h80v-425h-80zM18 -17l437 746h60l-437 -746h-60zM434 0v62h-143v62l98 303h80l-94 -299h59v115h80v-115h30v-66h-30v-62h-80z" />
<glyph unicode="&#xbd;" horiz-adv-x="555" d="M77 287v353l-66 -43v72l66 43h80v-425h-80zM18 -17l437 746h60l-437 -746h-60zM322 0v54l130 212q12 21 12 39v23q0 14 -9.5 22.5t-21.5 8.5q-13 0 -22 -8.5t-9 -22.5v-31h-80v36q0 42 32 70t80 28q46 0 78 -26t32 -65v-33q0 -37 -23 -75l-95 -160h118v-72h-222z" />
<glyph unicode="&#xbe;" horiz-adv-x="555" d="M100 474v66q30 0 40 6.5t11 27.5v42q0 13 -8.5 21.5t-21.5 8.5q-14 0 -22 -9.5t-8 -20.5v-26h-80v32q0 42 31.5 69t80.5 27q52 0 80 -30t28 -70v-41q0 -25 -8 -40.5t-33 -28.5q41 -24 41 -73v-51q0 -41 -28 -71t-82 -30q-46 0 -78 22.5t-32 71.5v34h80v-23q0 -15 8 -24 t22 -9q12 0 21 9t9 21v52q0 22 -10 29.5t-41 7.5zM37 -17l437 746h60l-437 -746h-60zM434 0v62h-143v62l98 303h80l-94 -299h59v115h80v-115h30v-66h-30v-62h-80z" />
<glyph unicode="&#xbf;" d="M134 405v102h102v-102h-102zM338 0v-59q0 -63 -45 -107.5t-109 -44.5q-75 0 -118 57q-20 27 -27 51.5t-7 70.5q0 87 16 114l69 118q17 30 17 51v80h102v-93q0 -39 -25 -81l-64 -104q-13 -22 -13 -58v-53q0 -21 14.5 -36t35.5 -15q20 0 36 14t16 37v58h102z" />
<glyph unicode="&#xc0;" horiz-adv-x="407" d="M179 885l90 -141h-66l-132 141h108zM254 249l-50 258h-2l-50 -258h102zM2 0l159 712h85l159 -712h-102l-30 153h-139l-30 -153h-102z" />
<glyph unicode="&#xc1;" horiz-adv-x="407" d="M139 744l90 141h108l-132 -141h-66zM254 249l-50 258h-2l-50 -258h102zM2 0l159 712h85l159 -712h-102l-30 153h-139l-30 -153h-102z" />
<glyph unicode="&#xc2;" horiz-adv-x="407" d="M59 744l98 141h94l98 -141h-78l-67 95l-67 -95h-78zM254 249l-50 258h-2l-50 -258h102zM2 0l159 712h85l159 -712h-102l-30 153h-139l-30 -153h-102z" />
<glyph unicode="&#xc3;" horiz-adv-x="407" d="M254 249l-50 258h-2l-50 -258h102zM2 0l159 712h85l159 -712h-102l-30 153h-139l-30 -153h-102zM323 869h51q-22 -111 -101 -111q-17 0 -75 20t-69 20q-20 0 -31.5 -12.5t-12.5 -32.5h-51q22 111 101 111q17 0 75.5 -20t68.5 -20q20 0 31.5 12.5t12.5 32.5z" />
<glyph unicode="&#xc4;" horiz-adv-x="407" d="M78 756v102h90v-102h-90zM240 756v102h90v-102h-90zM254 249l-50 258h-2l-50 -258h102zM2 0l159 712h85l159 -712h-102l-30 153h-139l-30 -153h-102z" />
<glyph unicode="&#xc5;" horiz-adv-x="407" d="M254 249l-50 258h-2l-50 -258h102zM2 0l159 712h85l159 -712h-102l-30 153h-139l-30 -153h-102zM102 835q0 42 30 72t72 30t72 -30.5t30 -71.5q0 -42 -30 -72t-72 -30t-72 30.5t-30 71.5zM143 835q0 -25 17.5 -43t43.5 -18t43.5 18t17.5 43t-17.5 43t-43.5 18t-43.5 -18 t-17.5 -43z" />
<glyph unicode="&#xc6;" horiz-adv-x="611" d="M2 0l202 712h389v-96h-202v-209h176v-96h-176v-209h202v-102h-304v153h-140l-39 -153h-108zM289 249v367h-24l-92 -367h116z" />
<glyph unicode="&#xc7;" horiz-adv-x="407" d="M131 -86l61 80q-63 5 -106.5 45t-43.5 123v392q0 71 46.5 117.5t119.5 46.5q71 0 117.5 -48t46.5 -122v-40h-102v34q0 31 -17.5 52.5t-45.5 21.5q-36 0 -49.5 -21.5t-13.5 -61.5v-364q0 -73 62 -73q25 0 44.5 17t19.5 55v35h102v-44q0 -59 -37.5 -105.5t-95.5 -57.5 l-43 -56q20 2 31 2q45 0 65 -23t20 -52q0 -45 -37.5 -68t-85.5 -23q-41 0 -93 19l17 42q39 -15 65 -15q54 0 54 41q0 17 -13.5 27.5t-31.5 10.5q-21 0 -39 -7z" />
<glyph unicode="&#xc8;" d="M170 885l90 -141h-66l-132 141h108zM48 0v712h304v-96h-202v-209h176v-96h-176v-209h202v-102h-304z" />
<glyph unicode="&#xc9;" d="M130 744l90 141h108l-132 -141h-66zM48 0v712h304v-96h-202v-209h176v-96h-176v-209h202v-102h-304z" />
<glyph unicode="&#xca;" d="M50 744l98 141h94l98 -141h-78l-67 95l-67 -95h-78zM48 0v712h304v-96h-202v-209h176v-96h-176v-209h202v-102h-304z" />
<glyph unicode="&#xcb;" d="M69 756v102h90v-102h-90zM231 756v102h90v-102h-90zM48 0v712h304v-96h-202v-209h176v-96h-176v-209h202v-102h-304z" />
<glyph unicode="&#xcc;" horiz-adv-x="204" d="M77 885l90 -141h-66l-132 141h108zM51 0v712h102v-712h-102z" />
<glyph unicode="&#xcd;" horiz-adv-x="204" d="M37 744l90 141h108l-132 -141h-66zM51 0v712h102v-712h-102z" />
<glyph unicode="&#xce;" horiz-adv-x="204" d="M-43 744l98 141h94l98 -141h-78l-67 95l-67 -95h-78zM51 0v712h102v-712h-102z" />
<glyph unicode="&#xcf;" horiz-adv-x="204" d="M-24 756v102h90v-102h-90zM138 756v102h90v-102h-90zM51 0v712h102v-712h-102z" />
<glyph unicode="&#xd0;" horiz-adv-x="426" d="M150 616v-200h70v-66h-70v-254h47q42 0 60.5 21.5t18.5 67.5v343q0 44 -18 66t-61 22h-47zM48 0v350h-48v66h48v296h151q86 0 132.5 -48.5t46.5 -135.5v-333q0 -98 -48.5 -146.5t-139.5 -48.5h-142z" />
<glyph unicode="&#xd1;" horiz-adv-x="444" d="M44 0v712h98l154 -429h2v429h102v-712h-96l-156 428h-2v-428h-102zM341 869h51q-22 -111 -101 -111q-17 0 -75 20t-69 20q-20 0 -31.5 -12.5t-12.5 -32.5h-51q22 111 101 111q17 0 75.5 -20t68.5 -20q20 0 31.5 12.5t12.5 32.5z" />
<glyph unicode="&#xd2;" horiz-adv-x="426" d="M188 885l90 -141h-66l-132 141h108zM42 168v376q0 82 51.5 128t119.5 46t119.5 -46t51.5 -128v-376q0 -82 -51.5 -128t-119.5 -46t-119.5 46t-51.5 128zM144 544v-376q0 -35 19.5 -53.5t49.5 -18.5t49.5 18.5t19.5 53.5v376q0 35 -19.5 53.5t-49.5 18.5t-49.5 -18.5 t-19.5 -53.5z" />
<glyph unicode="&#xd3;" horiz-adv-x="426" d="M148 744l90 141h108l-132 -141h-66zM42 168v376q0 82 51.5 128t119.5 46t119.5 -46t51.5 -128v-376q0 -82 -51.5 -128t-119.5 -46t-119.5 46t-51.5 128zM144 544v-376q0 -35 19.5 -53.5t49.5 -18.5t49.5 18.5t19.5 53.5v376q0 35 -19.5 53.5t-49.5 18.5t-49.5 -18.5 t-19.5 -53.5z" />
<glyph unicode="&#xd4;" horiz-adv-x="426" d="M68 744l98 141h94l98 -141h-78l-67 95l-67 -95h-78zM42 168v376q0 82 51.5 128t119.5 46t119.5 -46t51.5 -128v-376q0 -82 -51.5 -128t-119.5 -46t-119.5 46t-51.5 128zM144 544v-376q0 -35 19.5 -53.5t49.5 -18.5t49.5 18.5t19.5 53.5v376q0 35 -19.5 53.5t-49.5 18.5 t-49.5 -18.5t-19.5 -53.5z" />
<glyph unicode="&#xd5;" horiz-adv-x="426" d="M332 869h51q-22 -111 -101 -111q-16 0 -75 20t-69 20q-20 0 -31.5 -12.5t-12.5 -32.5h-51q22 111 101 111q17 0 75.5 -20t68.5 -20q20 0 31.5 12.5t12.5 32.5zM42 168v376q0 82 51.5 128t119.5 46t119.5 -46t51.5 -128v-376q0 -82 -51.5 -128t-119.5 -46t-119.5 46 t-51.5 128zM144 544v-376q0 -35 19.5 -53.5t49.5 -18.5t49.5 18.5t19.5 53.5v376q0 35 -19.5 53.5t-49.5 18.5t-49.5 -18.5t-19.5 -53.5z" />
<glyph unicode="&#xd6;" horiz-adv-x="426" d="M87 756v102h90v-102h-90zM249 756v102h90v-102h-90zM42 168v376q0 82 51.5 128t119.5 46t119.5 -46t51.5 -128v-376q0 -82 -51.5 -128t-119.5 -46t-119.5 46t-51.5 128zM144 544v-376q0 -35 19.5 -53.5t49.5 -18.5t49.5 18.5t19.5 53.5v376q0 35 -19.5 53.5t-49.5 18.5 t-49.5 -18.5t-19.5 -53.5z" />
<glyph unicode="&#xd7;" horiz-adv-x="600" d="M67 77l177 176l-177 177l57 56l176 -176l177 176l56 -56l-176 -177l176 -176l-56 -57l-177 177l-176 -177z" />
<glyph unicode="&#xd8;" horiz-adv-x="426" d="M10 -16l50 103q-18 35 -18 81v376q0 82 51.5 128t119.5 46q74 0 125 -52l40 84l38 -22l-50 -103q18 -34 18 -81v-376q0 -82 -51.5 -128t-119.5 -46q-77 0 -125 52l-40 -84zM146 262l136 287q-2 33 -21.5 50t-47.5 17q-30 0 -49.5 -18.5t-19.5 -53.5v-282h2zM280 449 l-136 -286q1 -32 20.5 -49.5t48.5 -17.5q30 0 49.5 18.5t19.5 53.5v281h-2z" />
<glyph unicode="&#xd9;" horiz-adv-x="426" d="M188 885l90 -141h-66l-132 141h108zM378 712v-552q0 -70 -48 -118t-117 -48t-117 48t-48 118v552h102v-542q0 -36 17.5 -55t45.5 -19t45.5 19t17.5 55v542h102z" />
<glyph unicode="&#xda;" horiz-adv-x="426" d="M148 744l90 141h108l-132 -141h-66zM378 712v-552q0 -70 -48 -118t-117 -48t-117 48t-48 118v552h102v-542q0 -36 17.5 -55t45.5 -19t45.5 19t17.5 55v542h102z" />
<glyph unicode="&#xdb;" horiz-adv-x="426" d="M68 744l98 141h94l98 -141h-78l-67 95l-67 -95h-78zM378 712v-552q0 -70 -48 -118t-117 -48t-117 48t-48 118v552h102v-542q0 -36 17.5 -55t45.5 -19t45.5 19t17.5 55v542h102z" />
<glyph unicode="&#xdc;" horiz-adv-x="426" d="M87 756v102h90v-102h-90zM249 756v102h90v-102h-90zM378 712v-552q0 -70 -48 -118t-117 -48t-117 48t-48 118v552h102v-542q0 -36 17.5 -55t45.5 -19t45.5 19t17.5 55v542h102z" />
<glyph unicode="&#xdd;" horiz-adv-x="388" d="M129 744l90 141h108l-132 -141h-66zM143 0v301l-140 411h108l82 -283h2l82 283h108l-140 -411v-301h-102z" />
<glyph unicode="&#xde;" horiz-adv-x="407" d="M48 0v712h102v-124h51q85 0 132 -50q26 -27 36 -64.5t10 -102.5q0 -96 -29 -143q-45 -74 -148 -74h-52v-154h-102zM150 492v-242h49q24 0 40.5 6.5t25 15t13 26.5t5 31.5t0.5 40.5q0 26 -0.5 39t-4.5 32t-12 28t-24 16t-39 7h-53z" />
<glyph unicode="&#xdf;" horiz-adv-x="389" d="M42 0v552q0 70 38.5 118t112.5 48q154 0 154 -182q0 -53 -11 -77t-48 -47q59 -33 59 -102v-176q0 -84 -39 -112t-107 -28v96q23 0 33.5 10.5t10.5 40.5v190q0 33 -44 33v90q24 0 34 8t10 31v80q0 49 -48 49q-29 0 -41 -19.5t-12 -68.5v-534h-102z" />
<glyph unicode="&#xe0;" d="M235 0v52h-2q-23 -31 -43.5 -44.5t-54.5 -13.5q-45 0 -77.5 30t-32.5 105q0 91 34.5 131.5t126.5 40.5q8 0 24 -1.5t25 -1.5v53q0 60 -51 60q-21 0 -37.5 -13.5t-20.5 -37.5h-99q5 69 46 110q43 43 111 43q67 0 110 -41.5t43 -118.5v-353h-102zM235 149v69q-17 3 -28 3 q-80 0 -80 -72q0 -30 14 -47.5t39 -17.5q26 0 40.5 17t14.5 48zM160 715l90 -141h-66l-132 141h108z" />
<glyph unicode="&#xe1;" d="M120 574l90 141h108l-132 -141h-66zM235 0v52h-2q-23 -31 -43.5 -44.5t-54.5 -13.5q-45 0 -77.5 30t-32.5 105q0 91 34.5 131.5t126.5 40.5q8 0 24 -1.5t25 -1.5v53q0 60 -51 60q-21 0 -37.5 -13.5t-20.5 -37.5h-99q5 69 46 110q43 43 111 43q67 0 110 -41.5t43 -118.5 v-353h-102zM235 149v69q-17 3 -28 3q-80 0 -80 -72q0 -30 14 -47.5t39 -17.5q26 0 40.5 17t14.5 48z" />
<glyph unicode="&#xe2;" d="M40 574l98 141h94l98 -141h-78l-67 95l-67 -95h-78zM235 0v52h-2q-23 -31 -43.5 -44.5t-54.5 -13.5q-45 0 -77.5 30t-32.5 105q0 91 34.5 131.5t126.5 40.5q8 0 24 -1.5t25 -1.5v53q0 60 -51 60q-21 0 -37.5 -13.5t-20.5 -37.5h-99q5 69 46 110q43 43 111 43 q67 0 110 -41.5t43 -118.5v-353h-102zM235 149v69q-17 3 -28 3q-80 0 -80 -72q0 -30 14 -47.5t39 -17.5q26 0 40.5 17t14.5 48z" />
<glyph unicode="&#xe3;" d="M304 699h51q-22 -111 -101 -111q-16 0 -75 20t-69 20q-20 0 -31.5 -12.5t-12.5 -32.5h-51q22 111 101 111q17 0 75.5 -20t68.5 -20q20 0 31.5 12.5t12.5 32.5zM235 0v52h-2q-23 -31 -43.5 -44.5t-54.5 -13.5q-45 0 -77.5 30t-32.5 105q0 91 34.5 131.5t126.5 40.5 q8 0 24 -1.5t25 -1.5v53q0 60 -51 60q-21 0 -37.5 -13.5t-20.5 -37.5h-99q5 69 46 110q43 43 111 43q67 0 110 -41.5t43 -118.5v-353h-102zM235 149v69q-17 3 -28 3q-80 0 -80 -72q0 -30 14 -47.5t39 -17.5q26 0 40.5 17t14.5 48z" />
<glyph unicode="&#xe4;" d="M59 586v102h90v-102h-90zM221 586v102h90v-102h-90zM235 0v52h-2q-23 -31 -43.5 -44.5t-54.5 -13.5q-45 0 -77.5 30t-32.5 105q0 91 34.5 131.5t126.5 40.5q8 0 24 -1.5t25 -1.5v53q0 60 -51 60q-21 0 -37.5 -13.5t-20.5 -37.5h-99q5 69 46 110q43 43 111 43 q67 0 110 -41.5t43 -118.5v-353h-102zM235 149v69q-17 3 -28 3q-80 0 -80 -72q0 -30 14 -47.5t39 -17.5q26 0 40.5 17t14.5 48z" />
<glyph unicode="&#xe5;" d="M235 0v52h-2q-23 -31 -43.5 -44.5t-54.5 -13.5q-45 0 -77.5 30t-32.5 105q0 91 34.5 131.5t126.5 40.5q8 0 24 -1.5t25 -1.5v53q0 60 -51 60q-21 0 -37.5 -13.5t-20.5 -37.5h-99q5 69 46 110q43 43 111 43q67 0 110 -41.5t43 -118.5v-353h-102zM235 149v69q-17 3 -28 3 q-80 0 -80 -72q0 -30 14 -47.5t39 -17.5q26 0 40.5 17t14.5 48zM83 660q0 42 30 72t72 30t72 -30.5t30 -71.5q0 -42 -30 -72t-72 -30t-72 30.5t-30 71.5zM124 660q0 -26 18 -43.5t43 -17.5t43 17.5t18 43.5t-18 43.5t-43 17.5t-43 -17.5t-18 -43.5z" />
<glyph unicode="&#xe6;" horiz-adv-x="572" d="M337 353v-58h100v58q0 58 -50 58t-50 -58zM539 355v-140h-202v-69q0 -24 13.5 -37t36.5 -13q45 0 50 51h102q0 -66 -42.5 -109t-109.5 -44h-4q-45 0 -78 20q-35 20 -51 52q-36 -72 -119 -72q-45 0 -77.5 30t-32.5 105q0 91 34.5 131.5t126.5 40.5q8 0 24 -1.5t25 -1.5v53 q0 60 -51 60q-21 0 -37.5 -13.5t-20.5 -37.5h-99q5 69 47 111t110 42q59 0 101 -36q41 36 102 36q69 0 110.5 -45t41.5 -113zM235 149v69q-17 3 -28 3q-80 0 -80 -72q0 -30 14 -47.5t39 -17.5q26 0 40.5 17t14.5 48z" />
<glyph unicode="&#xe7;" d="M112 -86l63 82q-75 11 -108 71q-19 35 -19 103v167q0 68 19 103q40 73 133 73q69 0 110.5 -45t41.5 -117h-102q0 60 -50 60t-50 -58v-207q0 -24 13.5 -37t36.5 -13q45 0 50 51h102q0 -65 -41 -108q-36 -37 -91 -43l-43 -56q20 2 31 2q45 0 65 -23t20 -52q0 -45 -37.5 -68 t-85.5 -23q-41 0 -93 19l17 42q39 -15 65 -15q54 0 54 41q0 17 -13.5 27.5t-31.5 10.5q-21 0 -39 -7z" />
<glyph unicode="&#xe8;" d="M337 215h-202v-69q0 -24 13.5 -37t36.5 -13q45 0 50 51h102q0 -65 -41 -108q-43 -45 -111 -45q-93 0 -133 73q-19 35 -19 103v167q0 68 19 103q40 73 133 73q69 0 110.5 -45t41.5 -113v-140zM135 353v-58h100v58q0 58 -50 58t-50 -58zM160 715l90 -141h-66l-132 141h108z " />
<glyph unicode="&#xe9;" d="M120 574l90 141h108l-132 -141h-66zM337 215h-202v-69q0 -24 13.5 -37t36.5 -13q45 0 50 51h102q0 -65 -41 -108q-43 -45 -111 -45q-93 0 -133 73q-19 35 -19 103v167q0 68 19 103q40 73 133 73q69 0 110.5 -45t41.5 -113v-140zM135 353v-58h100v58q0 58 -50 58t-50 -58z " />
<glyph unicode="&#xea;" d="M40 574l98 141h94l98 -141h-78l-67 95l-67 -95h-78zM337 215h-202v-69q0 -24 13.5 -37t36.5 -13q45 0 50 51h102q0 -65 -41 -108q-43 -45 -111 -45q-93 0 -133 73q-19 35 -19 103v167q0 68 19 103q40 73 133 73q69 0 110.5 -45t41.5 -113v-140zM135 353v-58h100v58 q0 58 -50 58t-50 -58z" />
<glyph unicode="&#xeb;" d="M59 586v102h90v-102h-90zM221 586v102h90v-102h-90zM337 215h-202v-69q0 -24 13.5 -37t36.5 -13q45 0 50 51h102q0 -65 -41 -108q-43 -45 -111 -45q-93 0 -133 73q-19 35 -19 103v167q0 68 19 103q40 73 133 73q69 0 110.5 -45t41.5 -113v-140zM135 353v-58h100v58 q0 58 -50 58t-50 -58z" />
<glyph unicode="&#xec;" horiz-adv-x="186" d="M68 715l90 -141h-66l-132 141h108zM42 0v507h102v-507h-102z" />
<glyph unicode="&#xed;" horiz-adv-x="186" d="M28 574l90 141h108l-132 -141h-66zM42 0v507h102v-507h-102z" />
<glyph unicode="&#xee;" horiz-adv-x="186" d="M-52 574l98 141h94l98 -141h-78l-67 95l-67 -95h-78zM42 0v507h102v-507h-102z" />
<glyph unicode="&#xef;" horiz-adv-x="186" d="M-33 586v102h90v-102h-90zM129 586v102h90v-102h-90zM42 0v507h102v-507h-102z" />
<glyph unicode="&#xf0;" d="M135 353v-199q0 -58 50 -58t50 58v199q0 58 -50 58t-50 -58zM86 608l69 32q-29 24 -77 43l83 44q46 -16 80 -47l68 32l28 -40l-63 -29q63 -83 63 -235v-238q0 -68 -19 -103q-40 -73 -133 -73t-133 73q-19 35 -19 103v167q0 68 19 103q40 73 133 73q30 0 48 -23l2 2 q-18 74 -47 111l-74 -35z" />
<glyph unicode="&#xf1;" horiz-adv-x="389" d="M314 699h51q-22 -111 -101 -111q-16 0 -75 20t-69 20q-20 0 -31.5 -12.5t-12.5 -32.5h-51q22 111 101 111q17 0 75.5 -20t68.5 -20q20 0 31.5 12.5t12.5 32.5zM42 0v507h102v-49h2q36 55 96 55q43 0 74 -30.5t31 -93.5v-389h-102v351q0 28 -13 44t-37 16q-51 0 -51 -70 v-341h-102z" />
<glyph unicode="&#xf2;" d="M33 170v167q0 68 19 103q40 73 133 73t133 -73q19 -35 19 -103v-167q0 -68 -19 -103q-40 -73 -133 -73t-133 73q-19 35 -19 103zM135 353v-199q0 -58 50 -58t50 58v199q0 58 -50 58t-50 -58zM160 715l90 -141h-66l-132 141h108z" />
<glyph unicode="&#xf3;" d="M120 574l90 141h108l-132 -141h-66zM33 170v167q0 68 19 103q40 73 133 73t133 -73q19 -35 19 -103v-167q0 -68 -19 -103q-40 -73 -133 -73t-133 73q-19 35 -19 103zM135 353v-199q0 -58 50 -58t50 58v199q0 58 -50 58t-50 -58z" />
<glyph unicode="&#xf4;" d="M40 574l98 141h94l98 -141h-78l-67 95l-67 -95h-78zM33 170v167q0 68 19 103q40 73 133 73t133 -73q19 -35 19 -103v-167q0 -68 -19 -103q-40 -73 -133 -73t-133 73q-19 35 -19 103zM135 353v-199q0 -58 50 -58t50 58v199q0 58 -50 58t-50 -58z" />
<glyph unicode="&#xf5;" d="M304 699h51q-22 -111 -101 -111q-16 0 -75 20t-69 20q-20 0 -31.5 -12.5t-12.5 -32.5h-51q22 111 101 111q17 0 75.5 -20t68.5 -20q20 0 31.5 12.5t12.5 32.5zM33 170v167q0 68 19 103q40 73 133 73t133 -73q19 -35 19 -103v-167q0 -68 -19 -103q-40 -73 -133 -73 t-133 73q-19 35 -19 103zM135 353v-199q0 -58 50 -58t50 58v199q0 58 -50 58t-50 -58z" />
<glyph unicode="&#xf6;" d="M59 586v102h90v-102h-90zM221 586v102h90v-102h-90zM33 170v167q0 68 19 103q40 73 133 73t133 -73q19 -35 19 -103v-167q0 -68 -19 -103q-40 -73 -133 -73t-133 73q-19 35 -19 103zM135 353v-199q0 -58 50 -58t50 58v199q0 58 -50 58t-50 -58z" />
<glyph unicode="&#xf7;" horiz-adv-x="600" d="M236 46q0 26 19 45t45 19t45 -19t19 -45t-19 -45t-45 -19t-45 19t-19 45zM236 460q0 26 19 45t45 19t45 -19t19 -45t-19 -45t-45 -19t-45 19t-19 45zM47 213v80h506v-80h-506z" />
<glyph unicode="&#xf8;" d="M137 209l95 163q-6 39 -47 39q-50 0 -50 -58v-144h2zM233 298l-95 -163q6 -39 47 -39q50 0 50 58v144h-2zM4 -12l49 83q-20 40 -20 87v191q0 72 41.5 118t110.5 46q66 0 106 -42l41 69l34 -21l-49 -83q20 -40 20 -87v-191q0 -72 -41.5 -118t-110.5 -46q-66 0 -106 42 l-41 -69z" />
<glyph unicode="&#xf9;" horiz-adv-x="389" d="M347 507v-507h-102v49h-2q-36 -55 -96 -55q-43 0 -74 30.5t-31 93.5v389h102v-351q0 -28 13 -44t37 -16q51 0 51 70v341h102zM170 715l90 -141h-66l-132 141h108z" />
<glyph unicode="&#xfa;" horiz-adv-x="389" d="M130 574l90 141h108l-132 -141h-66zM347 507v-507h-102v49h-2q-36 -55 -96 -55q-43 0 -74 30.5t-31 93.5v389h102v-351q0 -28 13 -44t37 -16q51 0 51 70v341h102z" />
<glyph unicode="&#xfb;" horiz-adv-x="389" d="M50 574l98 141h94l98 -141h-78l-67 95l-67 -95h-78zM347 507v-507h-102v49h-2q-36 -55 -96 -55q-43 0 -74 30.5t-31 93.5v389h102v-351q0 -28 13 -44t37 -16q51 0 51 70v341h102z" />
<glyph unicode="&#xfc;" horiz-adv-x="389" d="M69 586v102h90v-102h-90zM231 586v102h90v-102h-90zM347 507v-507h-102v49h-2q-36 -55 -96 -55q-43 0 -74 30.5t-31 93.5v389h102v-351q0 -28 13 -44t37 -16q51 0 51 70v341h102z" />
<glyph unicode="&#xfd;" horiz-adv-x="352" d="M111 574l90 141h108l-132 -141h-66zM-1 507h108l70 -316h2l69 316h105l-146 -595q-28 -117 -141 -117h-28v96h23q32 0 46 23t31 109z" />
<glyph unicode="&#xfe;" horiz-adv-x="389" d="M42 -205v917h102v-251q17 19 26 27.5t28 16.5t43 8q63 0 89 -48q17 -31 17 -109v-193q0 -97 -16 -123q-29 -46 -91 -46q-59 0 -94 52h-2v-251h-102zM245 156v186q0 69 -50 69q-23 0 -37 -17.5t-14 -45.5v-197q0 -24 14.5 -39.5t36.5 -15.5q50 0 50 60z" />
<glyph unicode="&#xff;" horiz-adv-x="352" d="M50 586v102h90v-102h-90zM212 586v102h90v-102h-90zM-1 507h108l70 -316h2l69 316h105l-146 -595q-28 -117 -141 -117h-28v96h23q32 0 46 23t31 109z" />
<glyph unicode="&#x152;" horiz-adv-x="610" d="M288 158v396q0 31 -19 52.5t-50 21.5t-50 -21.5t-19 -52.5v-396q0 -31 19 -52.5t50 -21.5t50 21.5t19 52.5zM592 712v-96h-202v-209h176v-96h-176v-209h202v-102h-304v34h-2q-13 -17 -36.5 -28.5t-48.5 -11.5q-70 0 -111.5 49t-41.5 120v386q0 71 41.5 120t111.5 49 q58 0 85 -42h2v36h304z" />
<glyph unicode="&#x153;" horiz-adv-x="572" d="M33 170v167q0 68 19 103q40 73 133 73q60 0 101 -34q38 34 101 34q69 0 110.5 -45t41.5 -113v-140h-202v-69q0 -24 13.5 -37t36.5 -13q45 0 50 51h102q0 -65 -41 -108q-43 -45 -111 -45q-71 0 -105 35q-37 -35 -97 -35q-93 0 -133 73q-19 35 -19 103zM337 353v-58h100v58 q0 58 -50 58t-50 -58zM135 353v-199q0 -58 50 -58t50 58v199q0 58 -50 58t-50 -58z" />
<glyph unicode="&#x178;" horiz-adv-x="388" d="M68 756v102h90v-102h-90zM230 756v102h90v-102h-90zM143 0v301l-140 411h108l82 -283h2l82 283h108l-140 -411v-301h-102z" />
<glyph unicode="&#x2c6;" horiz-adv-x="186" d="M-52 574l98 141h94l98 -141h-78l-67 95l-67 -95h-78z" />
<glyph unicode="&#x2dc;" horiz-adv-x="186" d="M212 699h51q-22 -111 -101 -111q-16 0 -75 20t-69 20q-20 0 -31.5 -12.5t-12.5 -32.5h-51q22 111 101 111q17 0 75.5 -20t68.5 -20q20 0 31.5 12.5t12.5 32.5z" />
<glyph unicode="&#x2000;" horiz-adv-x="468" />
<glyph unicode="&#x2001;" horiz-adv-x="937" />
<glyph unicode="&#x2002;" horiz-adv-x="468" />
<glyph unicode="&#x2003;" horiz-adv-x="937" />
<glyph unicode="&#x2004;" horiz-adv-x="312" />
<glyph unicode="&#x2005;" horiz-adv-x="234" />
<glyph unicode="&#x2006;" horiz-adv-x="156" />
<glyph unicode="&#x2007;" horiz-adv-x="156" />
<glyph unicode="&#x2008;" horiz-adv-x="117" />
<glyph unicode="&#x2009;" horiz-adv-x="187" />
<glyph unicode="&#x200a;" horiz-adv-x="52" />
<glyph unicode="&#x2010;" horiz-adv-x="389" d="M44 226v102h301v-102h-301z" />
<glyph unicode="&#x2011;" horiz-adv-x="389" d="M44 226v102h301v-102h-301z" />
<glyph unicode="&#x2013;" horiz-adv-x="500" d="M0 229v96h500v-96h-500z" />
<glyph unicode="&#x2014;" horiz-adv-x="1000" d="M0 229v96h1000v-96h-1000z" />
<glyph unicode="&#x2018;" horiz-adv-x="186" d="M144 712v-176h-102v102z" />
<glyph unicode="&#x2019;" horiz-adv-x="186" d="M42 536v176h102v-102z" />
<glyph unicode="&#x201a;" horiz-adv-x="186" d="M42 -74v176h102v-102z" />
<glyph unicode="&#x201c;" horiz-adv-x="278" d="M120 712v-176h-102v102zM260 712v-176h-102v102z" />
<glyph unicode="&#x201d;" horiz-adv-x="278" d="M158 536v176h102v-102zM18 536v176h102v-102z" />
<glyph unicode="&#x201e;" horiz-adv-x="278" d="M158 -74v176h102v-102zM18 -74v176h102v-102z" />
<glyph unicode="&#x2022;" horiz-adv-x="500" d="M72 356q0 74 52 126t126 52t126 -52t52 -126t-52 -126t-126 -52t-126 52t-52 126z" />
<glyph unicode="&#x2026;" horiz-adv-x="1000" d="M782 0v102h102v-102h-102zM449 0v102h102v-102h-102zM116 0v102h102v-102h-102z" />
<glyph unicode="&#x202f;" horiz-adv-x="187" />
<glyph unicode="&#x2039;" horiz-adv-x="241" d="M213 479v-102l-101 -100l101 -100v-102l-203 202z" />
<glyph unicode="&#x203a;" horiz-adv-x="241" d="M28 75v102l101 100l-101 100v102l203 -202z" />
<glyph unicode="&#x205f;" horiz-adv-x="234" />
<glyph unicode="&#x20ac;" horiz-adv-x="372" d="M341 694v-95q-25 25 -76 25q-82 0 -91 -155h143l-20 -78h-128v-33v-34h111l-20 -79h-86q8 -158 91 -158q52 0 76 24v-97q-25 -19 -95 -19q-74 0 -116.5 59.5t-53.5 190.5h-60l20 79h32q-1 9 -1 34q0 21 1 33h-52l20 78h38q19 248 173 248q64 0 94 -23z" />
<glyph unicode="&#x2122;" horiz-adv-x="990" d="M166 300v346h-127v66h326v-66h-127v-346h-72zM805 300v346h-2l-137 -346h-41l-136 346h-2v-346h-72v412h114l117 -301l117 301h114v-412h-72z" />
</font>
</defs>
</svg>
