<?xml version="1.0" standalone="no"?>
<!DOCTYPE svg PUBLIC "-//W3C//DTD SVG 1.1//EN" "http://www.w3.org/Graphics/SVG/1.1/DTD/svg11.dtd" >
<svg xmlns="http://www.w3.org/2000/svg">
<metadata>
This is a custom SVG webfont generated by Font Squirrel.
</metadata>
<defs>
<font id="webfont4baN8BBr" horiz-adv-x="1098" >
<font-face units-per-em="2048" ascent="1638" descent="-410" />
<missing-glyph horiz-adv-x="492" />
<glyph unicode=" "  horiz-adv-x="492" />
<glyph unicode="&#x09;" horiz-adv-x="492" />
<glyph unicode="&#xa0;" horiz-adv-x="492" />
<glyph unicode="!" horiz-adv-x="569" d="M190 82q0 25 13.5 47t36 35.5t45.5 13.5t45.5 -13.5t35.5 -36t13 -46.5q0 -39 -28.5 -66.5t-65.5 -27.5q-36 0 -65.5 28.5t-29.5 65.5zM211 512v879q0 94 74 94q73 0 73 -94v-879q0 -94 -73 -94q-74 0 -74 94z" />
<glyph unicode="&#x22;" horiz-adv-x="645" d="M123 1133v274q0 34 19.5 56t47.5 22q29 0 48.5 -22t19.5 -56v-274q0 -34 -19.5 -56t-48.5 -22q-28 0 -47.5 22t-19.5 56zM387 1133v274q0 34 20.5 56t47.5 22q28 0 47.5 -21.5t19.5 -56.5v-274q0 -35 -19.5 -56.5t-47.5 -21.5q-27 0 -47.5 22t-20.5 56z" />
<glyph unicode="#" d="M373 446l-54 -385q-9 -73 -69 -73q-27 0 -40 16t-13 41q0 35 10 100l41 301h-125q-34 0 -59 17t-25 45q0 30 24 46.5t60 16.5h143l47 330h-127q-37 0 -60.5 17t-23.5 47q0 29 23.5 45t60.5 16h144l53 385q9 74 70 74q25 0 39 -17t14 -41q0 -32 -10 -100l-41 -301h270 l53 385q9 74 70 74q27 0 40 -17t13 -41q0 -32 -10 -100l-41 -301h125q38 0 61 -16t23 -45q0 -30 -23 -47t-61 -17h-144l-47 -330h127q37 0 60.5 -16.5t23.5 -46.5q0 -28 -24 -45t-60 -17h-143l-53 -385q-9 -73 -70 -73q-27 0 -40 16t-13 41q0 35 10 100l41 301h-270z M664 571l45 330h-273l-45 -330h273z" />
<glyph unicode="$" horiz-adv-x="948" d="M502 709v-580q114 20 186 112.5t72 202.5q0 107 -66 163.5t-192 101.5zM428 895v451q-105 -16 -159 -74.5t-54 -145.5q0 -61 27 -103.5t74.5 -72t111.5 -55.5zM428 125v612q-175 61 -267.5 137t-92.5 240q0 81 27.5 143.5t77.5 111t115 76.5t140 36v98q0 41 37 41t37 -41 v-94q74 -1 149.5 -25t122.5 -61.5t47 -77.5q0 -28 -15.5 -48t-45.5 -20q-22 0 -61.5 28.5t-81 48t-115.5 20.5v-486q145 -55 218 -93t130 -115t57 -195q0 -124 -51 -227.5t-144.5 -167.5t-209.5 -74v-98q0 -41 -37 -41t-37 41v94q-114 1 -201.5 28t-136.5 68.5t-49 85.5 q0 23 16.5 42t48.5 19q29 0 80 -32.5t102.5 -53t139.5 -20.5z" />
<glyph unicode="%" horiz-adv-x="1518" d="M397 770q-82 0 -155.5 44.5t-116.5 124t-43 179.5q0 107 44.5 191t117.5 130t153 46q61 0 118.5 -26.5t102 -74.5t70 -115t25.5 -151q0 -100 -43 -179.5t-117 -124t-156 -44.5zM397 868q63 0 107 37t65 93.5t21 119.5q0 118 -51.5 193t-141.5 75q-89 0 -140.5 -75 t-51.5 -193q0 -63 20.5 -119.5t64 -93.5t107.5 -37zM1120 -12q-82 0 -155.5 44.5t-116.5 125t-43 180.5q0 106 44 190t117 129t154 45q60 0 119 -26t102 -72.5t69 -114t26 -151.5q0 -100 -43 -180.5t-117 -125t-156 -44.5zM1120 86q63 0 107 37t65 93.5t21 121.5 q0 116 -52 191t-141 75q-88 0 -140 -75t-52 -191q0 -65 20.5 -121.5t64 -93.5t107.5 -37zM440 78l533 1376q9 25 24 38t39 13q26 0 42 -13.5t16 -33.5q0 -15 -19 -63l-532 -1377q-22 -51 -64 -51q-26 0 -41.5 13.5t-15.5 33.5q0 17 18 64z" />
<glyph unicode="&#x26;" horiz-adv-x="1366" d="M643 874l361 -419l57 84q31 45 64.5 102t54 80.5t47.5 23.5q31 0 48 -19t17 -48q0 -15 -18 -54.5t-61 -105t-123 -168.5l188 -213q33 -35 33 -63q0 -80 -74 -80q-18 0 -29 8t-39 39l-163 190q-57 -69 -127 -124t-151.5 -87t-166.5 -32q-223 0 -350 121.5t-127 320.5 q0 148 91 264.5t257 212.5q-97 109 -132.5 172t-35.5 129q0 79 37 142t109 99t176 36q139 0 231 -70t92 -198q0 -76 -38 -139.5t-94 -109.5t-134 -94zM762 1208q0 69 -51 111.5t-133 42.5q-68 0 -117 -36.5t-49 -117.5q0 -46 34 -94t107 -133q118 67 163.5 116t45.5 111z M911 342l-397 461q-125 -64 -197.5 -160.5t-72.5 -206.5q0 -92 39 -163t110 -109.5t162 -38.5q92 0 188 53.5t168 163.5z" />
<glyph unicode="'" horiz-adv-x="381" d="M123 1133v274q0 34 19.5 56t47.5 22q29 0 48.5 -22t19.5 -56v-274q0 -34 -19.5 -56t-48.5 -22q-28 0 -47.5 22t-19.5 56z" />
<glyph unicode="(" horiz-adv-x="418" d="M223 682q0 -108 4 -203t14.5 -194t30.5 -191q19 -83 38.5 -138t19.5 -73q-1 -22 -17 -35.5t-43 -13.5q-33 0 -54 30t-44 103q-84 307 -84 715q0 410 84 717q23 73 44 102t54 29q27 0 43 -13.5t17 -35.5q0 -15 -19.5 -69.5t-38.5 -141.5q-49 -235 -49 -588z" />
<glyph unicode=")" horiz-adv-x="418" d="M195 682q0 348 -50 588q-18 86 -37.5 141t-19.5 70q1 22 17 35.5t42 13.5q34 0 56 -30.5t43 -100.5q84 -307 84 -717q0 -408 -84 -715q-20 -70 -42 -101.5t-57 -31.5q-26 0 -42 13.5t-17 35.5q0 18 20 73.5t37 137.5q50 240 50 588z" />
<glyph unicode="*" horiz-adv-x="795" d="M328 1116l-187 86q-59 29 -59 62q0 59 63 59q25 0 68 -31l152 -114l-17 114q-12 88 -12 125q0 30 16 49t45 19t45.5 -19t16.5 -49q0 -37 -13 -125l-16 -114l152 114q41 31 67 31q64 0 64 -59q0 -33 -60 -62l-186 -86l186 -84q60 -28 60 -61q0 -62 -64 -62q-25 0 -67 33 l-152 115l16 -115q13 -88 13 -125q0 -29 -16.5 -48t-45.5 -19t-45 19t-16 48q0 37 12 125l17 115l-152 -115q-43 -33 -68 -33q-63 0 -63 62q0 34 59 61z" />
<glyph unicode="+" horiz-adv-x="1229" d="M547 592v377q0 34 19.5 56t47.5 22q29 0 48.5 -22t19.5 -56v-377h373q34 0 56 -19.5t22 -48.5q0 -30 -22 -49.5t-56 -19.5h-373v-377q0 -34 -19.5 -56t-48.5 -22q-28 0 -47.5 22t-19.5 56v377h-373q-34 0 -56 19.5t-22 49.5q0 29 22 48.5t56 19.5h373z" />
<glyph unicode="," horiz-adv-x="492" d="M82 -127l117 262q19 43 69 43q33 0 52.5 -19.5t19.5 -43.5q0 -27 -16 -64l-117 -260q-19 -43 -70 -43q-32 0 -51.5 20t-19.5 44t16 61z" />
<glyph unicode="-" horiz-adv-x="721" d="M162 618h397q35 0 56.5 -19.5t21.5 -47.5q0 -29 -22 -49.5t-56 -20.5h-397q-34 0 -56 20.5t-22 49.5q0 28 21.5 47.5t56.5 19.5z" />
<glyph unicode="." horiz-adv-x="492" d="M152 82q0 40 28 68t66 28t66 -28t28 -68q0 -38 -28 -66t-66 -28t-66 28t-28 66z" />
<glyph unicode="/" horiz-adv-x="834" d="M96 96l522 1336q23 53 70 53q29 0 46.5 -15t17.5 -38q0 -17 -15 -56l-522 -1335q-21 -53 -70 -53q-28 0 -45.5 14.5t-17.5 38.5q0 20 14 55z" />
<glyph unicode="0" d="M549 -12q-82 0 -163.5 41t-149.5 129.5t-110 232.5t-42 346t42 346.5t110 233t149.5 128.5t163.5 40t163 -39.5t150 -128.5t110.5 -233.5t41.5 -346.5t-41 -346.5t-110.5 -233t-150.5 -129t-163 -40.5zM549 1350q-76 0 -134 -46t-96 -129t-56.5 -192.5t-18.5 -245.5 t18.5 -245t57 -193t96.5 -129t133 -45q150 0 227.5 167t77.5 445q0 133 -19.5 247t-56.5 194.5t-94.5 126t-134.5 45.5z" />
<glyph unicode="1" horiz-adv-x="721" d="M360 1335h-186q-34 0 -56 21t-22 49q0 29 22 48.5t56 19.5h256q34 0 56 -19.5t22 -48.5v-1323q0 -94 -74 -94t-74 94v1253z" />
<glyph unicode="2" d="M338 137h561q34 0 56 -20.5t22 -48.5q0 -27 -22 -47.5t-56 -20.5h-682q-40 0 -59 16.5t-19 40.5q0 38 39 93l473 659q125 175 125 287q0 254 -233 254q-131 0 -203 -87t-72 -253q0 -74 -71 -74q-76 0 -76 98q0 126 53.5 229t151.5 162.5t223 59.5q175 0 281 -100.5 t106 -276.5q0 -76 -32 -155.5t-107 -182.5z" />
<glyph unicode="3" d="M719 1106q0 49 -19.5 106t-66 97.5t-121.5 40.5q-96 0 -148.5 -61t-52.5 -173q0 -31 -20.5 -52.5t-52.5 -21.5t-53 21t-21 53q0 98 44 182.5t123.5 135.5t180.5 51q105 0 189 -48t131 -133.5t47 -189.5q0 -105 -43 -190t-123 -138q108 -34 176.5 -130.5t68.5 -219.5 q0 -128 -58 -229.5t-160.5 -160t-227.5 -58.5q-122 0 -214.5 55.5t-143 132.5t-50.5 135q0 40 21 61t47 21q51 0 68 -51q24 -74 85 -145.5t187 -71.5q129 0 208 81.5t79 203.5q0 141 -63.5 202t-143.5 74q-96 16 -121 34t-25 50q0 58 86 72q88 12 137.5 80.5t49.5 183.5z " />
<glyph unicode="4" d="M727 82v313h-586q-75 0 -75 58q0 37 55 125l485 815q54 92 148 92q57 0 88.5 -32.5t31.5 -88.5v-832h80q34 0 56 -20t22 -49q0 -27 -22 -47.5t-56 -20.5h-80v-313q0 -94 -73 -94q-74 0 -74 94zM727 532v830h-4l-471 -830h475z" />
<glyph unicode="5" d="M252 891l76 487q8 49 26.5 72t61.5 23h438q34 0 56 -19.5t22 -48.5q0 -28 -22 -49t-56 -21h-387l-66 -426q69 37 160 37q105 0 197.5 -57.5t146 -157.5t53.5 -223q0 -153 -57.5 -272t-161.5 -183.5t-233 -64.5q-84 0 -156 24t-129 63t-88 77t-31 61t19.5 48.5t52.5 25.5 q19 0 45 -24l65 -58q39 -34 92.5 -57t127.5 -23q136 0 215.5 103.5t79.5 260.5q0 96 -35 168t-100.5 112t-153.5 40q-43 0 -66.5 -8.5t-72.5 -30.5t-74 -22q-20 0 -37.5 16t-17.5 39q0 16 10 88z" />
<glyph unicode="6" d="M555 -12q-113 0 -196 45.5t-134.5 120t-75.5 159.5t-24 164q0 187 65 366.5t176.5 338t245.5 282.5q44 41 78 41q29 0 47.5 -21t18.5 -57q0 -20 -33 -53l-91 -92q-59 -58 -128.5 -154.5t-138.5 -236.5h4q41 27 97 43t114 16q91 0 163 -32.5t124 -95.5t79 -149.5 t27 -195.5q0 -121 -46 -233t-141 -184t-231 -72zM543 125q117 0 193.5 89t76.5 251q0 108 -32.5 189t-93.5 126t-140 45q-130 0 -196 -92.5t-66 -267.5q0 -139 67 -239.5t191 -100.5z" />
<glyph unicode="7" horiz-adv-x="985" d="M901 1335l-543 -1294q-22 -53 -75 -53q-28 0 -48 16t-20 41q0 23 25 80l508 1210h-611q-34 0 -56 21t-22 49q0 29 22 48.5t56 19.5h717q72 0 72 -46q0 -27 -25 -92z" />
<glyph unicode="8" d="M549 754q-80 0 -141 -42.5t-92 -113.5t-31 -152q0 -76 30.5 -151t90.5 -122.5t143 -47.5t143 47.5t90.5 122.5t30.5 151q0 126 -70.5 217t-193.5 91zM549 -12q-133 0 -229 61.5t-145.5 162.5t-49.5 222q0 140 67.5 245t182.5 134v4q-89 55 -141 140t-52 188 q0 88 47.5 166.5t131.5 126t188 47.5t187.5 -47.5t131 -126t47.5 -166.5q0 -70 -24.5 -132t-67.5 -111t-100 -85v-4q76 -21 133 -75.5t87 -132t30 -171.5q0 -118 -49.5 -220.5t-146 -164t-228.5 -61.5zM549 889q70 0 120.5 31t74.5 85.5t24 118.5q0 62 -28 114t-79 82 t-112 30q-64 0 -114.5 -29t-77.5 -79.5t-27 -113.5q0 -106 56 -172.5t163 -66.5z" />
<glyph unicode="9" d="M543 1485q115 0 198 -46t133 -118t74.5 -159t24.5 -167q0 -189 -66 -368t-177 -337t-245 -282q-44 -41 -77 -41q-28 0 -47 21.5t-19 56.5q0 20 33 54l94 95q61 60 128.5 155.5t135.5 232.5h-4q-89 -58 -211 -58q-120 0 -208.5 57.5t-136.5 164.5t-48 249q0 121 46 233.5 t141 184.5t231 72zM555 1350q-74 0 -136.5 -39.5t-98 -117.5t-35.5 -185q0 -108 32.5 -189t93.5 -126.5t140 -45.5q87 0 145.5 41.5t87.5 121t29 198.5q0 86 -28.5 165.5t-87 128t-142.5 48.5z" />
<glyph unicode=":" horiz-adv-x="492" d="M152 82q0 40 28 68t66 28t66 -28t28 -68q0 -38 -28 -66t-66 -28t-66 28t-28 66zM152 782q0 39 28 67t66 28t66 -28t28 -67q0 -37 -27.5 -66.5t-66.5 -29.5t-66.5 29.5t-27.5 66.5z" />
<glyph unicode=";" horiz-adv-x="492" d="M82 -127l117 262q19 43 69 43q33 0 52.5 -19.5t19.5 -43.5q0 -27 -16 -64l-117 -260q-19 -43 -70 -43q-32 0 -51.5 20t-19.5 44t16 61zM340 782q0 -37 -28.5 -66.5t-65.5 -29.5t-65.5 29.5t-28.5 66.5t28 66t66 29t66 -29t28 -66z" />
<glyph unicode="&#x3c;" horiz-adv-x="1229" d="M283 524l807 -397q33 -16 48 -32.5t15 -43.5q0 -29 -16 -46t-43 -17q-26 0 -64 18l-899 445q-55 26 -55 73q0 45 55 72l899 444q37 19 64 19q26 0 42.5 -15t16.5 -36q0 -54 -70 -90z" />
<glyph unicode="=" horiz-adv-x="1229" d="M174 799h881q34 0 56 -19.5t22 -48.5q0 -30 -22 -49.5t-56 -19.5h-881q-34 0 -56 19.5t-22 49.5q0 29 22 48.5t56 19.5zM174 385h881q34 0 56 -19.5t22 -48.5q0 -28 -22 -48.5t-56 -20.5h-881q-34 0 -56 20.5t-22 48.5q0 29 22 48.5t56 19.5z" />
<glyph unicode="&#x3e;" horiz-adv-x="1229" d="M946 524l-801 394q-69 35 -69 90q0 21 17 36t42 15q27 0 64 -19l899 -444q55 -27 55 -72q0 -47 -55 -73l-899 -445q-37 -18 -64 -18q-26 0 -42.5 17.5t-16.5 45.5q0 25 14.5 42t48.5 34z" />
<glyph unicode="?" horiz-adv-x="909" d="M338 82q0 40 28 68t66 28t66 -28t28 -68q0 -38 -28 -66t-66 -28t-66 28t-28 66zM358 508v264q0 43 15 59.5t65 26.5q129 27 192.5 93.5t63.5 164.5q0 57 -22 102t-56 73t-80.5 43.5t-89.5 15.5q-55 0 -107 -19.5t-89 -57t-47 -87.5q-10 -49 -27 -67.5t-53 -18.5 q-32 0 -50 23.5t-18 56.5q0 132 116 218.5t275 86.5q116 0 210 -46.5t146 -130t52 -188.5q0 -174 -93.5 -262t-254.5 -129v-221q0 -94 -74 -94t-74 94z" />
<glyph unicode="@" horiz-adv-x="1638" d="M537 614q0 -85 44 -137.5t121 -52.5q65 0 124 44.5t102 111.5t68.5 141t25.5 129q0 184 -166 184q-87 0 -160.5 -66t-116 -165.5t-42.5 -188.5zM1085 1010l27 69q20 54 72 54q25 0 42 -13t17 -35q0 -12 -12 -49l-148 -473q-20 -66 -20 -102q0 -62 55 -62q79 0 154 70 t120.5 177t45.5 212q0 116 -46.5 214t-127 164.5t-188 102t-232.5 35.5q-181 0 -328 -86.5t-231 -234.5t-84 -322t86 -319t231 -229.5t309 -84.5q143 0 244 34t152.5 71t109.5 88t78 51q45 0 45 -47q0 -39 -86.5 -114.5t-229 -134t-304.5 -58.5q-205 0 -380.5 100.5 t-276.5 273.5t-101 379q0 152 59.5 287.5t166.5 239.5t244.5 160.5t293.5 56.5q199 0 364 -79t260 -219.5t95 -318.5q0 -161 -81 -294.5t-196 -210t-205 -76.5q-138 0 -164 131h-4q-48 -61 -103 -96t-144 -35q-90 0 -155 42t-98.5 114t-33.5 161q0 102 35 204.5t96.5 183.5 t148 130t187.5 49q74 0 140.5 -41.5t100.5 -119.5z" />
<glyph unicode="A" horiz-adv-x="1253" d="M272 322l-96 -267q-18 -36 -32.5 -51.5t-49.5 -15.5q-30 0 -47.5 16.5t-17.5 40.5t14 64l469 1269q19 49 43 78t72 29q49 0 72 -29t42 -78l469 -1269q15 -38 15 -64q0 -25 -18 -41t-48 -16q-33 0 -49.5 15.5t-32.5 51.5l-96 267h-709zM932 457l-303 833h-4l-303 -833h610 z" />
<glyph unicode="B" horiz-adv-x="1100" d="M135 78v1317q0 78 90 78h264q113 0 196.5 -33t132 -86.5t71 -117.5t22.5 -132q0 -123 -52 -193.5t-154 -113.5v-4q151 -24 235 -120t84 -251q0 -114 -50.5 -210.5t-154 -154t-258.5 -57.5h-336q-47 0 -68.5 19t-21.5 59zM283 1335v-493h215q73 0 135 33t96.5 92t34.5 131 q0 49 -16.5 90t-50 74.5t-83 53t-112.5 19.5h-219zM283 717v-580h262q157 0 244.5 74.5t87.5 214.5q0 65 -23.5 118.5t-67.5 92t-105.5 59.5t-137.5 21h-260z" />
<glyph unicode="C" horiz-adv-x="1214" d="M717 1485q88 0 170 -23t142 -59t95 -73.5t35 -65.5q0 -35 -20.5 -56.5t-44.5 -21.5q-20 0 -48 22l-75 60q-47 36 -109 59t-147 23q-145 0 -253 -92.5t-164 -238.5t-56 -304q0 -159 53 -293t166.5 -215.5t279.5 -81.5q87 0 151 19.5t105.5 44.5t78.5 52t52 27 q29 0 45.5 -18t16.5 -55q0 -25 -33.5 -60t-97.5 -69t-148 -56t-178 -22q-163 0 -285 56t-205 159t-122 233t-39 279t39.5 286.5t119.5 247t200.5 173t275.5 63.5z" />
<glyph unicode="D" horiz-adv-x="1290" d="M135 78v1317q0 78 90 78h365q161 0 279.5 -65.5t192 -172t110 -240.5t36.5 -268q0 -223 -82.5 -387.5t-226.5 -252t-321 -87.5h-353q-47 0 -68.5 19t-21.5 59zM283 1335v-1198h286q252 0 366 167.5t114 449.5q0 148 -47 281t-153.5 216.5t-270.5 83.5h-295z" />
<glyph unicode="E" horiz-adv-x="909" d="M283 666v-529h446q34 0 56 -20.5t22 -48.5q0 -27 -22 -47.5t-56 -20.5h-504q-47 0 -68.5 19t-21.5 59v1317q0 78 90 78h484q34 0 55.5 -19t21.5 -49q0 -29 -21 -49.5t-56 -20.5h-424v-532h405q34 0 56 -19.5t22 -48.5q0 -30 -22 -49.5t-56 -19.5h-407z" />
<glyph unicode="F" horiz-adv-x="834" d="M283 666v-584q0 -94 -74 -94t-74 94v1317q0 31 21.5 51.5t52.5 22.5h518q34 0 56 -19.5t22 -48.5q0 -28 -22 -49t-56 -21h-444v-532h393q34 0 56 -19.5t22 -48.5q0 -30 -22 -49.5t-56 -19.5h-393z" />
<glyph unicode="G" horiz-adv-x="1366" d="M909 829h281q125 0 125 -114q0 -727 -594 -727q-215 0 -359.5 104.5t-212 274t-67.5 370.5q0 140 39.5 274t119.5 241t200.5 170t275.5 63q131 0 246 -41t183 -95.5t68 -88.5q0 -39 -20.5 -58.5t-50.5 -19.5q-19 0 -52 22l-89 61q-57 39 -123 62t-154 23 q-124 0 -215.5 -53.5t-150 -142t-88 -197t-29.5 -220.5q0 -173 54.5 -311.5t166 -219.5t270.5 -81q116 0 198.5 45t135 124t76.5 180t24 218h-258q-34 0 -56 21t-22 49t21.5 47.5t56.5 19.5z" />
<glyph unicode="H" horiz-adv-x="1366" d="M283 686v-604q0 -94 -74 -94t-74 94v1309q0 94 74 94q35 0 54.5 -24.5t19.5 -69.5v-568h800v568q0 94 74 94q35 0 54.5 -24.5t19.5 -69.5v-1309q0 -94 -74 -94t-74 94v604h-800z" />
<glyph unicode="I" horiz-adv-x="418" d="M283 1391v-1309q0 -94 -74 -94t-74 94v1309q0 94 74 94q35 0 54.5 -24.5t19.5 -69.5z" />
<glyph unicode="J" horiz-adv-x="721" d="M586 1391v-1051q0 -161 -87 -256.5t-235 -95.5q-80 0 -149.5 24t-109.5 59t-40 64q0 31 16 48.5t42 17.5q20 0 55 -26t75 -44t105 -18q102 0 141 60.5t39 166.5v1051q0 94 74 94q35 0 54.5 -24.5t19.5 -69.5z" />
<glyph unicode="K" horiz-adv-x="1139" d="M283 713v-631q0 -94 -74 -94t-74 94v1309q0 94 74 94q35 0 54.5 -24.5t19.5 -69.5v-549l653 594q54 49 90 49q31 0 47.5 -18.5t16.5 -43.5q0 -35 -33 -63l-639 -580l688 -661q33 -34 33 -68q0 -26 -18.5 -44.5t-47.5 -18.5q-39 0 -88 49z" />
<glyph unicode="L" horiz-adv-x="758" d="M283 1391v-1254h385q34 0 55.5 -19.5t21.5 -49.5q0 -28 -21.5 -48t-55.5 -20h-459q-32 0 -53 21t-21 53v1317q0 94 74 94q35 0 54.5 -24.5t19.5 -69.5z" />
<glyph unicode="M" horiz-adv-x="1708" d="M854 246l332 1143q28 96 108 96q133 0 150 -115l174 -1180q20 -120 20 -135q0 -67 -69 -67q-37 0 -54 22t-24 66l-182 1247h-4l-365 -1237q-16 -53 -35.5 -75.5t-52.5 -22.5q-29 0 -44 17t-30 58l-375 1256h-4l-182 -1243q-7 -44 -23.5 -66t-54.5 -22q-69 0 -69 67 q0 15 20 135l174 1180q18 115 150 115q84 0 112 -96l324 -1143h4z" />
<glyph unicode="N" horiz-adv-x="1364" d="M283 1212v-1130q0 -94 -74 -94t-74 94v1317q0 42 20.5 64t53.5 22q46 0 86 -53l782 -1158h4v1117q0 94 74 94q35 0 54.5 -24.5t19.5 -69.5v-1313q0 -90 -70 -90q-25 0 -40 10.5t-40 42.5l-792 1171h-4z" />
<glyph unicode="O" horiz-adv-x="1401" d="M82 737q0 143 39.5 276.5t119 241t195.5 169t264 61.5q149 0 266.5 -62t195 -167t117.5 -240.5t40 -278.5t-40 -278.5t-117 -240t-196 -167.5t-266 -63q-146 0 -264 62t-196.5 169t-118 241t-39.5 277zM700 125q159 0 262.5 90t150 230t46.5 292q0 151 -46.5 291.5 t-149.5 231t-263 90.5t-263.5 -91t-149 -232t-45.5 -290q0 -151 45.5 -291t149.5 -230.5t263 -90.5z" />
<glyph unicode="P" horiz-adv-x="1063" d="M283 563v-481q0 -94 -74 -94t-74 94v1313q0 78 92 78h351q153 0 255.5 -69.5t148.5 -170.5t46 -203q0 -125 -53.5 -232.5t-164 -171t-269.5 -63.5h-258zM283 1335v-637h270q110 0 184 46.5t109 119t35 154.5q0 81 -35 153t-109 118t-184 46h-270z" />
<glyph unicode="Q" horiz-adv-x="1401" d="M1198 268l152 -157q30 -34 30 -68q0 -22 -19.5 -38.5t-43.5 -16.5q-33 0 -64 32l-135 146q-78 -86 -183.5 -132t-234.5 -46q-146 0 -264 62t-196.5 169t-118 241t-39.5 277t39.5 276.5t119 241t195.5 169t264 61.5q149 0 266.5 -62t195 -167t117.5 -240.5t40 -278.5 q0 -128 -30.5 -248.5t-90.5 -220.5zM1024 264l-133 142q-29 31 -29 55q0 26 20 43.5t50 17.5q32 0 61 -33l101 -106q65 144 65 354q0 157 -46.5 300t-149.5 234t-263 91q-123 0 -211.5 -54.5t-142 -144t-79 -199.5t-25.5 -227q0 -157 45.5 -299.5t149.5 -233.5t263 -91 q207 0 324 151z" />
<glyph unicode="R" horiz-adv-x="1063" d="M283 653v-571q0 -94 -74 -94t-74 94v1313q0 78 92 78h322q107 0 188 -32t138 -89t85.5 -128t28.5 -151q0 -116 -49 -212t-137.5 -150t-202.5 -54h-135l504 -542q28 -32 28 -66q0 -27 -19.5 -44t-45.5 -17q-35 0 -66 32zM283 1335v-553h256q145 0 224 67.5t79 197.5 q0 288 -303 288h-256z" />
<glyph unicode="S" horiz-adv-x="946" d="M442 -12q-116 0 -207.5 26t-142.5 67.5t-51 82.5q0 29 20.5 50.5t49.5 21.5q12 0 33 -11t36 -24q23 -18 98 -47t144 -29q98 0 175 46t119 119.5t42 153.5q0 118 -82 173.5t-256.5 122t-264 143t-89.5 225.5q0 86 33.5 157t94 119.5t136.5 74t157 26.5q62 0 119 -14 t105.5 -38t78 -54.5t29.5 -55.5q0 -31 -20 -54.5t-41 -23.5q-27 0 -82.5 35t-94 52.5t-104.5 17.5q-75 0 -135.5 -32t-94.5 -85.5t-34 -114.5q0 -107 73 -152t254.5 -115.5t273 -153.5t91.5 -242q0 -101 -32.5 -186t-94.5 -148.5t-148 -98t-188 -34.5z" />
<glyph unicode="T" horiz-adv-x="872" d="M510 1335v-1253q0 -94 -74 -94t-74 94v1253h-282q-34 0 -56 21t-22 49q0 29 22 48.5t56 19.5h713q34 0 55.5 -19t21.5 -49q0 -29 -21 -49.5t-56 -20.5h-283z" />
<glyph unicode="U" horiz-adv-x="1364" d="M135 500v891q0 94 74 94q35 0 54.5 -24.5t19.5 -69.5v-871q0 -100 32 -174t88.5 -123.5t129.5 -73.5t149 -24q77 0 149 24t128 72t89 124.5t33 174.5v871q0 94 74 94q35 0 54.5 -24.5t19.5 -69.5v-891q0 -125 -45 -221.5t-123 -161.5t-174 -97t-205 -32 q-107 0 -204.5 32.5t-175.5 98t-122.5 163t-44.5 218.5z" />
<glyph unicode="V" horiz-adv-x="1139" d="M571 233l402 1190q19 62 71 62q36 0 55 -19t19 -51q0 -24 -28 -104l-433 -1233q-31 -90 -88 -90q-35 0 -53 23t-35 67l-432 1233q-29 83 -29 104q0 32 20 51t54 19q53 0 72 -62l401 -1190h4z" />
<glyph unicode="W" horiz-adv-x="1671" d="M406 162l352 1253q20 70 78 70q57 0 77 -70l353 -1253h4l196 1249q14 74 80 74q31 0 49.5 -16.5t18.5 -45.5q0 -23 -25 -153l-215 -1200q-7 -39 -39 -60.5t-69 -21.5q-89 0 -111 82l-317 1181h-4l-326 -1181q-22 -82 -111 -82q-37 0 -69 21.5t-39 60.5l-207 1200 q-25 132 -25 153q0 29 19.5 45.5t48.5 16.5q67 0 80 -74l196 -1249h5z" />
<glyph unicode="X" horiz-adv-x="1217" d="M608 907l357 525q19 29 35 41t42 12q27 0 48.5 -17.5t21.5 -40.5q0 -24 -29 -67l-393 -569l473 -676q29 -46 29 -70t-21.5 -40.5t-48.5 -16.5t-41 10.5t-37 42.5l-436 629l-436 -629q-20 -30 -35.5 -41.5t-42.5 -11.5q-28 0 -48.5 16.5t-20.5 40.5t28 70l473 676 l-393 569q-29 45 -29 67q0 23 21.5 40.5t48.5 17.5t43.5 -12.5t34.5 -40.5z" />
<glyph unicode="Y" horiz-adv-x="987" d="M494 842l356 600q23 43 74 43q29 0 45 -16.5t16 -41.5q0 -27 -45 -104l-373 -627v-614q0 -94 -73 -94q-74 0 -74 94v614l-373 627q-45 77 -45 104q0 24 17 41t44 17q51 0 74 -43z" />
<glyph unicode="Z" horiz-adv-x="1139" d="M242 137h762q34 0 55.5 -19.5t21.5 -49.5q0 -28 -21.5 -48t-55.5 -20h-824q-60 0 -91.5 22.5t-31.5 59.5q0 35 60 129l731 1124h-684q-34 0 -56 21t-22 49q0 29 22 48.5t56 19.5h821q36 0 53 -16.5t17 -39.5q0 -29 -29 -76z" />
<glyph unicode="[" horiz-adv-x="455" d="M152 -45v1456q0 31 20.5 52.5t52.5 21.5h140q33 0 48 -19t15 -43q0 -23 -15 -42t-48 -19h-66v-1358h66q33 0 48 -19t15 -42q0 -24 -15.5 -44t-47.5 -20h-140q-31 0 -52 23t-21 53z" />
<glyph unicode="\" horiz-adv-x="834" d="M215 1432l522 -1336q15 -37 15 -55q0 -24 -17.5 -38.5t-46.5 -14.5q-26 0 -41 11.5t-29 41.5l-522 1335q-14 37 -14 56q0 23 17.5 38t45.5 15q48 0 70 -53z" />
<glyph unicode="]" horiz-adv-x="455" d="M303 1411v-1456q0 -31 -21.5 -53.5t-52.5 -22.5h-139q-32 0 -47.5 21t-15.5 43t15 41.5t48 19.5h66v1358h-66q-32 0 -47.5 20t-15.5 41q0 23 15 42.5t48 19.5h139q15 0 28.5 -5t24.5 -16t16 -24t5 -29z" />
<glyph unicode="^" horiz-adv-x="1229" d="M117 653l432 787q23 45 65 45t66 -45l432 -787q18 -31 18 -57q0 -27 -20.5 -40t-46.5 -13q-27 1 -43.5 15.5t-40.5 55.5l-365 668l-364 -668q-21 -38 -39 -54t-45 -17q-25 0 -46.5 13t-21.5 40t19 57z" />
<glyph unicode="_" horiz-adv-x="1024" d="M1024 -258h-1024q-24 0 -41.5 14t-17.5 37t16.5 37t42.5 14h1024q26 0 42.5 -13.5t16.5 -37.5t-17.5 -37.5t-41.5 -13.5z" />
<glyph unicode="`" horiz-adv-x="418" d="M324 1257l-283 111q-39 15 -48 30.5t-9 37.5q0 23 16.5 46t40.5 23t53 -12l283 -109q38 -13 47.5 -30t9.5 -39q0 -26 -16.5 -48t-40.5 -22t-53 12z" />
<glyph unicode="a" horiz-adv-x="1139" d="M856 950v68q0 94 74 94q35 0 54.5 -24.5t19.5 -69.5v-936q0 -94 -74 -94t-74 94v70h-6q-99 -164 -301 -164q-151 0 -257 74.5t-159 201.5t-53 287q0 145 52 273.5t157.5 208t255.5 79.5q180 0 305 -162h6zM240 551q0 -108 31 -209t100.5 -165t177.5 -64q107 0 176.5 64.5 t100 166t30.5 207.5t-30.5 207.5t-100 166t-176.5 64.5q-105 0 -174.5 -64t-102 -164.5t-32.5 -209.5z" />
<glyph unicode="b" horiz-adv-x="1139" d="M135 82v1419q0 96 74 96t74 -96v-551h6q125 162 305 162q114 0 203 -47.5t146.5 -126.5t86.5 -179t29 -208q0 -160 -53 -287t-159 -201.5t-257 -74.5q-95 0 -173.5 42t-127.5 122h-6v-70q0 -94 -74 -94t-74 94zM281 551q0 -108 31 -209t100.5 -165t177.5 -64t177 64 t100.5 165t31.5 209t-31.5 209t-100.5 165t-177 64t-177.5 -64t-100.5 -165t-31 -209z" />
<glyph unicode="c" horiz-adv-x="909" d="M549 125q60 0 98 12t72.5 28.5t50.5 16.5q22 0 41.5 -17t19.5 -42q0 -66 -82.5 -100.5t-199.5 -34.5q-110 0 -198.5 47t-149 128t-91 181.5t-30.5 206.5t33 205t97 180.5t155 128.5t202 47q68 0 130.5 -15.5t101.5 -42.5t39 -57q0 -37 -20.5 -60.5t-61.5 -23.5 q-13 0 -48 20.5t-68 32t-91 11.5q-99 0 -169 -64.5t-105 -160t-35 -189.5q0 -116 37.5 -217t108 -161t163.5 -60z" />
<glyph unicode="d" horiz-adv-x="1139" d="M856 950v551q0 96 74 96t74 -96v-1419q0 -94 -74 -94t-74 94v70h-6q-99 -164 -301 -164q-151 0 -257 74.5t-159 201.5t-53 287q0 145 52 273.5t157.5 208t255.5 79.5q180 0 305 -162h6zM240 551q0 -108 31 -209t100.5 -165t177.5 -64q107 0 176.5 64.5t100 166 t30.5 207.5t-30.5 207.5t-100 166t-176.5 64.5q-105 0 -174.5 -64t-102 -164.5t-32.5 -209.5z" />
<glyph unicode="e" horiz-adv-x="1063" d="M913 483h-673q3 -94 44.5 -180t115 -138t163.5 -52q77 0 137.5 23.5t105.5 61.5l73 60q27 23 49 23q69 0 69 -72q0 -36 -56 -89.5t-154 -92.5t-214 -39q-165 0 -276 79.5t-164 208t-53 275.5q0 141 55 271.5t161 210t253 79.5q145 0 251.5 -74.5t160 -196.5t53.5 -266 q0 -92 -101 -92zM240 608h614q-3 95 -39.5 183.5t-105.5 143t-162 54.5t-162.5 -55t-105.5 -143t-39 -183z" />
<glyph unicode="f" horiz-adv-x="494" d="M319 977v-895q0 -94 -73 -94q-74 0 -74 94v895h-96q-32 0 -48 19.5t-16 41.5q0 23 15.5 42.5t48.5 19.5h96v284q0 105 54 159t141 54h75q51 0 76 -19t25 -50q0 -68 -78 -68h-68q-35 0 -56.5 -19.5t-21.5 -47.5v-293h132q33 0 48 -19t15 -43q0 -23 -15 -42t-48 -19h-132z " />
<glyph unicode="g" horiz-adv-x="1139" d="M856 952v66q0 94 74 94q35 0 54.5 -24.5t19.5 -69.5v-967q0 -163 -67 -275t-175 -167t-234 -55q-104 0 -200.5 32.5t-156.5 79.5t-60 86q0 34 18 55t55 21q23 0 83.5 -42.5t115.5 -69.5t131 -27q144 0 243 88t99 262v117h-4q-47 -83 -125.5 -125.5t-177.5 -42.5 q-151 0 -257 74.5t-159 201.5t-53 287q0 145 52 273.5t157.5 208t255.5 79.5q93 0 176.5 -45.5t130.5 -114.5h4zM240 551q0 -108 31 -209t100.5 -165t177.5 -64q92 0 163.5 48.5t108.5 125.5t37 157v211q0 81 -37 158t-108 126.5t-164 49.5q-108 0 -177.5 -64t-100.5 -165 t-31 -209z" />
<glyph unicode="h" d="M283 688v-606q0 -94 -74 -94t-74 94v1419q0 96 74 96t74 -96v-536h4q102 147 284 147q101 0 191 -45t145.5 -134.5t55.5 -213.5v-637q0 -94 -74 -94t-74 94v643q0 76 -32.5 133t-92.5 88t-141 31q-110 0 -188 -76.5t-78 -212.5z" />
<glyph unicode="i" horiz-adv-x="418" d="M283 1018v-936q0 -94 -74 -94t-74 94v936q0 94 74 94q35 0 54.5 -24.5t19.5 -69.5zM109 1384q0 28 13.5 51t36.5 36.5t50 13.5q20 0 39.5 -8t32 -21.5t20.5 -32.5t8 -39q0 -43 -28.5 -72.5t-71.5 -29.5q-41 0 -70.5 29.5t-29.5 72.5z" />
<glyph unicode="j" horiz-adv-x="418" d="M283 1016v-1368q0 -94 -74 -94t-74 94v1368q0 96 74 96t74 -96zM109 1384q0 28 13.5 51t36.5 36.5t50 13.5q20 0 39.5 -8t32 -21.5t20.5 -32.5t8 -39q0 -43 -28.5 -72.5t-71.5 -29.5q-41 0 -70.5 29.5t-29.5 72.5z" />
<glyph unicode="k" horiz-adv-x="909" d="M283 526v-444q0 -94 -74 -94t-74 94v1419q0 96 74 96t74 -96v-790l440 360q49 41 76 41q25 0 43 -18t18 -45q0 -26 -10.5 -43t-32.5 -33l-442 -346l489 -482q56 -52 56 -96q0 -26 -18.5 -43.5t-41.5 -17.5q-31 0 -57 17t-74 65z" />
<glyph unicode="l" horiz-adv-x="418" d="M283 1501v-1419q0 -94 -74 -94t-74 94v1419q0 96 74 96t74 -96z" />
<glyph unicode="m" horiz-adv-x="1704" d="M926 688v-606q0 -94 -74 -94t-74 94v606q0 289 -246 289q-61 0 -118 -33.5t-94 -98.5t-37 -157v-606q0 -94 -74 -94t-74 94v936q0 94 74 94q35 0 54.5 -24.5t19.5 -69.5v-53h4q102 147 284 147q96 0 173.5 -51.5t113.5 -140.5q53 92 140.5 142t179.5 50q100 0 190 -45 t145.5 -134.5t55.5 -213.5v-637q0 -94 -74 -94t-74 94v606q0 289 -245 289q-61 0 -118.5 -33.5t-94.5 -98.5t-37 -157z" />
<glyph unicode="n" d="M283 688v-606q0 -94 -74 -94t-74 94v936q0 94 74 94q35 0 54.5 -24.5t19.5 -69.5v-53h4q102 147 284 147q101 0 191 -45t145.5 -134.5t55.5 -213.5v-637q0 -94 -74 -94t-74 94v643q0 76 -32.5 133t-92.5 88t-141 31q-110 0 -188 -76.5t-78 -212.5z" />
<glyph unicode="o" d="M240 551q0 -108 31 -209t100.5 -165t177.5 -64t177 64t100.5 165t31.5 209t-31.5 209t-100.5 165t-177 64t-177.5 -64t-100.5 -165t-31 -209zM1018 551q0 -160 -53 -287t-159 -201.5t-257 -74.5t-257 74.5t-159 201.5t-53 287q0 145 52.5 273.5t158 208t258.5 79.5 t259 -80t158 -208t52 -273z" />
<glyph unicode="p" horiz-adv-x="1139" d="M135 -352v1370q0 94 74 94q35 0 54.5 -24.5t19.5 -69.5v-68h6q49 79 127.5 120.5t173.5 41.5q151 0 257 -74.5t159 -201t53 -285.5q0 -108 -29 -209t-86.5 -180t-146.5 -126.5t-203 -47.5q-63 0 -117 18t-100.5 55t-87.5 91h-6v-504q0 -94 -74 -94t-74 94zM281 551 q0 -108 31 -209t100.5 -165t177.5 -64t177 64t100.5 165t31.5 209t-31.5 209t-100.5 165t-177 64t-177.5 -64t-100.5 -165t-31 -209z" />
<glyph unicode="q" horiz-adv-x="1139" d="M80 551q0 116 30.5 220t88.5 179t148 118.5t202 43.5q96 0 174 -41t127 -121h6v68q0 94 74 94q35 0 54.5 -24.5t19.5 -69.5v-1370q0 -94 -74 -94t-74 94v504h-6q-64 -84 -137 -124t-168 -40q-113 0 -201.5 47t-147.5 128t-87.5 180.5t-28.5 207.5zM858 551 q0 108 -31.5 209t-100.5 165t-177 64t-177.5 -64t-100.5 -165t-31 -209t31 -209t100.5 -165t177.5 -64t177 64t100.5 165t31.5 209z" />
<glyph unicode="r" horiz-adv-x="645" d="M283 618v-536q0 -94 -74 -94t-74 94v936q0 94 74 94q35 0 54.5 -24.5t19.5 -69.5v-105h4q26 59 64.5 104.5t83.5 70t91 24.5q49 0 74 -22.5t25 -57.5q0 -31 -22.5 -48.5t-78.5 -31.5q-90 -20 -165.5 -97t-75.5 -237z" />
<glyph unicode="s" horiz-adv-x="909" d="M432 1112q101 0 190 -25t142 -64.5t53 -78.5q0 -74 -74 -74q-22 0 -73.5 36.5t-96.5 59.5t-110 23q-54 0 -103 -17.5t-79.5 -52.5t-30.5 -85q0 -90 100 -132l223 -90q129 -50 201 -119t72 -188q0 -142 -113 -229.5t-289 -87.5q-82 0 -154.5 21t-126 55t-83 70.5 t-29.5 62.5q0 20 22 45.5t48 25.5t83 -48t110.5 -77.5t136.5 -29.5q104 0 169.5 54t65.5 132q0 66 -40 103.5t-111 66.5l-254 106q-55 22 -99 55t-68 80.5t-24 112.5t29 119.5t79 92t111.5 57.5t122.5 20z" />
<glyph unicode="t" horiz-adv-x="492" d="M319 977v-895q0 -94 -73 -94q-74 0 -74 94v895h-96q-32 0 -48 19.5t-16 41.5q0 23 15.5 42.5t48.5 19.5h96v241q0 99 74 99q73 0 73 -99v-241h97q33 0 48 -19t15 -43q0 -23 -15 -42t-48 -19h-97z" />
<glyph unicode="u" d="M135 362v656q0 94 74 94q35 0 54.5 -24.5t19.5 -69.5v-619q0 -93 32 -157t91.5 -96.5t142.5 -32.5t142.5 32.5t91.5 96.5t32 157v619q0 94 74 94q35 0 54.5 -24.5t19.5 -69.5v-656q0 -114 -54 -199.5t-148.5 -130t-211.5 -44.5t-212 44.5t-148.5 130t-53.5 199.5z" />
<glyph unicode="v" horiz-adv-x="872" d="M438 246l264 798q24 68 78 68q31 0 49.5 -20t18.5 -48q0 -20 -8 -43l-328 -958q-18 -55 -76 -55q-57 0 -76 55l-327 958q-8 23 -8 43q0 27 18.5 47.5t48.5 20.5q56 0 78 -68l264 -798h4z" />
<glyph unicode="w" horiz-adv-x="1516" d="M422 227l252 817q21 68 84 68q62 0 84 -68l252 -817h4l254 817q22 68 82 68q32 0 50.5 -19.5t18.5 -48.5q0 -14 -12 -55l-311 -936q-23 -65 -82 -65q-30 0 -52.5 20t-37.5 72l-248 801h-4l-256 -828q-21 -65 -82 -65q-22 0 -47 16.5t-35 48.5l-311 936q-13 39 -13 55 q0 28 19 48t51 20q60 0 82 -68l254 -817h4z" />
<glyph unicode="x" horiz-adv-x="946" d="M473 475l-307 -436q-37 -51 -80 -51q-27 0 -46.5 19.5t-19.5 47.5q0 26 27 64l340 469l-295 395q-26 34 -26 61q0 29 18.5 48.5t46.5 19.5q43 0 80 -51l262 -363l262 363q37 51 80 51q27 0 46.5 -19.5t19.5 -48.5q0 -27 -27 -61l-295 -395l340 -469q27 -36 27 -64 t-19.5 -47.5t-46.5 -19.5q-43 0 -80 51z" />
<glyph unicode="y" horiz-adv-x="872" d="M367 29l-334 972q-8 23 -8 43q0 27 18.5 47.5t48.5 20.5q56 0 78 -68l264 -798h4l264 798q24 68 78 68q31 0 49.5 -20t18.5 -48q0 -20 -8 -43l-471 -1374q-25 -73 -80 -73q-31 0 -49.5 18.5t-18.5 42.5q0 29 12 59z" />
<glyph unicode="z" horiz-adv-x="909" d="M795 954l-547 -817h528q34 0 56 -20.5t22 -48.5q0 -27 -22 -47.5t-56 -20.5h-633q-86 0 -86 59q0 40 33 88l547 818h-479q-34 0 -56 19.5t-22 47.5q0 29 22 48.5t56 19.5h587q82 0 82 -56q0 -42 -32 -90z" />
<glyph unicode="{" horiz-adv-x="528" d="M195 1020v242q0 125 51 174t149 49h60q34 0 49.5 -17t15.5 -38q0 -20 -15.5 -38t-49.5 -18h-43q-82 0 -82 -160v-227q0 -94 -30 -160t-68 -100t-64 -43v-4q49 -15 105.5 -90.5t56.5 -210.5v-227q0 -160 82 -160h43q34 0 49.5 -17t15.5 -38t-16 -39.5t-49 -18.5h-60 q-98 0 -149 50.5t-51 174.5v242q0 103 -12.5 162.5t-42 89t-81.5 29.5q-21 0 -36 16t-15 39q0 24 15 40.5t36 16.5q52 0 81.5 29.5t42 89t12.5 162.5z" />
<glyph unicode="|" horiz-adv-x="455" d="M160 66v1452q0 35 19 57t48 22q30 0 49 -22t19 -57v-1452q0 -34 -19.5 -56t-48.5 -22q-28 0 -47.5 22t-19.5 56z" />
<glyph unicode="}" horiz-adv-x="528" d="M199 987v227q0 68 -18.5 114t-63.5 46h-43q-34 0 -50 17.5t-16 38.5t16 38t50 17h59q99 0 150 -49t51 -174v-242q0 -149 29.5 -215t105.5 -66q21 0 36 -17t15 -40q0 -22 -15.5 -38.5t-35.5 -16.5q-76 0 -105.5 -66t-29.5 -215v-242q0 -124 -51 -174.5t-150 -50.5h-59 q-33 0 -49.5 18t-16.5 40q0 21 16 38t50 17h43q45 0 63.5 45t18.5 115v227q0 135 56.5 210t104.5 91v4q-47 16 -104 92.5t-57 210.5z" />
<glyph unicode="~" horiz-adv-x="1229" d="M1087 610q0 -53 -38 -106t-102 -87t-136 -34q-51 0 -94.5 18t-114.5 60q-57 36 -101.5 57t-90.5 21q-41 0 -66 -19.5t-49.5 -58t-42 -57t-47.5 -21.5q-26 0 -45 16t-19 47q0 52 37.5 105.5t102 88t137.5 34.5q52 0 98.5 -19t110.5 -57l51 -30q45 -25 78 -36.5t63 -11.5 q43 0 66.5 19t51 60t42.5 56.5t45 18.5q26 0 44.5 -15.5t18.5 -48.5z" />
<glyph horiz-adv-x="0" d="M-727 487q23 0 36 -13t13 -36q0 -28 -48 -49.5t-71.5 -41.5t-23.5 -81q0 -65 49 -100t123 -35q2 1 4 1.5t4 0.5q70 0 138.5 26t113.5 75t45 114q0 50 -30 107t-88 143.5t-88 150.5t-30 130q0 202 197 376q89 81 204 138t218 57q70 0 117 -37t47 -106q0 -22 -6 -43 q88 80 202 136t219 56q71 0 117.5 -37t46.5 -106q0 -84 -61.5 -166t-145.5 -148q-65 -51 -141.5 -96t-126.5 -45q-19 0 -38 14t-19 33l2 4q0 40 70 66q110 36 206 110q73 59 109.5 113t36.5 92q0 31 -19 48.5t-53 17.5q-65 0 -150 -40t-147 -89q-76 -58 -134 -146.5 t-58 -173.5q0 -70 30.5 -134t90.5 -155.5t91 -151t31 -116.5q0 -92 -64 -164.5t-162 -111.5t-187 -39q-191 0 -262 110q-61 -54 -149.5 -85t-168.5 -31q-102 0 -170.5 33t-100.5 87t-32 115q2 89 61 156t152 67zM-256 457q61 37 109 37q21 0 35 -14t14 -36 q0 -19 -12.5 -29.5t-40 -21t-46.5 -22t-32 -36t-13 -77.5q4 -57 53.5 -89t118.5 -32q2 1 4 1.5t5 0.5q70 0 138.5 26t113.5 75t45 114q0 50 -30 107t-88 143.5t-88 150.5t-30 130q0 69 23 135q-5 -4 -14 -14t-13 -13q-65 -51 -142.5 -96t-125.5 -45q-20 0 -39 14t-19 33l2 4 q0 40 70 66q108 35 207 110q72 60 108.5 113.5t36.5 91.5q0 31 -19 48.5t-52 17.5q-64 0 -148.5 -39.5t-148.5 -89.5q-78 -59 -135.5 -147t-57.5 -173q0 -55 20.5 -108t44.5 -94l77 -123q52 -82 69 -119zM360 86q0 60 68 212t151 281.5t115 129.5q16 0 27.5 -10.5 t11.5 -28.5q0 -15 -55.5 -101t-110.5 -193t-98 -251q-14 -50 -24 -69t-39 -19q-20 0 -33 15t-13 34zM893 1104q24 0 36.5 -13.5t12.5 -35.5q0 -27 -21.5 -63.5t-51.5 -62.5t-56 -26q-47 0 -47 51q0 26 21 62t50.5 62t55.5 26z" />
<glyph unicode="&#xa1;" horiz-adv-x="569" d="M379 1018q0 -37 -28.5 -66.5t-65.5 -29.5q-36 0 -65.5 30.5t-29.5 65.5q0 37 29.5 65.5t65.5 28.5q37 0 65.5 -27.5t28.5 -66.5zM358 588v-877q0 -96 -73 -96q-74 0 -74 96v877q0 94 74 94q73 0 73 -94z" />
<glyph unicode="&#xa2;" horiz-adv-x="909" d="M481 119v870q-125 -27 -185 -155.5t-60 -280.5q0 -154 59.5 -279.5t185.5 -154.5zM481 -127v117q-127 17 -219 100.5t-139 205t-47 253.5q0 134 47 255.5t139 206t219 101.5v115q0 18 10.5 29.5t26.5 11.5q37 0 37 -41v-115q126 -1 202.5 -36t76.5 -89q0 -30 -18 -47.5 t-48 -17.5q-21 0 -87 32.5t-126 32.5v-874q56 0 92.5 12t71.5 28.5t53 16.5q55 0 55 -59q0 -33 -43 -61t-106 -45t-123 -17v-115q0 -41 -37 -41t-37 41z" />
<glyph unicode="&#xa3;" horiz-adv-x="1214" d="M350 137h713q34 0 56 -20.5t22 -48.5q0 -27 -22 -47.5t-56 -20.5h-834q-38 0 -57.5 19t-19.5 47q0 36 43 77q61 61 103 113.5t70.5 122t28.5 147.5q0 73 -22 154h-223q-34 0 -56 20.5t-22 49.5q0 28 22 47.5t56 19.5h180q-66 119 -89.5 177t-23.5 124q0 108 54 191 t152 129.5t220 46.5q104 0 192 -37t148 -95.5t91.5 -123t31.5 -121.5q0 -32 -17 -52t-49 -20q-48 0 -65 51q-43 129 -122.5 196t-211.5 67q-114 0 -189 -62.5t-75 -187.5q0 -51 20.5 -107t81.5 -176h250q34 0 56 -19.5t22 -47.5q0 -29 -22 -49.5t-56 -20.5h-209 q23 -72 23 -162q0 -95 -47 -187t-148 -194z" />
<glyph unicode="&#xa4;" d="M80 356l65 66q-50 59 -77 141.5t-27 173.5t27 173t77 141l-65 65q-33 35 -33 64q0 24 18 44.5t44 20.5q32 0 67 -37l66 -65q59 51 139 78.5t168 27.5t168 -27.5t139 -78.5l66 65q35 37 67 37q26 0 44 -20.5t18 -44.5q0 -27 -33 -64l-66 -65q52 -59 78.5 -140.5 t26.5 -173.5t-26.5 -174t-78.5 -141l66 -66q33 -33 33 -63q0 -25 -18 -45.5t-44 -20.5q-30 0 -67 37l-66 68q-124 -109 -307 -109t-307 109l-66 -68q-37 -37 -67 -37q-26 0 -44 20.5t-18 45.5q0 31 33 63zM176 737q0 -104 49 -194.5t134 -142.5t190 -52t190 52t134 142.5 t49 194.5q0 105 -49 194.5t-134.5 141t-189.5 51.5t-189.5 -51.5t-134.5 -141t-49 -194.5z" />
<glyph unicode="&#xa5;" d="M481 61v332h-288q-34 0 -49 19.5t-15 42.5t15.5 43t48.5 20h288v156h-288q-34 0 -49 19.5t-15 43.5q0 23 15 42.5t49 19.5h227l-311 524q-46 78 -46 104q0 25 16.5 41.5t45.5 16.5q43 0 68 -43l356 -604l356 604q25 43 68 43q29 0 45 -16.5t16 -41.5q0 -27 -45 -104 l-309 -524h225q19 0 32 -6.5t19.5 -16t9.5 -19t3 -20.5q0 -24 -14.5 -43.5t-49.5 -19.5h-289v-156h289q34 0 49 -20t15 -43t-14.5 -42.5t-49.5 -19.5h-289v-332q0 -30 -20.5 -51.5t-46.5 -21.5t-47 21t-21 52z" />
<glyph unicode="&#xa6;" horiz-adv-x="455" d="M160 66v458q0 34 19.5 56t47.5 22q29 0 48.5 -22t19.5 -56v-458q0 -34 -19.5 -56t-48.5 -22q-28 0 -47.5 22t-19.5 56zM160 1061v457q0 35 19 57t48 22q30 0 49 -22t19 -57v-457q0 -34 -19.5 -56t-48.5 -22q-28 0 -47.5 22t-19.5 56z" />
<glyph unicode="&#xa7;" horiz-adv-x="1139" d="M446 1014l334 -168q86 -43 148 -90t100.5 -117.5t38.5 -171.5q-4 -199 -231 -342q137 -97 137 -264q0 -95 -58 -165t-155 -106t-209 -36q-166 0 -262 57t-133 132t-37 134q0 27 26.5 48.5t55.5 21.5q66 0 78 -94q5 -41 35.5 -78t90 -61.5t144.5 -24.5q104 0 184 43 t80 133q0 66 -32 102.5t-132 87.5l-305 158q-132 68 -202 155t-70 203q0 138 66.5 210t197.5 132q-80 53 -120 110.5t-40 133.5q0 113 62.5 187t159.5 107.5t192 33.5q103 0 195.5 -33.5t151 -100.5t58.5 -165q0 -49 -19.5 -77t-47.5 -28q-72 0 -80 99q-5 45 -38 83.5 t-91.5 62.5t-136.5 24q-110 0 -184 -50.5t-74 -132.5q0 -35 31 -78t91 -75zM373 365l350 -183q46 21 92 66.5t75.5 102.5t29.5 114q0 80 -36 131.5t-108 89.5l-311 162q-97 -31 -171.5 -94.5t-74.5 -157.5q0 -58 14.5 -98t46.5 -70.5t93 -62.5z" />
<glyph unicode="&#xa8;" horiz-adv-x="418" d="M-74 1323q0 29 13.5 52t36.5 36.5t51 13.5q20 0 39.5 -8t32 -21.5t20.5 -32.5t8 -40q0 -27 -13.5 -50t-36.5 -36.5t-50 -13.5q-41 0 -71 30t-30 70zM291 1323q0 29 13.5 52t36.5 36.5t50 13.5q20 0 39.5 -8t32.5 -21t21 -32.5t8 -40.5q0 -27 -14 -50t-36.5 -36.5 t-50.5 -13.5q-27 0 -50 13.5t-36.5 36.5t-13.5 50z" />
<glyph unicode="&#xa9;" horiz-adv-x="1638" d="M526 731q0 -97 37 -176t106 -123.5t162 -44.5q74 0 118.5 29t84.5 88t54 76.5t45 17.5q51 0 51 -55q0 -44 -42 -112.5t-122 -118.5t-189 -50q-96 0 -177 34.5t-141 99t-91 149t-31 182.5q0 133 52.5 239t150.5 165t225 59q115 0 201 -47.5t131 -111.5t45 -105 q0 -31 -16.5 -47.5t-44.5 -16.5q-35 0 -61.5 35t-52 73.5t-74.5 66.5t-132 28q-89 0 -154.5 -43.5t-100 -120t-34.5 -170.5zM78 737q0 151 58 289.5t160 241.5t237.5 160t285.5 57q151 0 286.5 -57t237.5 -160t160 -241.5t58 -289.5q0 -202 -99.5 -374.5t-270 -273.5 t-372.5 -101q-150 0 -286 58t-238 162t-159.5 241.5t-57.5 287.5zM213 737q0 -170 82 -313.5t223 -227t301 -83.5t301 83.5t223 227t82 313.5q0 127 -47.5 241.5t-131.5 200.5t-193.5 134.5t-233.5 48.5q-122 0 -231.5 -48.5t-194.5 -134.5t-132.5 -200.5t-47.5 -241.5z" />
<glyph unicode="&#xaa;" horiz-adv-x="739" d="M659 1427v-561q0 -24 -16.5 -40.5t-44.5 -16.5q-29 0 -45 17t-16 40v47h-5q-27 -48 -78 -76t-112 -28q-87 0 -155.5 48t-105 125.5t-36.5 164.5q0 62 21 124t60 110.5t93.5 76t122.5 27.5q123 0 190 -88h5v30q0 25 15.5 41.5t45.5 16.5q29 0 45 -16t16 -42zM537 1149 q0 112 -44.5 174.5t-140.5 62.5q-86 0 -129 -72t-43 -165q0 -94 44.5 -168t127.5 -74q185 0 185 242z" />
<glyph unicode="&#xab;" horiz-adv-x="797" d="M272 195l-166 294q-22 45 -22 62q0 18 22 59l166 295q19 33 34.5 46.5t39.5 13.5q28 0 45 -17t17 -39q0 -25 -21 -59l-172 -299l172 -301q21 -34 21 -60q0 -18 -17.5 -35.5t-44.5 -17.5q-24 0 -38 12.5t-36 45.5zM578 195l-166 294q-23 45 -23 62q0 18 23 59l166 295 q32 60 73 60q28 0 45 -17t17 -39q0 -25 -21 -59l-172 -299l172 -301q21 -34 21 -60q0 -18 -17.5 -35.5t-44.5 -17.5q-24 0 -40 14t-33 44z" />
<glyph unicode="&#xac;" horiz-adv-x="1229" d="M997 299v363h-823q-34 0 -56 19.5t-22 49.5q0 29 22 48.5t56 19.5h856q57 0 80 -23.5t23 -75.5v-401q0 -34 -19.5 -56t-48.5 -22q-27 0 -47.5 22t-20.5 56z" />
<glyph unicode="&#xad;" horiz-adv-x="721" d="M162 618h397q35 0 56.5 -19.5t21.5 -47.5q0 -29 -22 -49.5t-56 -20.5h-397q-34 0 -56 20.5t-22 49.5q0 28 21.5 47.5t56.5 19.5z" />
<glyph unicode="&#xae;" horiz-adv-x="1638" d="M664 672v-310q0 -35 -17 -60.5t-45 -25.5t-44.5 25.5t-16.5 60.5v760q0 20 8.5 28.5t30.5 8.5h288q297 0 297 -246q0 -108 -59.5 -167t-147.5 -70l181 -283q26 -41 26 -63t-16.5 -38t-44.5 -16q-41 0 -72 52l-209 344h-159zM664 1059v-287h151q112 0 169.5 26.5 t57.5 121.5q0 139 -194 139h-184zM78 737q0 151 58 289.5t160 241.5t237.5 160t285.5 57q151 0 286.5 -57t237.5 -160t160 -241.5t58 -289.5q0 -202 -99.5 -374.5t-270 -273.5t-372.5 -101q-150 0 -286 58t-238 162t-159.5 241.5t-57.5 287.5zM213 737q0 -170 82 -313.5 t223 -227t301 -83.5t301 83.5t223 227t82 313.5q0 127 -47.5 241.5t-131.5 200.5t-193.5 134.5t-233.5 48.5q-122 0 -231.5 -48.5t-194.5 -134.5t-132.5 -200.5t-47.5 -241.5z" />
<glyph unicode="&#xaf;" horiz-adv-x="418" d="M401 1235h-385q-94 0 -94 74q0 75 94 75h385q95 0 95 -75q0 -74 -95 -74z" />
<glyph unicode="&#xb0;" horiz-adv-x="819" d="M117 1190q0 81 39 149t106 107t148 39q79 0 147 -39.5t106.5 -107t38.5 -148.5q0 -124 -84.5 -210.5t-207.5 -86.5q-122 0 -207.5 86.5t-85.5 210.5zM215 1190q0 -82 57.5 -139.5t137.5 -57.5q51 0 96.5 26.5t71.5 72t26 98.5q0 52 -26 97t-71.5 72t-96.5 27 q-52 0 -97 -26.5t-71.5 -72t-26.5 -97.5z" />
<glyph unicode="&#xb1;" horiz-adv-x="1229" d="M547 698v271q0 34 19.5 56t47.5 22q29 0 48.5 -22t19.5 -56v-271h373q35 0 56.5 -19.5t21.5 -47.5q0 -27 -22 -47.5t-56 -20.5h-373v-270q0 -34 -19.5 -56t-48.5 -22q-28 0 -47.5 22t-19.5 56v270h-373q-34 0 -56 20.5t-22 47.5q0 28 21.5 47.5t56.5 19.5h373zM1055 0 h-881q-34 0 -56 20.5t-22 47.5q0 28 22 48.5t56 20.5h881q34 0 56 -20.5t22 -48.5q0 -27 -22 -47.5t-56 -20.5z" />
<glyph unicode="&#xb2;" horiz-adv-x="713" d="M260 713h332q23 0 37 -16t14 -40q0 -23 -14 -39t-37 -16h-436q-28 0 -43 12.5t-15 30.5q0 27 25 60l283 389q81 110 81 174q0 48 -38.5 77t-96.5 29q-135 0 -159 -162q-9 -53 -66 -53q-25 0 -41 15t-16 38q0 80 32.5 142t96 96.5t153.5 34.5t151.5 -27.5t90.5 -74 t29 -103.5q0 -50 -21 -96.5t-70 -112.5z" />
<glyph unicode="&#xb3;" horiz-adv-x="713" d="M590 1264q0 -64 -29 -114t-80 -77q160 -60 160 -213q0 -62 -19 -111t-56.5 -84.5t-92 -55t-127.5 -19.5q-91 0 -152 31t-91.5 75.5t-30.5 81.5q0 27 17 41.5t40 14.5q49 0 72 -56q14 -34 46 -56t101 -22q65 0 111.5 45.5t46.5 120.5q0 63 -38 95.5t-103 37.5 q-62 6 -62 45q0 27 17 38.5t55 21.5q80 20 80 139q0 131 -117 131q-46 0 -76 -27.5t-33 -70.5q-3 -57 -65 -57q-23 0 -40.5 15t-17.5 42q0 81 62 145t176 64q126 0 186 -63t60 -158z" />
<glyph unicode="&#xb4;" horiz-adv-x="418" d="M41 1384l283 109q29 12 53 12t40.5 -22t16.5 -47q0 -22 -9 -37.5t-48 -30.5l-283 -111q-29 -12 -53 -12t-40.5 23t-16.5 47q0 22 9 38.5t48 30.5z" />
<glyph unicode="&#xb5;" d="M135 -352v1370q0 94 74 94q35 0 54.5 -24.5t19.5 -69.5v-619q0 -93 32 -157t91.5 -96.5t142.5 -32.5t142.5 32.5t91.5 96.5t32 157v619q0 94 74 94q35 0 54.5 -24.5t19.5 -69.5v-957q0 -32 -21.5 -52.5t-52.5 -20.5t-52.5 20.5t-21.5 52.5q-52 -36 -121 -54.5t-145 -18.5 q-157 0 -262 116h-4v-456q0 -94 -74 -94t-74 94z" />
<glyph unicode="&#xb6;" horiz-adv-x="1229" d="M528 -369v1059q-122 0 -221 51t-154 140t-55 194q0 198 123.5 298t343.5 100h375q68 0 90.5 -20.5t22.5 -86.5v-1735q0 -34 -19.5 -55.5t-48.5 -21.5q-28 0 -47.5 21.5t-19.5 55.5v1719h-254v-1719q0 -34 -19.5 -55.5t-48.5 -21.5q-27 0 -47.5 21.5t-20.5 55.5z" />
<glyph unicode="&#xb8;" horiz-adv-x="418" d="M164 0h92l-53 -80l4 -4q21 6 49 6q57 0 92 -35t35 -82q0 -50 -26.5 -89t-74.5 -61t-106 -22q-73 0 -113 19.5t-40 56.5q0 49 53 49q17 0 51 -12t78 -12q26 0 40.5 14.5t14.5 36.5q0 33 -23 43t-67 10q-43 0 -60.5 4t-17.5 21q0 23 31 74z" />
<glyph unicode="&#xb9;" horiz-adv-x="469" d="M205 1362h-115q-25 0 -40 16t-15 39q0 24 15 40t40 16h182q27 0 41.5 -14.5t14.5 -35.5v-772q0 -31 -16.5 -46t-45.5 -15t-45 15t-16 46v711z" />
<glyph unicode="&#xba;" horiz-adv-x="713" d="M180 1149q0 -94 45.5 -168t130.5 -74q87 0 131.5 73t44.5 165q0 58 -19 114t-58.5 91.5t-98.5 35.5t-98.5 -35t-58.5 -90t-19 -112zM45 1149q0 62 20 122.5t60 109t98 76.5t133 28q98 0 169 -48t107 -126.5t36 -165.5q0 -85 -36 -163t-107 -125.5t-169 -47.5 q-97 0 -167.5 48t-107 126.5t-36.5 165.5z" />
<glyph unicode="&#xbb;" horiz-adv-x="797" d="M219 905l166 -295q23 -43 23 -59q0 -15 -23 -62l-166 -294q-17 -30 -33.5 -44t-40.5 -14q-28 0 -44.5 17.5t-16.5 35.5q0 26 20 60l172 301l-172 299q-20 34 -20 59q0 22 16 39t45 17q42 0 74 -60zM524 905l166 -295q23 -41 23 -59q0 -17 -23 -62l-166 -294 q-17 -30 -33.5 -44t-39.5 -14q-27 0 -44.5 17.5t-17.5 35.5q0 26 21 60l172 301l-172 299q-21 34 -21 59q0 22 17 39t45 17q41 0 73 -60z" />
<glyph unicode="&#xbc;" horiz-adv-x="1649" d="M393 78l533 1376q9 25 24 38t39 13q26 0 42 -13.5t16 -33.5q0 -15 -19 -63l-532 -1377q-22 -51 -64 -51q-26 0 -41.5 13.5t-15.5 33.5q0 17 18 64zM258 1362h-115q-26 0 -40.5 15.5t-14.5 39.5q0 25 14.5 40.5t40.5 15.5h183q26 0 40.5 -14.5t14.5 -35.5v-772 q0 -31 -16.5 -46t-45.5 -15q-27 0 -44 15t-17 46v711zM1436 209v-164q0 -24 -16 -40.5t-46 -16.5q-29 0 -45 17t-16 40v164h-361q-59 0 -59 51q0 25 29 72l307 487q20 33 52 48.5t65 15.5q26 0 46.5 -9.5t32 -30t11.5 -52.5v-469h45q23 0 37 -16.5t14 -41.5 q0 -24 -14.5 -39.5t-36.5 -15.5h-45zM1313 322v462h-4l-287 -462h291z" />
<glyph unicode="&#xbd;" horiz-adv-x="1649" d="M393 78l533 1376q9 25 24 38t39 13q26 0 42 -13.5t16 -33.5q0 -15 -19 -63l-532 -1377q-22 -51 -64 -51q-26 0 -41.5 13.5t-15.5 33.5q0 17 18 64zM258 1362h-115q-26 0 -40.5 15.5t-14.5 39.5q0 25 14.5 40.5t40.5 15.5h183q26 0 40.5 -14.5t14.5 -35.5v-772 q0 -31 -16.5 -46t-45.5 -15q-27 0 -44 15t-17 46v711zM1102 113h332q22 0 36.5 -17t14.5 -41q0 -23 -14 -39t-37 -16h-437q-28 0 -42.5 12.5t-14.5 30.5q0 27 25 61l282 388q82 110 82 174q0 49 -38.5 77.5t-96.5 28.5q-134 0 -160 -162q-8 -53 -65 -53q-25 0 -41.5 14.5 t-16.5 38.5q0 81 33 142.5t96.5 96t153.5 34.5q89 0 150.5 -28t90.5 -74t29 -103q0 -52 -20.5 -97.5t-69.5 -111.5z" />
<glyph unicode="&#xbe;" horiz-adv-x="1649" d="M496 78l532 1376q20 51 64 51q25 0 41 -13.5t16 -33.5q0 -19 -19 -63l-532 -1377q-20 -51 -63 -51q-26 0 -42 13.5t-16 33.5q0 19 19 64zM551 1264q0 -64 -29 -114t-80 -77q160 -59 160 -213q0 -62 -19 -111t-56.5 -84.5t-92 -55t-127.5 -19.5q-91 0 -152 31t-91.5 75.5 t-30.5 81.5q0 27 17 41.5t40 14.5q49 0 72 -56q14 -34 46 -56t101 -22q65 0 111.5 45.5t46.5 120.5q0 63 -38 95.5t-103 37.5q-62 6 -62 45q0 27 17 38.5t55 21.5q80 20 80 139q0 131 -117 131q-45 0 -74.5 -27t-34.5 -71q-3 -57 -65 -57q-24 0 -40.5 15t-16.5 42 q0 82 61.5 145.5t175.5 63.5q126 0 186 -63t60 -158zM1436 209v-164q0 -24 -16 -40.5t-46 -16.5q-29 0 -45 17t-16 40v164h-361q-59 0 -59 51q0 25 29 72l307 487q20 33 52 48.5t65 15.5q26 0 46.5 -9.5t32 -30t11.5 -52.5v-469h45q23 0 37 -16.5t14 -41.5 q0 -24 -14.5 -39.5t-36.5 -15.5h-45zM1313 322v462h-4l-287 -462h291z" />
<glyph unicode="&#xbf;" horiz-adv-x="909" d="M551 592v-262q0 -43 -14 -60.5t-66 -27.5q-127 -25 -191.5 -92.5t-64.5 -165.5q0 -110 76 -171t172 -61q54 0 106 18.5t89 55.5t49 90q10 50 26.5 67t52.5 17q34 0 51 -22t17 -56q0 -89 -54 -159t-144 -109t-193 -39q-180 0 -294 102t-114 263q0 173 95.5 264t252.5 129 v219q0 94 74 94q35 0 54.5 -24.5t19.5 -69.5zM571 1018q0 -37 -27.5 -66.5t-66.5 -29.5t-66.5 29.5t-27.5 66.5q0 38 28 66t66 28t66 -28t28 -66z" />
<glyph unicode="&#xc0;" horiz-adv-x="1253" d="M272 322l-96 -267q-18 -36 -32.5 -51.5t-49.5 -15.5q-30 0 -47.5 16.5t-17.5 40.5t14 64l469 1269q19 49 43 78t72 29q49 0 72 -29t42 -78l469 -1269q15 -38 15 -64q0 -25 -18 -41t-48 -16q-33 0 -49.5 15.5t-32.5 51.5l-96 267h-709zM932 457l-303 833h-4l-303 -833h610 zM741 1589l-282 111q-36 12 -47 28.5t-11 38.5q0 25 17 47.5t41 22.5q23 0 53 -12l283 -109q38 -13 47.5 -30t9.5 -39q0 -25 -17 -47.5t-40 -22.5q-24 0 -54 12z" />
<glyph unicode="&#xc1;" horiz-adv-x="1253" d="M272 322l-96 -267q-18 -36 -32.5 -51.5t-49.5 -15.5q-30 0 -47.5 16.5t-17.5 40.5t14 64l469 1269q19 49 43 78t72 29q49 0 72 -29t42 -78l469 -1269q15 -38 15 -64q0 -25 -18 -41t-48 -16q-33 0 -49.5 15.5t-32.5 51.5l-96 267h-709zM932 457l-303 833h-4l-303 -833h610 zM459 1716l282 109q30 12 54 12q23 0 40 -22.5t17 -47.5q0 -22 -10 -38t-47 -29l-283 -111q-30 -12 -53 -12q-24 0 -41 22.5t-17 47.5q0 22 10.5 39t47.5 30z" />
<glyph unicode="&#xc2;" horiz-adv-x="1253" d="M272 322l-96 -267q-18 -36 -32.5 -51.5t-49.5 -15.5q-30 0 -47.5 16.5t-17.5 40.5t14 64l469 1269q19 49 43 78t72 29q49 0 72 -29t42 -78l469 -1269q15 -38 15 -64q0 -25 -18 -41t-48 -16q-33 0 -49.5 15.5t-32.5 51.5l-96 267h-709zM932 457l-303 833h-4l-303 -833h610 zM627 1808l260 -100q37 -14 48 -33t11 -45q0 -22 -17 -41.5t-44 -19.5q-21 0 -54 10l-204 92l-205 -92q-30 -10 -53 -10q-27 0 -44.5 19.5t-17.5 41.5q0 24 11 44t49 34z" />
<glyph unicode="&#xc3;" horiz-adv-x="1253" d="M272 322l-96 -267q-18 -36 -32.5 -51.5t-49.5 -15.5q-30 0 -47.5 16.5t-17.5 40.5t14 64l469 1269q19 49 43 78t72 29q49 0 72 -29t42 -78l469 -1269q15 -38 15 -64q0 -25 -18 -41t-48 -16q-33 0 -49.5 15.5t-32.5 51.5l-96 267h-709zM932 457l-303 833h-4l-303 -833h610 zM504 1655q-28 0 -58.5 -24.5t-54.5 -24.5q-59 0 -59 55q0 51 50 91t114 40q33 0 60 -7t59.5 -17.5t71 -20.5t63.5 -10q27 0 57.5 25.5t54.5 25.5q60 0 60 -68q0 -43 -51 -80.5t-113 -37.5q-30 0 -68.5 10t-70 20t-59 16.5t-56.5 6.5z" />
<glyph unicode="&#xc4;" horiz-adv-x="1253" d="M272 322l-96 -267q-18 -36 -32.5 -51.5t-49.5 -15.5q-30 0 -47.5 16.5t-17.5 40.5t14 64l469 1269q19 49 43 78t72 29q49 0 72 -29t42 -78l469 -1269q15 -38 15 -64q0 -25 -18 -41t-48 -16q-33 0 -49.5 15.5t-32.5 51.5l-96 267h-709zM932 457l-303 833h-4l-303 -833h610 zM344 1655q0 29 13.5 52t36.5 36.5t50 13.5q20 0 39.5 -8t32.5 -21t21 -32.5t8 -40.5q0 -28 -13.5 -51t-36.5 -36.5t-51 -13.5q-40 0 -70 30t-30 71zM709 1655q0 29 13.5 52t36.5 36.5t50 13.5q20 0 39.5 -8t32 -21.5t20.5 -32.5t8 -40q0 -41 -29 -71t-71 -30q-40 0 -70 30 t-30 71z" />
<glyph unicode="&#xc5;" horiz-adv-x="1253" d="M272 322l-96 -267q-18 -36 -32.5 -51.5t-49.5 -15.5q-30 0 -47.5 16.5t-17.5 40.5t14 64l469 1269q19 49 43 78t72 29q49 0 72 -29t42 -78l469 -1269q15 -38 15 -64q0 -25 -18 -41t-48 -16q-33 0 -49.5 15.5t-32.5 51.5l-96 267h-709zM932 457l-303 833h-4l-303 -833h610 zM436 1716q0 78 56.5 135.5t134.5 57.5q79 0 134.5 -56.5t55.5 -136.5t-56 -136t-134 -56q-77 0 -134 57t-57 135zM522 1716q0 -42 31 -73t74 -31q44 0 74 31t30 73q0 43 -30 74t-74 31q-43 0 -74 -31t-31 -74z" />
<glyph unicode="&#xc6;" horiz-adv-x="1518" d="M928 666v-529h446q34 0 56 -20.5t22 -48.5q0 -27 -22 -47.5t-56 -20.5h-520q-32 0 -53 23.5t-21 60.5v248h-477l-123 -254q-48 -90 -100 -90q-22 0 -39.5 15.5t-17.5 39.5q0 21 6.5 39t29.5 65l635 1289q20 37 54 37h606q34 0 56 -19.5t22 -48.5q0 -28 -22 -49t-56 -21 h-424v-532h405q34 0 56 -19.5t22 -48.5q0 -30 -22 -49.5t-56 -19.5h-407zM780 455v843h-4l-414 -843h418z" />
<glyph unicode="&#xc7;" horiz-adv-x="1214" d="M717 1485q88 0 170 -23t142 -59t95 -73.5t35 -65.5q0 -35 -20.5 -56.5t-44.5 -21.5q-20 0 -48 22l-75 60q-47 36 -109 59t-147 23q-145 0 -253 -92.5t-164 -238.5t-56 -304q0 -159 53 -293t166.5 -215.5t279.5 -81.5q87 0 151 19.5t105.5 44.5t78.5 52t52 27 q29 0 45.5 -18t16.5 -55q0 -25 -33.5 -60t-97.5 -69t-148 -56t-178 -22q-163 0 -285 56t-205 159t-122 233t-39 279t39.5 286.5t119.5 247t200.5 173t275.5 63.5zM666 0h92l-53 -80l4 -4q21 6 49 6q57 0 92 -35t35 -82q0 -50 -26.5 -89t-74.5 -61t-106 -22q-154 0 -154 76 q0 49 54 49q17 0 51 -12t78 -12q26 0 40.5 15.5t14.5 35.5q0 33 -23 43t-67 10q-43 0 -60.5 4t-17.5 21q0 23 31 74z" />
<glyph unicode="&#xc8;" horiz-adv-x="909" d="M283 666v-529h446q34 0 56 -20.5t22 -48.5q0 -27 -22 -47.5t-56 -20.5h-504q-47 0 -68.5 19t-21.5 59v1317q0 78 90 78h484q34 0 55.5 -19t21.5 -49q0 -29 -21 -49.5t-56 -20.5h-424v-532h405q34 0 56 -19.5t22 -48.5q0 -30 -22 -49.5t-56 -19.5h-407zM569 1589l-282 111 q-36 12 -47 28.5t-11 38.5q0 25 17 47.5t41 22.5q23 0 53 -12l283 -109q38 -13 47.5 -30t9.5 -39q0 -25 -17 -47.5t-40 -22.5q-24 0 -54 12z" />
<glyph unicode="&#xc9;" horiz-adv-x="909" d="M283 666v-529h446q34 0 56 -20.5t22 -48.5q0 -27 -22 -47.5t-56 -20.5h-504q-47 0 -68.5 19t-21.5 59v1317q0 78 90 78h484q34 0 55.5 -19t21.5 -49q0 -29 -21 -49.5t-56 -20.5h-424v-532h405q34 0 56 -19.5t22 -48.5q0 -30 -22 -49.5t-56 -19.5h-407zM287 1716l282 109 q30 12 54 12q23 0 40 -22.5t17 -47.5q0 -22 -10 -38t-47 -29l-283 -111q-30 -12 -53 -12q-24 0 -41 22.5t-17 47.5q0 22 10.5 39t47.5 30z" />
<glyph unicode="&#xca;" horiz-adv-x="909" d="M283 666v-529h446q34 0 56 -20.5t22 -48.5q0 -27 -22 -47.5t-56 -20.5h-504q-47 0 -68.5 19t-21.5 59v1317q0 78 90 78h484q34 0 55.5 -19t21.5 -49q0 -29 -21 -49.5t-56 -20.5h-424v-532h405q34 0 56 -19.5t22 -48.5q0 -30 -22 -49.5t-56 -19.5h-407zM455 1808l260 -100 q37 -14 48 -33t11 -45q0 -22 -17 -41.5t-44 -19.5q-21 0 -54 10l-204 92l-205 -92q-30 -10 -53 -10q-27 0 -44.5 19.5t-17.5 41.5q0 24 11 44t49 34z" />
<glyph unicode="&#xcb;" horiz-adv-x="909" d="M283 666v-529h446q34 0 56 -20.5t22 -48.5q0 -27 -22 -47.5t-56 -20.5h-504q-47 0 -68.5 19t-21.5 59v1317q0 78 90 78h484q34 0 55.5 -19t21.5 -49q0 -29 -21 -49.5t-56 -20.5h-424v-532h405q34 0 56 -19.5t22 -48.5q0 -30 -22 -49.5t-56 -19.5h-407zM172 1655 q0 29 13.5 52t36.5 36.5t50 13.5q20 0 39.5 -8t32.5 -21t21 -32.5t8 -40.5q0 -28 -13.5 -51t-36.5 -36.5t-51 -13.5q-40 0 -70 30t-30 71zM537 1655q0 29 13.5 52t36.5 36.5t50 13.5q20 0 39.5 -8t32 -21.5t20.5 -32.5t8 -40q0 -41 -29 -71t-71 -30q-40 0 -70 30t-30 71z " />
<glyph unicode="&#xcc;" horiz-adv-x="418" d="M283 1391v-1309q0 -94 -74 -94t-74 94v1309q0 94 74 94q35 0 54.5 -24.5t19.5 -69.5zM324 1589l-283 111q-38 13 -47.5 29t-9.5 38q0 24 16.5 47t40.5 23t53 -12l283 -109q38 -13 47.5 -30t9.5 -39q0 -26 -16.5 -48t-40.5 -22t-53 12z" />
<glyph unicode="&#xcd;" horiz-adv-x="418" d="M283 1391v-1309q0 -94 -74 -94t-74 94v1309q0 94 74 94q35 0 54.5 -24.5t19.5 -69.5zM41 1716l283 109q29 12 53 12t40.5 -22t16.5 -48q0 -22 -10 -38t-47 -29l-283 -111q-29 -12 -53 -12t-40.5 23t-16.5 47q0 22 9 38.5t48 30.5z" />
<glyph unicode="&#xce;" horiz-adv-x="418" d="M283 1391v-1309q0 -94 -74 -94t-74 94v1309q0 94 74 94q35 0 54.5 -24.5t19.5 -69.5zM209 1808l260 -100q37 -14 48 -33t11 -45q0 -22 -17 -41.5t-44 -19.5q-23 0 -53 10l-205 92l-205 -92q-30 -10 -53 -10q-27 0 -44.5 19.5t-17.5 41.5q0 24 11 44t49 34z" />
<glyph unicode="&#xcf;" horiz-adv-x="418" d="M283 1391v-1309q0 -94 -74 -94t-74 94v1309q0 94 74 94q35 0 54.5 -24.5t19.5 -69.5zM-74 1655q0 29 13.5 52t36.5 36.5t51 13.5q20 0 39.5 -8t32 -21.5t20.5 -32.5t8 -40q0 -41 -29 -71t-71 -30q-41 0 -71 30t-30 71zM291 1655q0 29 13.5 52t36.5 36.5t50 13.5 q20 0 39.5 -8t32.5 -21t21 -32.5t8 -40.5q0 -28 -14 -51t-36.5 -36.5t-50.5 -13.5q-40 0 -70 30t-30 71z" />
<glyph unicode="&#xd0;" horiz-adv-x="1290" d="M283 1335v-524h288q35 0 57.5 -19.5t22.5 -48.5t-22.5 -49t-57.5 -20h-288v-537h286q252 0 366 167.5t114 449.5q0 148 -47 281t-153.5 216.5t-270.5 83.5h-295zM135 74v600h-57q-33 0 -56.5 20t-23.5 49t23.5 48.5t56.5 19.5h57v588q0 32 21 53t53 21h381 q161 0 279.5 -65.5t192 -172t110 -240.5t36.5 -268q0 -223 -82.5 -387.5t-226.5 -252t-321 -87.5h-369q-32 0 -53 21t-21 53z" />
<glyph unicode="&#xd1;" horiz-adv-x="1364" d="M283 1212v-1130q0 -94 -74 -94t-74 94v1317q0 42 20.5 64t53.5 22q46 0 86 -53l782 -1158h4v1117q0 94 74 94q35 0 54.5 -24.5t19.5 -69.5v-1313q0 -90 -70 -90q-25 0 -40 10.5t-40 42.5l-792 1171h-4zM559 1655q-29 0 -58.5 -24.5t-54.5 -24.5q-59 0 -59 55q0 51 50 91 t114 40q33 0 60 -7t59.5 -17.5t71 -20.5t63.5 -10q20 0 33 7.5t25 17.5t25 18t30 8q59 0 59 -68q0 -43 -51 -80.5t-113 -37.5q-30 0 -68.5 10t-70 20t-59 16.5t-56.5 6.5z" />
<glyph unicode="&#xd2;" horiz-adv-x="1401" d="M82 737q0 143 39.5 276.5t119 241t195.5 169t264 61.5q149 0 266.5 -62t195 -167t117.5 -240.5t40 -278.5t-40 -278.5t-117 -240t-196 -167.5t-266 -63q-146 0 -264 62t-196.5 169t-118 241t-39.5 277zM700 125q159 0 262.5 90t150 230t46.5 292q0 151 -46.5 291.5 t-149.5 231t-263 90.5t-263.5 -91t-149 -232t-45.5 -290q0 -151 45.5 -291t149.5 -230.5t263 -90.5zM815 1589l-283 111q-38 13 -47.5 29t-9.5 38q0 25 17 47.5t40 22.5q24 0 54 -12l282 -109q58 -20 58 -69q0 -25 -17 -47.5t-41 -22.5q-23 0 -53 12z" />
<glyph unicode="&#xd3;" horiz-adv-x="1401" d="M82 737q0 143 39.5 276.5t119 241t195.5 169t264 61.5q149 0 266.5 -62t195 -167t117.5 -240.5t40 -278.5t-40 -278.5t-117 -240t-196 -167.5t-266 -63q-146 0 -264 62t-196.5 169t-118 241t-39.5 277zM700 125q159 0 262.5 90t150 230t46.5 292q0 151 -46.5 291.5 t-149.5 231t-263 90.5t-263.5 -91t-149 -232t-45.5 -290q0 -151 45.5 -291t149.5 -230.5t263 -90.5zM532 1716l283 109q30 12 53 12q24 0 41 -22.5t17 -47.5q0 -22 -10 -38t-48 -29l-282 -111q-30 -12 -54 -12q-23 0 -40 22.5t-17 47.5q0 22 9 38.5t48 30.5z" />
<glyph unicode="&#xd4;" horiz-adv-x="1401" d="M82 737q0 143 39.5 276.5t119 241t195.5 169t264 61.5q149 0 266.5 -62t195 -167t117.5 -240.5t40 -278.5t-40 -278.5t-117 -240t-196 -167.5t-266 -63q-146 0 -264 62t-196.5 169t-118 241t-39.5 277zM700 125q159 0 262.5 90t150 230t46.5 292q0 151 -46.5 291.5 t-149.5 231t-263 90.5t-263.5 -91t-149 -232t-45.5 -290q0 -151 45.5 -291t149.5 -230.5t263 -90.5zM700 1808l261 -100q37 -14 48 -33t11 -45q0 -22 -17.5 -41.5t-44.5 -19.5q-20 0 -53 10l-205 92l-204 -92q-32 -10 -54 -10q-26 0 -43.5 19.5t-17.5 41.5q0 24 11 43.5 t48 34.5z" />
<glyph unicode="&#xd5;" horiz-adv-x="1401" d="M82 737q0 143 39.5 276.5t119 241t195.5 169t264 61.5q149 0 266.5 -62t195 -167t117.5 -240.5t40 -278.5t-40 -278.5t-117 -240t-196 -167.5t-266 -63q-146 0 -264 62t-196.5 169t-118 241t-39.5 277zM700 125q159 0 262.5 90t150 230t46.5 292q0 151 -46.5 291.5 t-149.5 231t-263 90.5t-263.5 -91t-149 -232t-45.5 -290q0 -151 45.5 -291t149.5 -230.5t263 -90.5zM578 1655q-30 0 -59.5 -24.5t-53.5 -24.5q-59 0 -59 55q0 52 49.5 91.5t113.5 39.5q33 0 60 -7t59.5 -17.5t71 -20.5t63.5 -10q28 0 58.5 25.5t54.5 25.5q59 0 59 -68 q0 -42 -50.5 -80t-113.5 -38q-37 0 -83 14l-90 26q-46 13 -80 13z" />
<glyph unicode="&#xd6;" horiz-adv-x="1401" d="M82 737q0 143 39.5 276.5t119 241t195.5 169t264 61.5q149 0 266.5 -62t195 -167t117.5 -240.5t40 -278.5t-40 -278.5t-117 -240t-196 -167.5t-266 -63q-146 0 -264 62t-196.5 169t-118 241t-39.5 277zM700 125q159 0 262.5 90t150 230t46.5 292q0 151 -46.5 291.5 t-149.5 231t-263 90.5t-263.5 -91t-149 -232t-45.5 -290q0 -151 45.5 -291t149.5 -230.5t263 -90.5zM418 1655q0 29 13.5 52t36.5 36.5t50 13.5q20 0 39.5 -8t32 -21.5t20.5 -32.5t8 -40q0 -41 -29 -71t-71 -30q-40 0 -70 30t-30 71zM782 1655q0 29 13.5 52t36.5 36.5 t51 13.5q20 0 39.5 -8t32 -21.5t20.5 -32.5t8 -40q0 -41 -29 -71t-71 -30q-41 0 -71 30t-30 71z" />
<glyph unicode="&#xd7;" horiz-adv-x="1229" d="M965 76l-351 354l-350 -354q-27 -29 -57 -29q-27 0 -45.5 19.5t-18.5 46.5q0 28 31 59l346 352l-346 350q-31 31 -31 62q0 25 18 44t46 19q29 0 57 -28l350 -355l351 355q28 28 57 28t46 -19t17 -44q0 -31 -30 -62l-346 -350l346 -352q30 -31 30 -59q0 -27 -17.5 -46.5 t-45.5 -19.5q-30 0 -57 29z" />
<glyph unicode="&#xd8;" horiz-adv-x="1401" d="M1077 1108l-690 -842q117 -141 313 -141q159 0 262.5 90t150 230t46.5 292q0 97 -19.5 194.5t-62.5 176.5zM319 371l691 839q-120 140 -310 140q-160 0 -263.5 -91t-149 -232t-45.5 -290q0 -94 18.5 -189.5t58.5 -176.5zM106 109l115 139q-139 204 -139 489 q0 143 39.5 276.5t119 241t195.5 169t264 61.5q125 0 225.5 -42.5t176.5 -121.5l117 143q33 41 65 41q27 0 41 -13.5t14 -35.5q0 -31 -43 -82l-118 -143q68 -98 104.5 -229.5t36.5 -264.5q0 -143 -40 -278.5t-117 -240t-196 -167.5t-266 -63q-83 0 -156.5 19.5t-135.5 57 t-113 91.5l-123 -152q-30 -37 -59 -37q-22 0 -38 17t-16 36q0 21 10 37.5t37 51.5z" />
<glyph unicode="&#xd9;" horiz-adv-x="1364" d="M135 500v891q0 94 74 94q35 0 54.5 -24.5t19.5 -69.5v-871q0 -100 32 -174t88.5 -123.5t129.5 -73.5t149 -24q77 0 149 24t128 72t89 124.5t33 174.5v871q0 94 74 94q35 0 54.5 -24.5t19.5 -69.5v-891q0 -125 -45 -221.5t-123 -161.5t-174 -97t-205 -32 q-107 0 -204.5 32.5t-175.5 98t-122.5 163t-44.5 218.5zM797 1589l-283 111q-38 13 -47.5 29t-9.5 38q0 24 16.5 47t40.5 23t53 -12l283 -109q38 -13 47.5 -30t9.5 -39q0 -26 -16.5 -48t-40.5 -22t-53 12z" />
<glyph unicode="&#xda;" horiz-adv-x="1364" d="M135 500v891q0 94 74 94q35 0 54.5 -24.5t19.5 -69.5v-871q0 -100 32 -174t88.5 -123.5t129.5 -73.5t149 -24q77 0 149 24t128 72t89 124.5t33 174.5v871q0 94 74 94q35 0 54.5 -24.5t19.5 -69.5v-891q0 -125 -45 -221.5t-123 -161.5t-174 -97t-205 -32 q-107 0 -204.5 32.5t-175.5 98t-122.5 163t-44.5 218.5zM514 1716l283 109q29 12 53 12t40.5 -22t16.5 -48q0 -22 -10 -38t-47 -29l-283 -111q-29 -12 -53 -12t-40.5 23t-16.5 47q0 22 9 38.5t48 30.5z" />
<glyph unicode="&#xdb;" horiz-adv-x="1364" d="M135 500v891q0 94 74 94q35 0 54.5 -24.5t19.5 -69.5v-871q0 -100 32 -174t88.5 -123.5t129.5 -73.5t149 -24q77 0 149 24t128 72t89 124.5t33 174.5v871q0 94 74 94q35 0 54.5 -24.5t19.5 -69.5v-891q0 -125 -45 -221.5t-123 -161.5t-174 -97t-205 -32 q-107 0 -204.5 32.5t-175.5 98t-122.5 163t-44.5 218.5zM682 1808l260 -100q37 -14 48 -33t11 -45q0 -22 -17 -41.5t-44 -19.5q-23 0 -53 10l-205 92l-205 -92q-30 -10 -53 -10q-27 0 -44.5 19.5t-17.5 41.5q0 55 60 78z" />
<glyph unicode="&#xdc;" horiz-adv-x="1364" d="M135 500v891q0 94 74 94q35 0 54.5 -24.5t19.5 -69.5v-871q0 -100 32 -174t88.5 -123.5t129.5 -73.5t149 -24q77 0 149 24t128 72t89 124.5t33 174.5v871q0 94 74 94q35 0 54.5 -24.5t19.5 -69.5v-891q0 -125 -45 -221.5t-123 -161.5t-174 -97t-205 -32 q-107 0 -204.5 32.5t-175.5 98t-122.5 163t-44.5 218.5zM399 1655q0 29 13.5 52t36.5 36.5t51 13.5q20 0 39.5 -8t32 -21.5t20.5 -32.5t8 -40q0 -41 -29 -71t-71 -30q-41 0 -71 30t-30 71zM764 1655q0 29 13.5 52t36.5 36.5t50 13.5q20 0 39.5 -8t32.5 -21t21 -32.5t8 -40.5 q0 -28 -13.5 -51t-36.5 -36.5t-51 -13.5q-40 0 -70 30t-30 71z" />
<glyph unicode="&#xdd;" horiz-adv-x="987" d="M494 842l356 600q23 43 74 43q29 0 45 -16.5t16 -41.5q0 -27 -45 -104l-373 -627v-614q0 -94 -73 -94q-74 0 -74 94v614l-373 627q-45 77 -45 104q0 24 17 41t44 17q51 0 74 -43zM326 1716l282 109q30 12 54 12q23 0 40 -22.5t17 -47.5q0 -22 -10 -38t-47 -29l-283 -111 q-30 -12 -53 -12q-24 0 -41 22.5t-17 47.5q0 22 10.5 39t47.5 30z" />
<glyph unicode="&#xde;" horiz-adv-x="1063" d="M283 311v-229q0 -94 -74 -94t-74 94v1309q0 94 74 94q35 0 54.5 -24.5t19.5 -69.5v-170h295q120 0 206.5 -41.5t140 -108t78.5 -142t25 -151.5q0 -95 -29 -177t-88.5 -147.5t-153 -104t-216.5 -38.5h-258zM283 1083v-637h270q110 0 184 46.5t109 119t35 154.5 q0 80 -35 152t-109 118.5t-184 46.5h-270z" />
<glyph unicode="&#xdf;" horiz-adv-x="1139" d="M283 1155v-1073q0 -94 -74 -94t-74 94v1089q0 136 50.5 232t137 145t193.5 49q118 0 207 -52t137.5 -143t48.5 -202q0 -222 -157 -328q98 -25 161 -91.5t90 -154.5t27 -180q0 -115 -42.5 -220t-128 -171.5t-204.5 -66.5q-56 0 -87 21t-33 54q0 34 16.5 54t77.5 20 q129 0 185 92t56 236q0 133 -58 217.5t-175 97.5q-71 10 -89 25.5t-18 44.5q0 26 11 41t51 27q83 26 126.5 85t43.5 193q0 104 -62 184t-184 80q-124 0 -178.5 -87t-54.5 -218z" />
<glyph unicode="&#xe0;" horiz-adv-x="1139" d="M856 950v68q0 94 74 94q35 0 54.5 -24.5t19.5 -69.5v-936q0 -94 -74 -94t-74 94v70h-6q-99 -164 -301 -164q-151 0 -257 74.5t-159 201.5t-53 287q0 145 52 273.5t157.5 208t255.5 79.5q180 0 305 -162h6zM240 551q0 -108 31 -209t100.5 -165t177.5 -64q107 0 176.5 64.5 t100 166t30.5 207.5t-30.5 207.5t-100 166t-176.5 64.5q-105 0 -174.5 -64t-102 -164.5t-32.5 -209.5zM684 1257l-283 111q-39 15 -48 30.5t-9 37.5q0 24 17 46.5t40 22.5q24 0 54 -12l282 -109q58 -20 58 -69q0 -25 -17 -47.5t-41 -22.5q-23 0 -53 12z" />
<glyph unicode="&#xe1;" horiz-adv-x="1139" d="M856 950v68q0 94 74 94q35 0 54.5 -24.5t19.5 -69.5v-936q0 -94 -74 -94t-74 94v70h-6q-99 -164 -301 -164q-151 0 -257 74.5t-159 201.5t-53 287q0 145 52 273.5t157.5 208t255.5 79.5q180 0 305 -162h6zM240 551q0 -108 31 -209t100.5 -165t177.5 -64q107 0 176.5 64.5 t100 166t30.5 207.5t-30.5 207.5t-100 166t-176.5 64.5q-105 0 -174.5 -64t-102 -164.5t-32.5 -209.5zM401 1384l283 109q30 12 53 12q24 0 41 -22.5t17 -46.5q0 -22 -9 -37.5t-49 -30.5l-282 -111q-30 -12 -54 -12q-23 0 -40 22.5t-17 47.5q0 22 9 38.5t48 30.5z" />
<glyph unicode="&#xe2;" horiz-adv-x="1139" d="M856 950v68q0 94 74 94q35 0 54.5 -24.5t19.5 -69.5v-936q0 -94 -74 -94t-74 94v70h-6q-99 -164 -301 -164q-151 0 -257 74.5t-159 201.5t-53 287q0 145 52 273.5t157.5 208t255.5 79.5q180 0 305 -162h6zM240 551q0 -108 31 -209t100.5 -165t177.5 -64q107 0 176.5 64.5 t100 166t30.5 207.5t-30.5 207.5t-100 166t-176.5 64.5q-105 0 -174.5 -64t-102 -164.5t-32.5 -209.5zM569 1477l260 -101q38 -14 49 -33t11 -45q0 -22 -17.5 -41.5t-44.5 -19.5q-23 0 -53 10l-205 92l-204 -92q-32 -10 -54 -10q-27 0 -44 19.5t-17 41.5q0 24 11 43.5 t48 34.5z" />
<glyph unicode="&#xe3;" horiz-adv-x="1139" d="M856 950v68q0 94 74 94q35 0 54.5 -24.5t19.5 -69.5v-936q0 -94 -74 -94t-74 94v70h-6q-99 -164 -301 -164q-151 0 -257 74.5t-159 201.5t-53 287q0 145 52 273.5t157.5 208t255.5 79.5q180 0 305 -162h6zM240 551q0 -108 31 -209t100.5 -165t177.5 -64q107 0 176.5 64.5 t100 166t30.5 207.5t-30.5 207.5t-100 166t-176.5 64.5q-105 0 -174.5 -64t-102 -164.5t-32.5 -209.5zM446 1323q-29 0 -58.5 -24.5t-53.5 -24.5q-60 0 -60 55q0 51 50 91t114 40q33 0 60 -7t59.5 -17.5t71 -20.5t63.5 -10q28 0 58.5 25.5t54.5 25.5q59 0 59 -67 q0 -44 -51 -81.5t-113 -37.5q-30 0 -68.5 10t-70 20t-59 16.5t-56.5 6.5z" />
<glyph unicode="&#xe4;" horiz-adv-x="1139" d="M856 950v68q0 94 74 94q35 0 54.5 -24.5t19.5 -69.5v-936q0 -94 -74 -94t-74 94v70h-6q-99 -164 -301 -164q-151 0 -257 74.5t-159 201.5t-53 287q0 145 52 273.5t157.5 208t255.5 79.5q180 0 305 -162h6zM240 551q0 -108 31 -209t100.5 -165t177.5 -64q107 0 176.5 64.5 t100 166t30.5 207.5t-30.5 207.5t-100 166t-176.5 64.5q-105 0 -174.5 -64t-102 -164.5t-32.5 -209.5zM287 1323q0 29 13.5 52t36.5 36.5t50 13.5q20 0 39.5 -8t32 -21.5t20.5 -32.5t8 -40q0 -27 -13.5 -50t-36.5 -36.5t-50 -13.5t-50 13.5t-36.5 36.5t-13.5 50zM651 1323 q0 29 13.5 52t36.5 36.5t51 13.5q20 0 39.5 -8t32 -21.5t20.5 -32.5t8 -40q0 -27 -13.5 -50t-36.5 -36.5t-50 -13.5q-41 0 -71 30t-30 70z" />
<glyph unicode="&#xe5;" horiz-adv-x="1139" d="M856 950v68q0 94 74 94q35 0 54.5 -24.5t19.5 -69.5v-936q0 -94 -74 -94t-74 94v70h-6q-99 -164 -301 -164q-151 0 -257 74.5t-159 201.5t-53 287q0 145 52 273.5t157.5 208t255.5 79.5q180 0 305 -162h6zM240 551q0 -108 31 -209t100.5 -165t177.5 -64q107 0 176.5 64.5 t100 166t30.5 207.5t-30.5 207.5t-100 166t-176.5 64.5q-105 0 -174.5 -64t-102 -164.5t-32.5 -209.5zM379 1405q0 77 56.5 134.5t133.5 57.5q78 0 134.5 -56.5t56.5 -135.5q0 -81 -57 -137t-134 -56q-76 0 -133 57t-57 136zM465 1405q0 -43 31 -74t73 -31q43 0 74 31t31 74 q0 44 -31 74t-74 30q-42 0 -73 -30t-31 -74z" />
<glyph unicode="&#xe6;" horiz-adv-x="1821" d="M240 551q0 -108 31 -209t100.5 -165t177.5 -64q107 0 176.5 64.5t100 166t30.5 207.5t-30.5 207.5t-100 166t-176.5 64.5q-105 0 -174.5 -64t-102 -164.5t-32.5 -209.5zM856 82v74h-4q-48 -83 -127 -125.5t-176 -42.5q-151 0 -257 74.5t-159 201.5t-53 287 q0 145 52 273.5t157.5 208t255.5 79.5q97 0 167.5 -38t139.5 -120h4v64q0 45 18.5 69.5t49.5 24.5t49 -24t18 -70v-55h17q22 39 69 73.5t105 55t110 20.5q145 0 251.5 -74.5t160 -196.5t53.5 -266q0 -92 -100 -92h-666q3 -94 44.5 -180t115 -138t164.5 -52q95 0 156.5 33 t119 84t80.5 51q70 0 70 -72q0 -36 -55 -89.5t-144.5 -92.5t-191.5 -39q-241 0 -355 153h-4v-59q0 -94 -67 -94q-68 0 -68 94zM991 608h606q-3 95 -39 183t-105.5 143t-162.5 55q-90 0 -157 -54.5t-103 -143t-39 -183.5z" />
<glyph unicode="&#xe7;" horiz-adv-x="909" d="M549 125q60 0 98 12t72.5 28.5t50.5 16.5q22 0 41.5 -17t19.5 -42q0 -66 -82.5 -100.5t-199.5 -34.5q-110 0 -198.5 47t-149 128t-91 181.5t-30.5 206.5t33 205t97 180.5t155 128.5t202 47q68 0 130.5 -15.5t101.5 -42.5t39 -57q0 -37 -20.5 -60.5t-61.5 -23.5 q-13 0 -48 20.5t-68 32t-91 11.5q-99 0 -169 -64.5t-105 -160t-35 -189.5q0 -116 37.5 -217t108 -161t163.5 -60zM512 0h92l-53 -80l4 -4q21 6 49 6q57 0 92 -35t35 -82q0 -50 -26.5 -89t-74.5 -61t-106 -22q-73 0 -113 19.5t-40 56.5q0 49 53 49q17 0 51 -12t78 -12 q26 0 40.5 14.5t14.5 36.5q0 33 -23 43t-67 10q-43 0 -60.5 4t-17.5 21q0 21 31 74z" />
<glyph unicode="&#xe8;" horiz-adv-x="1063" d="M913 483h-673q3 -94 44.5 -180t115 -138t163.5 -52q77 0 137.5 23.5t105.5 61.5l73 60q27 23 49 23q69 0 69 -72q0 -36 -56 -89.5t-154 -92.5t-214 -39q-165 0 -276 79.5t-164 208t-53 275.5q0 141 55 271.5t161 210t253 79.5q145 0 251.5 -74.5t160 -196.5t53.5 -266 q0 -92 -101 -92zM240 608h614q-3 95 -39.5 183.5t-105.5 143t-162 54.5t-162.5 -55t-105.5 -143t-39 -183zM647 1257l-282 111q-38 14 -48 30t-10 38q0 24 17 46.5t41 22.5q23 0 53 -12l282 -109q58 -20 58 -69q0 -25 -17 -47.5t-41 -22.5q-23 0 -53 12z" />
<glyph unicode="&#xe9;" horiz-adv-x="1063" d="M913 483h-673q3 -94 44.5 -180t115 -138t163.5 -52q77 0 137.5 23.5t105.5 61.5l73 60q27 23 49 23q69 0 69 -72q0 -36 -56 -89.5t-154 -92.5t-214 -39q-165 0 -276 79.5t-164 208t-53 275.5q0 141 55 271.5t161 210t253 79.5q145 0 251.5 -74.5t160 -196.5t53.5 -266 q0 -92 -101 -92zM240 608h614q-3 95 -39.5 183.5t-105.5 143t-162 54.5t-162.5 -55t-105.5 -143t-39 -183zM365 1384l282 109q30 12 53 12q24 0 41 -22.5t17 -46.5q0 -22 -9 -37.5t-49 -30.5l-282 -111q-30 -12 -53 -12q-24 0 -41 22.5t-17 47.5q0 22 10.5 39t47.5 30z" />
<glyph unicode="&#xea;" horiz-adv-x="1063" d="M913 483h-673q3 -94 44.5 -180t115 -138t163.5 -52q77 0 137.5 23.5t105.5 61.5l73 60q27 23 49 23q69 0 69 -72q0 -36 -56 -89.5t-154 -92.5t-214 -39q-165 0 -276 79.5t-164 208t-53 275.5q0 141 55 271.5t161 210t253 79.5q145 0 251.5 -74.5t160 -196.5t53.5 -266 q0 -92 -101 -92zM240 608h614q-3 95 -39.5 183.5t-105.5 143t-162 54.5t-162.5 -55t-105.5 -143t-39 -183zM532 1477l261 -101q37 -14 48 -33t11 -45q0 -22 -17.5 -41.5t-43.5 -19.5q-21 0 -54 10l-205 92l-204 -92q-32 -10 -54 -10q-26 0 -43.5 19.5t-17.5 41.5 q0 24 11 43.5t48 34.5z" />
<glyph unicode="&#xeb;" horiz-adv-x="1063" d="M913 483h-673q3 -94 44.5 -180t115 -138t163.5 -52q77 0 137.5 23.5t105.5 61.5l73 60q27 23 49 23q69 0 69 -72q0 -36 -56 -89.5t-154 -92.5t-214 -39q-165 0 -276 79.5t-164 208t-53 275.5q0 141 55 271.5t161 210t253 79.5q145 0 251.5 -74.5t160 -196.5t53.5 -266 q0 -92 -101 -92zM240 608h614q-3 95 -39.5 183.5t-105.5 143t-162 54.5t-162.5 -55t-105.5 -143t-39 -183zM250 1323q0 29 13.5 52t36.5 36.5t50 13.5q20 0 39.5 -8t32.5 -21t21 -32.5t8 -40.5q0 -27 -13.5 -50t-36.5 -36.5t-51 -13.5q-27 0 -50 13.5t-36.5 36.5t-13.5 50z M614 1323q0 29 13.5 52t36.5 36.5t51 13.5q20 0 39.5 -8t32 -21.5t20.5 -32.5t8 -40q0 -27 -13.5 -50t-36.5 -36.5t-50 -13.5q-41 0 -71 30t-30 70z" />
<glyph unicode="&#xec;" horiz-adv-x="418" d="M324 1257l-283 111q-39 15 -48 30.5t-9 37.5q0 23 16.5 46t40.5 23t53 -12l283 -109q38 -13 47.5 -30t9.5 -39q0 -26 -16.5 -48t-40.5 -22t-53 12zM283 1018v-936q0 -94 -74 -94t-74 94v936q0 94 74 94q35 0 54.5 -24.5t19.5 -69.5z" />
<glyph unicode="&#xed;" horiz-adv-x="418" d="M41 1384l283 109q29 12 53 12t40.5 -22t16.5 -47q0 -22 -9 -37.5t-48 -30.5l-283 -111q-29 -12 -53 -12t-40.5 23t-16.5 47q0 22 9 38.5t48 30.5zM283 1018v-936q0 -94 -74 -94t-74 94v936q0 94 74 94q35 0 54.5 -24.5t19.5 -69.5z" />
<glyph unicode="&#xee;" horiz-adv-x="418" d="M209 1477l260 -101q37 -14 48 -33t11 -45q0 -22 -17 -41.5t-44 -19.5q-23 0 -53 10l-205 92l-205 -92q-30 -10 -53 -10q-27 0 -44.5 19.5t-17.5 41.5q0 24 11 44t49 34zM283 1018v-936q0 -94 -74 -94t-74 94v936q0 94 74 94q35 0 54.5 -24.5t19.5 -69.5z" />
<glyph unicode="&#xef;" horiz-adv-x="418" d="M-74 1323q0 29 13.5 52t36.5 36.5t51 13.5q20 0 39.5 -8t32 -21.5t20.5 -32.5t8 -40q0 -27 -13.5 -50t-36.5 -36.5t-50 -13.5q-41 0 -71 30t-30 70zM291 1323q0 29 13.5 52t36.5 36.5t50 13.5q20 0 39.5 -8t32.5 -21t21 -32.5t8 -40.5q0 -27 -14 -50t-36.5 -36.5 t-50.5 -13.5q-27 0 -50 13.5t-36.5 36.5t-13.5 50zM283 1018v-936q0 -94 -74 -94t-74 94v936q0 94 74 94q35 0 54.5 -24.5t19.5 -69.5z" />
<glyph unicode="&#xf0;" d="M549 -12q-148 0 -254 80.5t-160.5 208.5t-54.5 266q0 139 54.5 267.5t160.5 209t254 80.5q77 0 151.5 -36t116.5 -101l4 4q-36 102 -108 198t-164 168l-197 -98q-30 -16 -49 -16t-30 15t-11 32q0 32 41 53l172 90q-38 30 -102 57t-81.5 36.5t-17.5 33.5t17.5 42.5 t48.5 18.5q46 0 112 -34t148 -90l174 88q35 16 51 16q45 0 45 -51q0 -29 -28 -43l-162 -80q112 -96 188.5 -220.5t113 -268.5t36.5 -302q0 -177 -45 -303t-116 -195t-150.5 -97.5t-157.5 -28.5zM240 543q0 -106 32 -204t101.5 -162t175.5 -64t175.5 64t101.5 162t32 204 q0 170 -76.5 300.5t-232.5 133.5q-156 0 -232.5 -131.5t-76.5 -302.5z" />
<glyph unicode="&#xf1;" d="M283 688v-606q0 -94 -74 -94t-74 94v936q0 94 74 94q35 0 54.5 -24.5t19.5 -69.5v-53h4q102 147 284 147q101 0 191 -45t145.5 -134.5t55.5 -213.5v-637q0 -94 -74 -94t-74 94v643q0 76 -32.5 133t-92.5 88t-141 31q-110 0 -188 -76.5t-78 -212.5zM426 1323 q-28 0 -58.5 -24.5t-54.5 -24.5q-59 0 -59 55q0 51 50 91t114 40q33 0 60 -7t59.5 -17.5t71 -20.5t63.5 -10q27 0 57.5 25.5t54.5 25.5q60 0 60 -67q0 -44 -51 -81.5t-113 -37.5q-30 0 -68.5 10t-70 20t-59 16.5t-56.5 6.5z" />
<glyph unicode="&#xf2;" d="M240 551q0 -108 31 -209t100.5 -165t177.5 -64t177 64t100.5 165t31.5 209t-31.5 209t-100.5 165t-177 64t-177.5 -64t-100.5 -165t-31 -209zM1018 551q0 -160 -53 -287t-159 -201.5t-257 -74.5t-257 74.5t-159 201.5t-53 287q0 145 52.5 273.5t158 208t258.5 79.5 t259 -80t158 -208t52 -273zM664 1257l-283 111q-39 15 -48 30.5t-9 37.5q0 23 16.5 46t40.5 23t53 -12l283 -109q38 -13 47.5 -30t9.5 -39q0 -26 -16.5 -48t-40.5 -22t-53 12z" />
<glyph unicode="&#xf3;" d="M381 1384l283 109q29 12 53 12t40.5 -22t16.5 -47q0 -22 -9 -37.5t-48 -30.5l-283 -111q-29 -12 -53 -12t-40.5 23t-16.5 47q0 22 9 38.5t48 30.5zM240 551q0 -108 31 -209t100.5 -165t177.5 -64t177 64t100.5 165t31.5 209t-31.5 209t-100.5 165t-177 64t-177.5 -64 t-100.5 -165t-31 -209zM1018 551q0 -160 -53 -287t-159 -201.5t-257 -74.5t-257 74.5t-159 201.5t-53 287q0 145 52.5 273.5t158 208t258.5 79.5t259 -80t158 -208t52 -273z" />
<glyph unicode="&#xf4;" d="M549 1477l260 -101q37 -14 48 -33t11 -45q0 -22 -17 -41.5t-44 -19.5q-23 0 -53 10l-205 92l-205 -92q-30 -10 -53 -10q-27 0 -44.5 19.5t-17.5 41.5q0 24 11 44t49 34zM240 551q0 -108 31 -209t100.5 -165t177.5 -64t177 64t100.5 165t31.5 209t-31.5 209t-100.5 165 t-177 64t-177.5 -64t-100.5 -165t-31 -209zM1018 551q0 -160 -53 -287t-159 -201.5t-257 -74.5t-257 74.5t-159 201.5t-53 287q0 145 52.5 273.5t158 208t258.5 79.5t259 -80t158 -208t52 -273z" />
<glyph unicode="&#xf5;" d="M240 551q0 -108 31 -209t100.5 -165t177.5 -64t177 64t100.5 165t31.5 209t-31.5 209t-100.5 165t-177 64t-177.5 -64t-100.5 -165t-31 -209zM1018 551q0 -160 -53 -287t-159 -201.5t-257 -74.5t-257 74.5t-159 201.5t-53 287q0 145 52.5 273.5t158 208t258.5 79.5 t259 -80t158 -208t52 -273zM426 1323q-28 0 -58.5 -24.5t-54.5 -24.5q-59 0 -59 55q0 51 50 91t114 40q33 0 60 -7t59.5 -17.5t71 -20.5t63.5 -10q27 0 57.5 25.5t54.5 25.5q60 0 60 -67q0 -44 -51 -81.5t-113 -37.5q-30 0 -68.5 10t-70 20t-59 16.5t-56.5 6.5z" />
<glyph unicode="&#xf6;" d="M240 551q0 -108 31 -209t100.5 -165t177.5 -64t177 64t100.5 165t31.5 209t-31.5 209t-100.5 165t-177 64t-177.5 -64t-100.5 -165t-31 -209zM1018 551q0 -160 -53 -287t-159 -201.5t-257 -74.5t-257 74.5t-159 201.5t-53 287q0 145 52.5 273.5t158 208t258.5 79.5 t259 -80t158 -208t52 -273zM266 1323q0 29 13.5 52t36.5 36.5t51 13.5q20 0 39.5 -8t32 -21.5t20.5 -32.5t8 -40q0 -27 -13.5 -50t-36.5 -36.5t-50 -13.5q-41 0 -71 30t-30 70zM631 1323q0 29 13.5 52t36.5 36.5t50 13.5q20 0 39.5 -8t32 -21.5t20.5 -32.5t8 -40 q0 -27 -13.5 -50t-36.5 -36.5t-50 -13.5t-50 13.5t-36.5 36.5t-13.5 50z" />
<glyph unicode="&#xf7;" horiz-adv-x="1229" d="M1055 455h-881q-34 0 -56 19.5t-22 49.5q0 29 22 48.5t56 19.5h881q34 0 56 -19.5t22 -48.5q0 -30 -22 -49.5t-56 -19.5zM485 88q0 55 37 93t92 38q36 0 65.5 -17t46.5 -47.5t17 -66.5t-17 -65.5t-46.5 -46.5t-65.5 -17q-54 0 -91.5 38.5t-37.5 90.5zM485 958q0 53 37 91 t92 38q36 0 65.5 -17t46.5 -46.5t17 -65.5q0 -55 -38 -93t-91 -38t-91 39t-38 92z" />
<glyph unicode="&#xf8;" d="M285 307l465 590q-75 92 -201 92q-108 0 -177.5 -64t-100.5 -165t-31 -209q0 -138 45 -244zM836 1008l86 108q26 39 59 39q20 0 36.5 -17.5t16.5 -39.5q0 -25 -35 -70l-86 -110q37 -52 60 -111.5t34 -126.5t11 -129q0 -160 -53 -287t-159 -201.5t-257 -74.5 q-175 0 -289 100l-84 -104q-27 -37 -59 -37q-21 0 -37.5 16.5t-16.5 38.5q0 23 35 70l84 106q-34 47 -57 106.5t-34 128.5t-11 138q0 145 52.5 273.5t158 208t258.5 79.5q172 0 287 -104zM813 793l-465 -590q76 -90 201 -90q108 0 177 64t100.5 165t31.5 209q0 141 -45 242z " />
<glyph unicode="&#xf9;" d="M135 362v656q0 94 74 94q35 0 54.5 -24.5t19.5 -69.5v-619q0 -93 32 -157t91.5 -96.5t142.5 -32.5t142.5 32.5t91.5 96.5t32 157v619q0 94 74 94q35 0 54.5 -24.5t19.5 -69.5v-656q0 -114 -54 -199.5t-148.5 -130t-211.5 -44.5t-212 44.5t-148.5 130t-53.5 199.5z M664 1257l-283 111q-39 15 -48 30.5t-9 37.5q0 23 16.5 46t40.5 23t53 -12l283 -109q38 -13 47.5 -30t9.5 -39q0 -26 -16.5 -48t-40.5 -22t-53 12z" />
<glyph unicode="&#xfa;" d="M381 1384l283 109q29 12 53 12t40.5 -22t16.5 -47q0 -22 -9 -37.5t-48 -30.5l-283 -111q-29 -12 -53 -12t-40.5 23t-16.5 47q0 22 9 38.5t48 30.5zM135 362v656q0 94 74 94q35 0 54.5 -24.5t19.5 -69.5v-619q0 -93 32 -157t91.5 -96.5t142.5 -32.5t142.5 32.5t91.5 96.5 t32 157v619q0 94 74 94q35 0 54.5 -24.5t19.5 -69.5v-656q0 -114 -54 -199.5t-148.5 -130t-211.5 -44.5t-212 44.5t-148.5 130t-53.5 199.5z" />
<glyph unicode="&#xfb;" d="M549 1477l260 -101q37 -14 48 -33t11 -45q0 -22 -17 -41.5t-44 -19.5q-23 0 -53 10l-205 92l-205 -92q-30 -10 -53 -10q-27 0 -44.5 19.5t-17.5 41.5q0 24 11 44t49 34zM135 362v656q0 94 74 94q35 0 54.5 -24.5t19.5 -69.5v-619q0 -93 32 -157t91.5 -96.5t142.5 -32.5 t142.5 32.5t91.5 96.5t32 157v619q0 94 74 94q35 0 54.5 -24.5t19.5 -69.5v-656q0 -114 -54 -199.5t-148.5 -130t-211.5 -44.5t-212 44.5t-148.5 130t-53.5 199.5z" />
<glyph unicode="&#xfc;" d="M135 362v656q0 94 74 94q35 0 54.5 -24.5t19.5 -69.5v-619q0 -93 32 -157t91.5 -96.5t142.5 -32.5t142.5 32.5t91.5 96.5t32 157v619q0 94 74 94q35 0 54.5 -24.5t19.5 -69.5v-656q0 -114 -54 -199.5t-148.5 -130t-211.5 -44.5t-212 44.5t-148.5 130t-53.5 199.5z M266 1323q0 29 13.5 52t36.5 36.5t51 13.5q20 0 39.5 -8t32 -21.5t20.5 -32.5t8 -40q0 -27 -13.5 -50t-36.5 -36.5t-50 -13.5q-41 0 -71 30t-30 70zM631 1323q0 29 13.5 52t36.5 36.5t50 13.5q20 0 39.5 -8t32 -21.5t20.5 -32.5t8 -40q0 -27 -13.5 -50t-36.5 -36.5 t-50 -13.5t-50 13.5t-36.5 36.5t-13.5 50z" />
<glyph unicode="&#xfd;" horiz-adv-x="872" d="M367 29l-334 972q-8 23 -8 43q0 27 18.5 47.5t48.5 20.5q56 0 78 -68l264 -798h4l264 798q24 68 78 68q31 0 49.5 -20t18.5 -48q0 -20 -8 -43l-471 -1374q-25 -73 -80 -73q-31 0 -49.5 18.5t-18.5 42.5q0 29 12 59zM268 1384l283 109q29 12 53 12t41 -22.5t17 -46.5 q0 -22 -9 -37.5t-49 -30.5l-282 -111q-30 -12 -54 -12t-40.5 23t-16.5 47q0 22 9 38.5t48 30.5z" />
<glyph unicode="&#xfe;" horiz-adv-x="1139" d="M135 -352v1853q0 96 74 96t74 -96v-551h6q61 80 137.5 121t163.5 41q147 0 253 -79.5t161 -210t55 -271.5q0 -106 -31 -208t-90 -181.5t-148 -126.5t-200 -47q-177 0 -301 164h-6v-504q0 -94 -74 -94t-74 94zM281 551q0 -108 31 -209t100.5 -165t177.5 -64t177 64 t100.5 165t31.5 209t-31.5 209t-100.5 165t-177 64t-177.5 -64t-100.5 -165t-31 -209z" />
<glyph unicode="&#xff;" horiz-adv-x="872" d="M367 29l-334 972q-8 23 -8 43q0 27 18.5 47.5t48.5 20.5q56 0 78 -68l264 -798h4l264 798q24 68 78 68q31 0 49.5 -20t18.5 -48q0 -20 -8 -43l-471 -1374q-25 -73 -80 -73q-31 0 -49.5 18.5t-18.5 42.5q0 29 12 59zM154 1323q0 29 13.5 52t36.5 36.5t50 13.5 q20 0 39.5 -8t32 -21.5t20.5 -32.5t8 -40q0 -27 -13.5 -50t-36.5 -36.5t-50 -13.5t-50 13.5t-36.5 36.5t-13.5 50zM518 1323q0 29 13.5 52t36.5 36.5t50 13.5q20 0 39.5 -8t32.5 -21t21 -32.5t8 -40.5q0 -27 -13.5 -50t-36.5 -36.5t-51 -13.5q-27 0 -50 13.5t-36.5 36.5 t-13.5 50z" />
<glyph unicode="&#x152;" horiz-adv-x="1896" d="M82 737q0 190 71 362.5t212 279t335 106.5q77 0 145 -16.5t127 -48.5t106 -79.5t77 -109.5h4v168q0 33 24 53.5t77 20.5h473q34 0 55.5 -19t21.5 -49q0 -29 -21 -49.5t-56 -20.5h-424v-532h405q34 0 56 -19.5t22 -48.5q0 -30 -22 -49.5t-56 -19.5h-407v-529h446 q34 0 56 -20.5t22 -48.5q0 -27 -22 -47.5t-56 -20.5h-520q-32 0 -53 21t-21 53v178h-4q-77 -129 -193 -196.5t-262 -67.5q-194 0 -335 106t-212 278.5t-71 364.5zM1159 737q0 151 -46.5 291t-149.5 231t-263 91t-263.5 -91.5t-149 -231.5t-45.5 -290t45.5 -290t149 -231 t263.5 -91t263 90.5t149.5 230.5t46.5 291z" />
<glyph unicode="&#x153;" horiz-adv-x="1860" d="M240 551q0 -108 31 -209t100.5 -165t177.5 -64t177 64t100.5 165t31.5 209t-31.5 209t-100.5 165t-177 64t-177.5 -64t-100.5 -165t-31 -209zM549 1112q90 0 162.5 -27.5t127 -78t95.5 -125.5q59 104 155 167.5t203 63.5q145 0 251.5 -74.5t160 -196.5t53.5 -266 q0 -92 -100 -92h-651q3 -98 42 -182.5t109 -136t160 -51.5q74 0 131 23t101 60l72 61q28 24 50 24q70 0 70 -72q0 -36 -55 -89.5t-144.5 -92.5t-191.5 -39q-290 0 -416 223q-122 -223 -385 -223q-151 0 -257 74.5t-159 201.5t-53 287q0 145 52.5 273.5t158 208t258.5 79.5z M1006 608h591q-3 95 -39 183t-105.5 143t-162.5 55q-83 0 -147.5 -55t-99.5 -144.5t-37 -181.5z" />
<glyph unicode="&#x178;" horiz-adv-x="987" d="M494 842l356 600q23 43 74 43q29 0 45 -16.5t16 -41.5q0 -27 -45 -104l-373 -627v-614q0 -94 -73 -94q-74 0 -74 94v614l-373 627q-45 77 -45 104q0 24 17 41t44 17q51 0 74 -43zM211 1655q0 29 13.5 52t36.5 36.5t50 13.5q20 0 39.5 -8t32.5 -21t21 -32.5t8 -40.5 q0 -28 -13.5 -51t-36.5 -36.5t-51 -13.5q-40 0 -70 30t-30 71zM575 1655q0 42 29 72t72 30q20 0 39.5 -8t32 -21.5t20.5 -32.5t8 -40q0 -41 -29 -71t-71 -30t-71.5 30.5t-29.5 70.5z" />
<glyph unicode="&#x2c6;" horiz-adv-x="418" d="M209 1477l260 -101q37 -14 48 -33t11 -45q0 -22 -17 -41.5t-44 -19.5q-23 0 -53 10l-205 92l-205 -92q-30 -10 -53 -10q-27 0 -44.5 19.5t-17.5 41.5q0 24 11 44t49 34z" />
<glyph unicode="&#x2dc;" horiz-adv-x="418" d="M86 1323q-29 0 -58.5 -24.5t-54.5 -24.5q-59 0 -59 55q0 51 50 91t114 40q33 0 60 -7t59.5 -17.5t71 -20.5t63.5 -10q27 0 57.5 25.5t54.5 25.5q60 0 60 -67q0 -44 -51 -81.5t-113 -37.5q-30 0 -68.5 10t-70 20t-59 16.5t-56.5 6.5z" />
<glyph unicode="&#x2000;" horiz-adv-x="954" />
<glyph unicode="&#x2001;" horiz-adv-x="1909" />
<glyph unicode="&#x2002;" horiz-adv-x="954" />
<glyph unicode="&#x2003;" horiz-adv-x="1909" />
<glyph unicode="&#x2004;" horiz-adv-x="636" />
<glyph unicode="&#x2005;" horiz-adv-x="477" />
<glyph unicode="&#x2006;" horiz-adv-x="318" />
<glyph unicode="&#x2007;" horiz-adv-x="318" />
<glyph unicode="&#x2008;" horiz-adv-x="238" />
<glyph unicode="&#x2009;" horiz-adv-x="381" />
<glyph unicode="&#x200a;" horiz-adv-x="106" />
<glyph unicode="&#x2010;" horiz-adv-x="721" d="M162 618h397q35 0 56.5 -19.5t21.5 -47.5q0 -29 -22 -49.5t-56 -20.5h-397q-34 0 -56 20.5t-22 49.5q0 28 21.5 47.5t56.5 19.5z" />
<glyph unicode="&#x2011;" horiz-adv-x="721" d="M162 618h397q35 0 56.5 -19.5t21.5 -47.5q0 -29 -22 -49.5t-56 -20.5h-397q-34 0 -56 20.5t-22 49.5q0 28 21.5 47.5t56.5 19.5z" />
<glyph unicode="&#x2013;" horiz-adv-x="1024" d="M961 487h-898q-32 0 -47.5 21t-15.5 43t15 41.5t48 19.5h898q33 0 48 -19t15 -42q0 -24 -15.5 -44t-47.5 -20z" />
<glyph unicode="&#x2014;" horiz-adv-x="2048" d="M2048 487h-2048q-32 0 -47.5 21t-15.5 43t15 41.5t48 19.5h2048q33 0 48 -19t15 -42q0 -24 -15.5 -44t-47.5 -20z" />
<glyph unicode="&#x2018;" horiz-adv-x="381" d="M70 1182l116 260q21 43 70 43q33 0 52.5 -19.5t19.5 -44.5q0 -27 -17 -61l-116 -262q-21 -43 -70 -43q-31 0 -51.5 19.5t-20.5 43.5q0 28 17 64z" />
<glyph unicode="&#x2019;" horiz-adv-x="381" d="M70 1182l116 260q21 43 70 43q33 0 52.5 -19.5t19.5 -44.5q0 -27 -17 -61l-116 -262q-21 -43 -70 -43q-31 0 -51.5 19.5t-20.5 43.5q0 28 17 64z" />
<glyph unicode="&#x201a;" horiz-adv-x="381" d="M70 -127l116 262q21 43 70 43q33 0 52.5 -19.5t19.5 -43.5q0 -28 -17 -64l-116 -260q-21 -43 -70 -43q-31 0 -51.5 20t-20.5 44q0 25 17 61z" />
<glyph unicode="&#x201c;" horiz-adv-x="645" d="M70 1182l116 260q21 43 70 43q33 0 52.5 -19.5t19.5 -44.5q0 -27 -17 -61l-116 -262q-21 -43 -70 -43q-31 0 -51.5 19.5t-20.5 43.5q0 28 17 64zM334 1182l117 260q19 43 69 43q33 0 52.5 -19.5t19.5 -44.5q0 -27 -17 -61l-116 -262q-21 -43 -70 -43q-31 0 -51.5 19.5 t-20.5 43.5q0 25 17 64z" />
<glyph unicode="&#x201d;" horiz-adv-x="645" d="M70 1182l116 260q21 43 70 43q33 0 52.5 -19.5t19.5 -44.5q0 -27 -17 -61l-116 -262q-21 -43 -70 -43q-31 0 -51.5 19.5t-20.5 43.5q0 28 17 64zM334 1182l117 260q19 43 69 43q33 0 52.5 -19.5t19.5 -44.5q0 -27 -17 -61l-116 -262q-21 -43 -70 -43q-31 0 -51.5 19.5 t-20.5 43.5q0 25 17 64z" />
<glyph unicode="&#x201e;" horiz-adv-x="645" d="M70 -127l116 262q21 43 70 43q33 0 52.5 -19.5t19.5 -43.5q0 -28 -17 -64l-116 -260q-21 -43 -70 -43q-31 0 -51.5 20t-20.5 44q0 25 17 61zM334 -127l117 262q19 43 69 43q33 0 52.5 -19.5t19.5 -43.5q0 -28 -17 -64l-116 -260q-21 -43 -70 -43q-31 0 -51.5 20t-20.5 44 q0 22 17 61z" />
<glyph unicode="&#x2022;" horiz-adv-x="1024" d="M147 737q0 101 49 185t133 133t183 49q76 0 141 -27.5t116.5 -79t79.5 -118t28 -142.5q0 -99 -49.5 -184t-133 -134.5t-182.5 -49.5t-182.5 49.5t-133 134.5t-49.5 184z" />
<glyph unicode="&#x2026;" horiz-adv-x="2048" d="M1612 82q0 40 28 68t66 28t66 -28t28 -68q0 -38 -28 -66t-66 -28t-66 28t-28 66zM930 82q0 40 28 68t66 28t66 -28t28 -68q0 -38 -28 -66t-66 -28t-66 28t-28 66zM248 82q0 40 28 68t66 28t66 -28t28 -68q0 -38 -28 -66t-66 -28t-66 28t-28 66z" />
<glyph unicode="&#x202f;" horiz-adv-x="381" />
<glyph unicode="&#x2039;" horiz-adv-x="492" d="M272 195l-166 294q-22 45 -22 62q0 18 22 59l166 295q19 33 34.5 46.5t39.5 13.5q28 0 45 -17t17 -39q0 -25 -21 -59l-172 -299l172 -301q21 -34 21 -60q0 -18 -17.5 -35.5t-44.5 -17.5q-24 0 -38 12.5t-36 45.5z" />
<glyph unicode="&#x203a;" horiz-adv-x="492" d="M219 905l166 -295q23 -43 23 -59q0 -15 -23 -62l-166 -294q-17 -30 -33.5 -44t-40.5 -14q-28 0 -44.5 17.5t-16.5 35.5q0 26 20 60l172 301l-172 299q-20 34 -20 59q0 22 16 39t45 17q42 0 74 -60z" />
<glyph unicode="&#x205f;" horiz-adv-x="477" />
<glyph unicode="&#x2122;" horiz-adv-x="2028" d="M397 698v652h-202q-33 0 -48.5 19t-15.5 42t15 42.5t49 19.5h540q19 0 32 -6.5t19.5 -16t9.5 -19t3 -20.5q0 -23 -15 -42t-49 -19h-203v-652q0 -36 -19.5 -56.5t-47.5 -20.5q-27 0 -47.5 21.5t-20.5 55.5zM973 694v664q0 61 29.5 94t80.5 33q97 0 140 -109l215 -549 l209 549q42 109 139 109q50 0 80 -33t30 -94v-664q0 -35 -19.5 -56.5t-47.5 -21.5q-27 0 -47.5 22t-20.5 56v641h-4l-252 -651q-26 -68 -69 -68q-21 0 -36.5 13.5t-33.5 54.5l-254 651h-4v-641q0 -34 -19.5 -56t-48.5 -22q-28 0 -47.5 22t-19.5 56z" />
</font>
</defs>
</svg>
