<?xml version="1.0" encoding="utf-8"?>
<!-- Generator: Adobe Illustrator 18.0.0, SVG Export Plug-In . SVG Version: 6.00 Build 0)  -->
<!DOCTYPE svg PUBLIC "-//W3C//DTD SVG 1.1//EN" "http://www.w3.org/Graphics/SVG/1.1/DTD/svg11.dtd">
<svg version="1.1" id="Calque_1" xmlns="http://www.w3.org/2000/svg" xmlns:xlink="http://www.w3.org/1999/xlink" x="0px" y="0px"
	 viewBox="0 318.85 595.36 204.2" style="enable-background:new 0 318.85 595.36 204.2;" xml:space="preserve">
<style type="text/css">
	.st0{fill:#222221;}
</style>
<path class="st0" d="M117.35,365.28c-20.19,0-30.29,8.01-30.29,24.02V395h9.64v-6.1c0-12.34,6.87-18.52,20.64-18.52
	s20.66,6.18,20.66,18.52v25.15c-4.6-2.62-11.47-3.94-20.66-3.94c-20.19,0-30.29,7.95-30.29,23.83v41.61
	c0,16.01,10.1,24.02,30.29,24.02c8.66,0,15.46-1.24,20.46-3.75v2.96h10.04l0.19-109.47C148.03,373.28,137.8,365.28,117.35,365.28
	L117.35,365.28z M117.35,494.64c-7.21,0-12.45-1.38-15.73-4.14c-3.28-2.75-4.92-7.61-4.92-14.58v-42.57
	c0-12.07,6.87-18.12,20.64-18.12c12.21,0,19.01,4.28,20.46,12.79v53.21C136.11,490.18,129.29,494.64,117.35,494.64L117.35,494.64z"
	/>
<polygon class="st0" points="88.6,513.42 88.6,520.44 148.46,520.44 148.46,513.42 "/>
<path class="st0" d="M63.48,452.65c0-10.91-5.58-17.72-16.74-20.47c11.17-2.09,16.74-8.48,16.74-19.1v-24.05
	c0-8.93-1.64-15.03-4.92-18.31c-4.33-4.2-13-6.31-26.01-6.31H2.6v152.83h10.04v-81.33h17.14c8.8,0,15.24,1.45,19.31,4.33
	C52.36,442.6,54,447,54,453.43v63.81h9.46v-64.59H63.48z M47.32,427.25c-3.15,1.71-9,2.56-17.54,2.56H12.64v-59.88h17.14
	c8.53,0,14.32,0.79,17.33,2.35c4.6,2.24,6.89,7.08,6.89,14.58v25.6C54.02,419.96,51.78,424.87,47.32,427.25L47.32,427.25z"/>
<path class="st0" d="M285.91,388.63c0-16.01-10.25-24.03-30.74-24.03c-12.88,0-21.47,2.75-25.8,8.27
	c-4.73-5.52-13.39-8.27-26.01-8.27c-9.19,0-16.29,1.51-21.28,4.52v-4.52h-10.04v154.21h10.64V388.24c0-12.47,6.89-18.7,20.68-18.7
	c13.79,0,20.68,6.23,20.68,18.7v130.57h10.43V388.24c0-12.47,6.89-18.7,20.68-18.7c13.79,0,20.68,6.23,20.68,18.7v130.57h10.04
	V388.63H285.91z"/>
<path class="st0" d="M370.57,321.45h-9.46v47.86c-4.73-2.62-11.62-3.94-20.68-3.94c-20.62,0-30.93,8.01-30.93,24.03v105.4
	c0,16.01,10.3,24.03,30.93,24.03c8.66,0,15.56-1.32,20.68-3.94v3.15h9.46V321.45L370.57,321.45z M340.43,513.89
	c-14.18,0-21.28-6.23-21.28-18.7v-106.2c0-12.34,7.08-18.52,21.28-18.52c13.39,0,20.1,6.18,20.1,18.52v106.2
	C360.53,507.65,353.83,513.89,340.43,513.89L340.43,513.89z"/>
<path class="st0" d="M424.5,364.22c-20.23,0-30.34,8.01-30.34,24.03v5.71h9.64v-6.1c0-12.34,6.89-18.52,20.68-18.52
	c13.79,0,20.68,6.18,20.68,18.52v41.74c-4.6-2.62-11.49-3.94-20.68-3.94c-20.23,0-30.34,7.95-30.34,23.83v45.3
	c0,16.01,10.11,24.03,30.34,24.03c8.66,0,15.5-1.24,20.49-3.75v2.96h10.06l0.19-129.78C455.24,372.23,444.99,364.22,424.5,364.22
	L424.5,364.22z M424.5,513.89c-7.23,0-12.49-1.38-15.77-4.12c-3.28-2.75-4.92-7.61-4.92-14.58v-46.28
	c0-12.07,6.89-18.12,20.68-18.12c12.22,0,19.04,4.28,20.49,12.81v56.92C443.28,509.43,436.46,513.89,424.5,513.89L424.5,513.89z"/>
<path class="st0" d="M592.7,388.63c0-16.01-10.25-24.03-30.74-24.03c-12.86,0-21.47,2.75-25.8,8.27
	c-4.73-5.52-13.39-8.27-26.01-8.27c-9.19,0-16.29,1.51-21.27,4.52v-4.52h-10.06v154.21h10.64V388.24c0-12.47,6.89-18.7,20.68-18.7
	s20.68,6.23,20.68,18.7v130.57h10.43V388.24c0-12.47,6.89-18.7,20.68-18.7c13.79,0,20.68,6.23,20.68,18.7v130.57h10.04V388.63H592.7
	z"/>
<g>
	<path class="st0" d="M117.35,365.28v-2.6c-10.42,0-18.59,2.03-24.34,6.57c-2.86,2.26-5.05,5.16-6.46,8.53
		c-1.41,3.39-2.09,7.23-2.09,11.51v8.31h14.82v-8.7c0-2.84,0.4-5.24,1.13-7.2c1.11-2.94,2.86-4.95,5.58-6.42
		c2.71-1.47,6.48-2.3,11.36-2.3c3.26,0,6.01,0.36,8.29,1.05c3.43,1.04,5.73,2.69,7.31,5.03c1.56,2.35,2.47,5.56,2.47,9.83v25.15h2.6
		l1.28-2.26c-5.26-2.98-12.53-4.26-21.94-4.28c-10.42,0-18.57,2.02-24.32,6.52c-2.86,2.24-5.05,5.1-6.46,8.48
		c-1.43,3.37-2.09,7.2-2.09,11.43v41.61c0,4.28,0.68,8.14,2.09,11.51c2.13,5.09,5.99,9,11.23,11.47c5.24,2.49,11.75,3.62,19.57,3.64
		c8.91,0,16.09-1.26,21.62-4.01l-1.17-2.32h-2.6v5.56h15.22l0.21-112.07l0,0c0-4.28-0.68-8.14-2.13-11.53
		c-2.15-5.09-6.08-9-11.36-11.47c-5.29-2.49-11.89-3.62-19.8-3.64v2.6v2.6c9.91,0,16.99,1.98,21.42,5.46
		c2.22,1.75,3.84,3.86,4.97,6.48c1.11,2.62,1.71,5.76,1.71,9.49l0,0l-0.19,106.87h-4.84v-0.36v-4.2l-3.75,1.88
		c-4.45,2.22-10.89,3.48-19.31,3.47c-9.78,0-16.74-1.98-21.11-5.44c-2.18-1.73-3.79-3.86-4.9-6.48c-1.11-2.62-1.7-5.76-1.7-9.51
		v-41.61c0-3.69,0.58-6.82,1.7-9.42c1.66-3.88,4.41-6.69,8.66-8.72c4.24-2.02,10.02-3.11,17.35-3.11c8.93-0.02,15.43,1.32,19.36,3.6
		l3.88,2.22V388.9c0-3.33-0.47-6.33-1.45-9c-1.47-4.01-4.24-7.2-7.99-9.19c-3.75-2.02-8.36-2.92-13.81-2.92
		c-3.64,0-6.89,0.41-9.78,1.26c-4.31,1.28-7.84,3.67-10.13,7.12c-2.3,3.43-3.35,7.74-3.35,12.71v3.5h-4.46v-3.09
		c0-3.73,0.58-6.87,1.7-9.51c1.68-3.92,4.43-6.76,8.66-8.8c4.24-2.02,10.02-3.13,17.35-3.13v-2.58H117.35z M117.35,494.64v-2.6
		c-3.45,0-6.35-0.34-8.68-0.94c-2.34-0.62-4.11-1.51-5.39-2.58l0,0c-1.22-1.04-2.18-2.47-2.9-4.56c-0.7-2.07-1.09-4.75-1.09-8.02
		v-42.59c0-2.77,0.4-5.1,1.13-7.01c1.11-2.84,2.84-4.82,5.56-6.27c2.71-1.43,6.5-2.26,11.38-2.24c5.8,0,10.08,1.04,12.88,2.81
		c1.41,0.89,2.49,1.94,3.3,3.2c0.83,1.28,1.39,2.79,1.71,4.63l2.56-0.43h-2.6v53.21h2.6l-2.54-0.49c-0.38,1.96-1.02,3.6-1.88,4.95
		c-1.3,2.03-3.13,3.54-5.76,4.63c-2.62,1.09-6.05,1.7-10.28,1.7v2.6v2.6c6.27,0,11.47-1.15,15.48-3.77c2-1.3,3.65-2.98,4.92-4.95
		c1.26-1.98,2.13-4.26,2.6-6.76l0.04-0.24v-53.68l-0.04-0.21c-0.41-2.43-1.22-4.65-2.47-6.57c-1.86-2.9-4.69-5.07-8.16-6.4
		c-3.47-1.36-7.59-1.98-12.39-1.98c-3.64,0-6.87,0.4-9.76,1.24c-4.31,1.24-7.82,3.58-10.13,6.97c-2.32,3.37-3.35,7.61-3.35,12.51
		v42.59c0,3.67,0.43,6.91,1.36,9.7c0.94,2.79,2.41,5.14,4.48,6.88l0,0c2,1.68,4.5,2.86,7.4,3.64c2.9,0.75,6.23,1.11,10,1.11v-2.66
		H117.35z"/>
	<polygon class="st0" points="88.6,513.42 86.02,513.42 86.02,523.04 151.06,523.04 151.06,510.82 86.02,510.82 86.02,513.42 
		88.6,513.42 88.6,516.02 145.86,516.02 145.86,517.84 91.2,517.84 91.2,513.42 88.6,513.42 88.6,516.02 	"/>
	<path class="st0" d="M63.48,452.65h2.6c0-5.88-1.54-10.98-4.78-14.94c-3.22-3.96-7.99-6.59-13.94-8.06l-0.62,2.52l0.49,2.54
		c5.95-1.11,10.76-3.45,14.03-7.2c1.64-1.86,2.86-4.05,3.65-6.48c0.79-2.43,1.17-5.1,1.17-7.99v-24.03c0-4.63-0.41-8.59-1.32-11.94
		c-0.9-3.35-2.3-6.14-4.37-8.19l-0.02-0.02l-0.02-0.02c-2.66-2.54-6.33-4.26-10.94-5.39c-4.61-1.11-10.23-1.64-16.86-1.66H0v158.01
		h15.24v-81.31h14.54c4.26,0,7.89,0.36,10.85,1.02c2.98,0.66,5.27,1.64,6.95,2.83l-0.02-0.02c1.17,0.85,2.09,2.05,2.79,3.88
		c0.68,1.81,1.07,4.22,1.07,7.21v66.4h14.65v-67.17H63.48h-2.6v62.01h-4.26v-61.22c0-3.43-0.43-6.44-1.39-9.02s-2.51-4.77-4.61-6.27
		l0,0l0,0c-2.39-1.7-5.35-2.88-8.82-3.67c-3.47-0.77-7.46-1.15-12-1.15H10.04v81.33H5.2V367.01h27.35c6.37,0,11.6,0.53,15.63,1.51
		c4.05,0.98,6.87,2.41,8.55,4.07l1.81-1.86l-1.83,1.83c1.22,1.22,2.28,3.13,3.01,5.88s1.15,6.29,1.15,10.6v24.03
		c0,2.43-0.32,4.54-0.92,6.37c-0.9,2.73-2.39,4.82-4.6,6.52c-2.2,1.68-5.22,2.94-9.12,3.67l-0.13,5.07c5.2,1.3,8.82,3.45,11.17,6.31
		c2.35,2.88,3.6,6.63,3.6,11.66H63.48L63.48,452.65z M47.32,427.25l-1.24-2.28c-1.15,0.62-3.15,1.24-5.88,1.64
		c-2.75,0.4-6.23,0.62-10.42,0.6H15.24v-54.68h14.54c4.18,0,7.67,0.19,10.38,0.57c2.71,0.36,4.69,0.94,5.74,1.51l0.04,0.02
		l0.04,0.02c1.77,0.89,3.01,2.13,3.96,4.09c0.92,1.96,1.47,4.67,1.47,8.16v25.6c0,3.48-0.53,6.23-1.45,8.23
		c-0.92,2.02-2.15,3.32-3.88,4.24h-0.02h-0.02L47.32,427.25l1.22,2.3c2.75-1.43,4.86-3.77,6.18-6.69s1.9-6.39,1.9-10.38v-25.62
		c0-4.01-0.6-7.46-1.98-10.36c-1.36-2.9-3.56-5.18-6.39-6.54l-1.13,2.34l1.21-2.3c-1.96-1-4.39-1.62-7.46-2.03
		c-3.05-0.41-6.74-0.62-11.09-0.62H10.04v65.06h19.74c4.35,0,8.06-0.23,11.15-0.66c3.11-0.45,5.59-1.13,7.61-2.2l-0.02,0.02
		L47.32,427.25L47.32,427.25z"/>
	<path class="st0" d="M285.91,388.63h2.6c0-4.28-0.68-8.14-2.13-11.53c-2.15-5.1-6.08-9-11.38-11.47
		c-5.29-2.47-11.9-3.62-19.83-3.62c-6.63,0-12.24,0.7-16.9,2.18c-4.65,1.49-8.38,3.8-10.94,7.06l2.03,1.6l1.98-1.7
		c-2.73-3.2-6.55-5.5-11.23-6.99c-4.69-1.49-10.25-2.18-16.74-2.18c-9.47,0-17.01,1.53-22.62,4.9l1.34,2.22h2.6V362h-15.24v159.39
		h15.84V388.22c0-2.88,0.4-5.29,1.13-7.29c1.11-2.98,2.88-5.01,5.59-6.52c2.71-1.49,6.48-2.32,11.36-2.32
		c3.26,0,6.03,0.38,8.31,1.05c3.43,1.05,5.73,2.71,7.31,5.09c1.58,2.37,2.47,5.63,2.47,9.96v133.17h15.63V388.2
		c0-2.88,0.4-5.29,1.13-7.29c1.11-2.98,2.88-5.01,5.59-6.52c2.71-1.49,6.48-2.32,11.38-2.32c3.26,0,6.03,0.38,8.31,1.05
		c3.43,1.05,5.73,2.71,7.31,5.09c1.58,2.37,2.47,5.63,2.47,9.96v133.17h15.24V388.63H285.91h-2.6v127.57h-4.86V388.24
		c0-3.35-0.45-6.39-1.45-9.08c-1.47-4.05-4.24-7.25-7.99-9.29s-8.38-2.94-13.84-2.94c-3.64,0-6.91,0.41-9.79,1.28
		c-4.33,1.28-7.85,3.71-10.13,7.2c-2.3,3.47-3.33,7.82-3.33,12.83v127.97h-5.26V388.24c0-3.35-0.47-6.39-1.45-9.08
		c-1.47-4.05-4.24-7.25-7.99-9.29s-8.38-2.94-13.84-2.94c-3.64,0-6.91,0.41-9.79,1.28c-4.33,1.28-7.85,3.71-10.13,7.2
		c-2.3,3.47-3.33,7.82-3.33,12.83v127.97h-5.44V367.22h4.86v1.94v4.6l3.94-2.39c4.37-2.66,11.02-4.16,19.93-4.16
		c6.12,0,11.19,0.68,15.16,1.94c3.99,1.28,6.88,3.11,8.87,5.42l2.05,2.39l1.96-2.49c1.77-2.26,4.5-4.07,8.46-5.33
		c3.94-1.26,9.06-1.94,15.31-1.94c9.93,0,17.03,1.98,21.45,5.46c2.22,1.75,3.84,3.86,4.97,6.48c1.11,2.62,1.71,5.76,1.71,9.49
		H285.91L285.91,388.63z"/>
	<path class="st0" d="M370.57,321.45v-2.6h-12.05v50.46h2.6l1.26-2.28c-5.35-2.96-12.64-4.26-21.94-4.28
		c-10.62,0.02-18.95,2.03-24.79,6.55c-2.92,2.26-5.14,5.14-6.59,8.53s-2.15,7.25-2.15,11.53v105.4c0,4.28,0.7,8.14,2.15,11.53
		c2.17,5.1,6.12,9,11.43,11.47c5.31,2.47,11.96,3.62,19.95,3.62c8.93,0,16.2-1.34,21.87-4.22l-1.19-2.32h-2.6v5.74h14.65V318.85
		h-2.6V321.45h-2.6v193.99h-4.26v-0.57v-4.26l-3.79,1.94c-4.58,2.35-11.09,3.65-19.49,3.65c-10,0-17.14-1.98-21.6-5.46
		c-2.24-1.75-3.88-3.86-5.01-6.48c-1.13-2.62-1.71-5.76-1.71-9.49V389.39c0-3.73,0.6-6.87,1.71-9.49c1.7-3.92,4.5-6.76,8.85-8.82
		c4.35-2.03,10.27-3.15,17.74-3.15c8.82-0.02,15.33,1.32,19.42,3.62l3.86,2.15v-49.65h6.86v-2.6h-2.6H370.57L370.57,321.45z
		 M340.43,513.89v-2.6c-3.35,0-6.22-0.38-8.57-1.05c-3.54-1.05-5.93-2.73-7.57-5.1c-1.62-2.37-2.54-5.61-2.54-9.95v-106.2
		c0-2.84,0.41-5.22,1.17-7.18c1.13-2.92,2.94-4.95,5.76-6.44c2.81-1.47,6.72-2.32,11.77-2.32c3.15,0,5.82,0.36,8.02,1.04
		c3.32,1.04,5.52,2.67,7.06,5.01c1.53,2.35,2.41,5.58,2.41,9.87v106.2c0,2.88-0.4,5.31-1.11,7.31c-1.09,2.99-2.81,5.03-5.42,6.5
		c-2.62,1.47-6.25,2.3-10.98,2.3L340.43,513.89l0,2.6c3.54,0,6.74-0.41,9.57-1.28c4.24-1.3,7.67-3.75,9.89-7.21
		c2.22-3.47,3.24-7.8,3.24-12.81v-106.2c0-3.32-0.45-6.33-1.41-8.98c-1.43-3.99-4.11-7.2-7.78-9.19c-3.65-2.02-8.17-2.92-13.51-2.92
		c-3.73,0-7.08,0.4-10.04,1.26c-4.43,1.26-8.02,3.65-10.4,7.1c-2.37,3.45-3.45,7.76-3.45,12.75v106.2c0,3.37,0.47,6.4,1.51,9.1
		c1.51,4.05,4.35,7.27,8.19,9.27c3.84,2.02,8.57,2.92,14.18,2.92L340.43,513.89L340.43,513.89z"/>
	<path class="st0" d="M424.5,364.22v-2.6c-10.43,0-18.61,2.03-24.37,6.57c-2.86,2.26-5.05,5.14-6.46,8.53
		c-1.43,3.39-2.09,7.25-2.09,11.53v8.31h14.84v-8.7c0-2.84,0.4-5.24,1.13-7.2c1.11-2.94,2.86-4.95,5.58-6.42
		c2.71-1.47,6.5-2.3,11.38-2.3c3.26,0,6.03,0.36,8.31,1.05c3.43,1.04,5.73,2.69,7.31,5.03c1.58,2.35,2.47,5.56,2.47,9.83v41.74h2.6
		l1.28-2.26c-5.26-2.98-12.54-4.28-21.98-4.28c-10.43,0-18.61,2.02-24.35,6.52c-2.86,2.24-5.05,5.1-6.48,8.48
		c-1.43,3.37-2.11,7.2-2.11,11.43v45.3c0,4.28,0.68,8.14,2.09,11.53c2.13,5.09,6.01,9,11.23,11.47c5.24,2.49,11.77,3.62,19.61,3.64
		c8.91,0,16.1-1.26,21.64-4.01l-1.17-2.32h-2.6v5.56h15.24l0.21-132.38l0,0c0-4.28-0.68-8.14-2.13-11.53
		c-2.15-5.09-6.08-9-11.38-11.47c-5.29-2.49-11.9-3.62-19.83-3.62v2.56v2.6c9.93,0,17.03,1.98,21.45,5.46
		c2.22,1.75,3.84,3.86,4.97,6.48c1.11,2.62,1.71,5.76,1.71,9.49l0,0l-0.19,127.2h-4.86v-0.36v-4.2l-3.75,1.88
		c-4.45,2.22-10.91,3.47-19.33,3.47c-9.79,0-16.78-1.96-21.13-5.44c-2.2-1.75-3.8-3.86-4.92-6.48c-1.11-2.62-1.7-5.76-1.7-9.51
		v-45.32c0-3.69,0.58-6.82,1.7-9.42c1.66-3.88,4.41-6.69,8.66-8.72c4.26-2.02,10.04-3.11,17.39-3.11c8.95-0.02,15.46,1.32,19.4,3.6
		l3.88,2.22v-46.22c0-3.32-0.47-6.33-1.45-9c-1.47-4.01-4.24-7.2-7.99-9.19c-3.75-2.02-8.38-2.9-13.83-2.92
		c-3.64,0-6.91,0.4-9.79,1.26c-4.33,1.28-7.85,3.67-10.13,7.12c-2.3,3.45-3.35,7.74-3.35,12.73v3.5h-4.46v-3.11
		c0-3.73,0.58-6.88,1.7-9.51c1.68-3.92,4.43-6.76,8.68-8.8c4.24-2.03,10.04-3.13,17.37-3.13v-2.58H424.5z M424.5,513.89v-2.6
		c-3.45,0-6.37-0.34-8.7-0.94c-2.35-0.62-4.11-1.51-5.39-2.58l0,0c-1.22-1.04-2.2-2.47-2.9-4.56c-0.7-2.07-1.09-4.75-1.09-8.02
		v-46.28c0-2.77,0.4-5.1,1.13-7.01c1.11-2.84,2.84-4.82,5.58-6.27c2.71-1.43,6.5-2.26,11.4-2.26c5.82,0,10.1,1.04,12.9,2.81
		c1.41,0.89,2.49,1.94,3.32,3.2c0.83,1.26,1.39,2.79,1.71,4.63l2.56-0.43h-2.6v56.92h2.6l-2.54-0.49c-0.38,1.96-1.02,3.6-1.88,4.95
		c-1.32,2.03-3.15,3.56-5.76,4.65c-2.62,1.09-6.05,1.7-10.3,1.7v2.58v2.6c6.29,0,11.49-1.15,15.5-3.77c2-1.3,3.67-2.98,4.93-4.95
		c1.26-1.98,2.13-4.26,2.6-6.76l0.06-0.24v-57.39l-0.06-0.21c-0.41-2.43-1.22-4.65-2.47-6.57c-1.86-2.9-4.69-5.07-8.16-6.4
		c-3.48-1.36-7.61-1.98-12.41-1.98c-3.64,0-6.89,0.4-9.78,1.24c-4.31,1.24-7.84,3.58-10.13,6.97c-2.32,3.37-3.37,7.63-3.37,12.51
		v46.28c0,3.69,0.43,6.91,1.37,9.7c0.94,2.79,2.43,5.14,4.48,6.88l0,0c2,1.68,4.5,2.86,7.4,3.62c2.9,0.77,6.23,1.11,10.02,1.11
		v-2.62H424.5z"/>
	<path class="st0" d="M592.7,388.63h2.6c0-4.28-0.68-8.14-2.13-11.53c-2.15-5.1-6.08-9-11.38-11.47c-5.29-2.47-11.9-3.62-19.83-3.62
		c-6.63,0-12.24,0.7-16.9,2.18s-8.4,3.8-10.94,7.06l2.03,1.6l1.98-1.7c-2.75-3.2-6.55-5.5-11.23-6.99
		c-4.69-1.49-10.25-2.18-16.74-2.18c-9.47,0-17.01,1.53-22.62,4.9l1.34,2.22h2.6V362h-15.24v159.39h15.84V388.22
		c0-2.88,0.4-5.29,1.13-7.29c1.11-2.98,2.88-5.01,5.59-6.52c2.71-1.49,6.48-2.32,11.38-2.32c3.26,0,6.03,0.38,8.31,1.05
		c3.43,1.05,5.73,2.71,7.31,5.09c1.58,2.37,2.47,5.63,2.49,9.96v133.17h15.63V388.2c0-2.88,0.4-5.29,1.13-7.29
		c1.11-2.98,2.88-5.01,5.59-6.52c2.71-1.49,6.48-2.32,11.38-2.32c3.26,0,6.03,0.38,8.31,1.05c3.43,1.05,5.73,2.71,7.31,5.09
		c1.58,2.37,2.47,5.63,2.49,9.96v133.17h15.24V388.63H592.7h-2.6v127.57h-4.86V388.24c0-3.35-0.47-6.39-1.45-9.08
		c-1.47-4.05-4.24-7.25-7.99-9.29c-3.75-2.03-8.38-2.94-13.84-2.94c-3.64,0-6.91,0.41-9.79,1.28c-4.33,1.28-7.85,3.71-10.13,7.2
		c-2.3,3.47-3.35,7.82-3.33,12.83v127.97h-5.26V388.24c0-3.35-0.47-6.39-1.45-9.08c-1.47-4.05-4.24-7.25-7.99-9.29
		s-8.38-2.94-13.84-2.94c-3.64,0-6.91,0.41-9.79,1.28c-4.33,1.28-7.85,3.71-10.13,7.2c-2.3,3.47-3.33,7.82-3.33,12.83v127.97h-5.44
		V367.22h4.86v1.94v4.6l3.94-2.39c4.37-2.66,11.02-4.16,19.93-4.16c6.12,0,11.19,0.68,15.16,1.94c3.99,1.28,6.87,3.11,8.87,5.42
		l2.05,2.39l1.96-2.49c1.77-2.26,4.5-4.07,8.46-5.33c3.94-1.26,9.06-1.94,15.31-1.94c9.93,0,17.03,1.98,21.45,5.46
		c2.22,1.75,3.84,3.86,4.97,6.48c1.11,2.62,1.71,5.76,1.71,9.49H592.7L592.7,388.63z"/>
</g>
</svg>
